<?xml version="1.0" encoding="utf-8"?>
<!-- Generator: Adobe Illustrator 27.5.0, SVG Export Plug-In . SVG Version: 6.00 Build 0)  -->
<svg version="1.1" xmlns="http://www.w3.org/2000/svg" xmlns:xlink="http://www.w3.org/1999/xlink" x="0px" y="0px"
	 viewBox="0 0 500 500" style="enable-background:new 0 0 500 500;" xml:space="preserve">
<g id="Floor">
	<path id="Floor_00000168835919656798386510000008483983643228715147_" style="fill:#FAFAFA;" d="M84.436,249.293
		c-92.077,53.161-92.074,139.351,0.005,192.512c92.079,53.161,241.368,53.161,333.444,0c92.077-53.161,92.074-139.351-0.005-192.512
		C325.801,196.132,176.513,196.132,84.436,249.293z"/>
</g>
<g id="Window">
	<g id="Window_00000142898266360529751040000017086723202827338915_">
		<g id="Window_00000154392730566435436710000018235356966111379129_">
			<g id="Frame_00000179625989265560511040000014653547704228991878_">
				<polygon id="XMLID_00000136409547734813406640000001919818743749464706_" style="fill:#FAFAFA;" points="42.833,246.338 
					45.513,247.935 133.947,196.878 131.269,195.279 				"/>
				<g id="XMLID_00000130644050304619466890000004689232505042113191_">
					<g id="XMLID_00000110468267837784132630000004816494370061624728_">
						<g id="XMLID_00000148643298623506242840000011491519240031734673_">
							<polygon id="XMLID_00000083074664471793305840000018362649667977531269_" style="fill:#FFFFFF;" points="131.269,195.279 
								45.514,244.784 45.514,87.189 131.27,37.703 							"/>
						</g>
					</g>
				</g>
				<path id="XMLID_00000028296214781857957500000011601743782539360388_" style="fill:#F0F0F0;" d="M139.006,27.374L40.457,84.27
					l0,172.422l98.548-56.897L139.006,27.374z M133.947,196.878l-88.434,51.058l0.001-160.747l88.434-51.058L133.947,196.878z"/>
				<polygon id="XMLID_00000172436226399239053810000014805536166140209542_" style="fill:#E0E0E0;" points="133.947,196.878 
					131.269,195.279 131.27,37.703 133.948,36.131 				"/>
				<polygon id="XMLID_00000103243116641534329580000007514786049726509442_" style="fill:#FAFAFA;" points="45.513,190.015 
					45.513,193.16 133.947,142.102 131.269,140.503 				"/>
				<polygon id="XMLID_00000014633933947699853630000004200089643392816024_" style="fill:#FAFAFA;" points="45.513,133 
					45.513,136.145 133.947,85.087 131.269,83.489 				"/>
				<polygon id="XMLID_00000094589097060040699170000015284107154246036405_" style="fill:#FAFAFA;" points="139.006,27.374 
					136.284,25.816 37.737,82.713 40.457,84.27 				"/>
				<polygon id="XMLID_00000096763656523389250590000015807188619836672909_" style="fill:#E0E0E0;" points="37.737,82.713 
					40.457,84.27 40.457,256.692 37.737,255.134 				"/>
				<polygon id="XMLID_00000063619318132657034680000003775287419353857433_" style="fill:#E0E0E0;" points="84.492,64.685 
					87.212,63.114 87.212,223.87 84.492,222.312 				"/>
			</g>
			<polygon style="fill:#F0F0F0;" points="92.269,60.208 87.212,63.114 87.212,223.87 92.268,220.941 			"/>
			<g>
				<polygon style="fill:#F0F0F0;" points="139.005,82.169 139.005,87.999 40.457,144.896 40.457,139.065 				"/>
				<polygon style="fill:#F0F0F0;" points="139.005,139.17 139.005,145.001 40.457,201.897 40.457,196.066 				"/>
			</g>
			<polygon style="fill:#FAFAFA;" points="87.212,112.07 84.492,110.496 45.513,133 45.513,136.145 			"/>
			<polygon style="fill:#FAFAFA;" points="87.212,169.053 84.492,167.479 45.513,189.984 45.513,193.128 			"/>
		</g>
	</g>
</g>
<g id="Pictures">
	<g id="Picture_00000121994384280331016190000008209642896346376359_">
		<g id="Frame_00000142134857259566705720000016110702868692230068_">
			<polygon id="XMLID_00000152236578212660091810000001672571483880707761_" style="fill:#FAFAFA;" points="414.705,90.237 
				412.95,91.283 376.949,70.497 378.703,69.451 			"/>
			<g id="XMLID_00000151501466351876845580000008591533331699107772_">
				<g id="XMLID_00000051352041982259445090000014663361480528044937_">
					<g id="XMLID_00000025402471021743806620000009972356069709382556_">
						<polygon id="XMLID_00000072251426435144967680000017700744682469377196_" style="fill:#FFFFFF;" points="378.703,69.451 
							412.95,89.219 412.949,53.356 378.702,33.6 						"/>
					</g>
				</g>
			</g>
			<path id="XMLID_00000137114450319603970990000016208789344330228654_" style="fill:#F0F0F0;" d="M373.637,72.408l42.624,24.609
				l0-45.572l-42.624-24.609L373.637,72.408z M376.948,32.57l36.001,20.785l0.001,37.927l-36.001-20.785L376.948,32.57z"/>
			<polygon id="XMLID_00000014600621926142025160000004015974254587920046_" style="fill:#E0E0E0;" points="376.949,70.497 
				378.703,69.451 378.702,33.6 376.948,32.57 			"/>
			<polygon id="XMLID_00000080892276766005392080000011595837875118847362_" style="fill:#FAFAFA;" points="373.637,26.836 
				375.419,25.816 418.042,50.425 416.261,51.445 			"/>
			<polygon id="XMLID_00000164493783705657941110000008788295296695226752_" style="fill:#E0E0E0;" points="418.042,50.425 
				416.261,51.445 416.261,97.016 418.042,95.997 			"/>
		</g>
		<g id="Land_00000071547602896714300730000004258337209630019220_">
			<polygon style="fill:#F0F0F0;" points="380.04,68.379 411.613,86.608 411.613,77.493 403.719,59.265 398.801,63.822 
				400.57,71.462 389.668,48.147 380.04,59.265 			"/>
			<path style="fill:#F0F0F0;" d="M399.099,50.463c1.29,0.745,2.335,2.556,2.335,4.045c0,1.489-1.046,2.093-2.335,1.348
				c-1.29-0.745-2.335-2.555-2.335-4.045C396.764,50.322,397.809,49.718,399.099,50.463z"/>
		</g>
	</g>
	<g id="Picture_00000062183486010961491150000011974704914619194022_">
		<g id="Frame_00000054963568700503426480000009228324966180206000_">
			<polygon id="XMLID_00000179637202054449226320000011745553750660056495_" style="fill:#FAFAFA;" points="465.781,140.064 
				464.026,141.11 428.025,120.324 429.779,119.277 			"/>
			<g id="XMLID_00000167376047849511821960000016238810483945185427_">
				<g id="XMLID_00000083084490516265811630000012215943616597568703_">
					<g id="XMLID_00000151531742366207987790000003313913274859799175_">
						<polygon id="XMLID_00000008139820657108883480000010072332039152896897_" style="fill:#FFFFFF;" points="429.779,119.277 
							464.026,139.046 464.025,103.183 429.778,83.427 						"/>
					</g>
				</g>
			</g>
			<path id="XMLID_00000078010996652357688540000001249670430331201670_" style="fill:#F0F0F0;" d="M424.713,122.234l42.623,24.609
				l0-45.572l-42.624-24.609L424.713,122.234z M428.024,82.397l36.001,20.785l0.001,37.927l-36.001-20.785L428.024,82.397z"/>
			<polygon id="XMLID_00000060717484606980883750000016592010934940220063_" style="fill:#E0E0E0;" points="428.025,120.324 
				429.779,119.277 429.778,83.427 428.024,82.397 			"/>
			<polygon id="XMLID_00000120517690515129961950000008153641909739060384_" style="fill:#FAFAFA;" points="424.713,76.663 
				426.494,75.643 469.118,100.252 467.337,101.272 			"/>
			<polygon id="XMLID_00000165202858903492661100000000456456673015657623_" style="fill:#E0E0E0;" points="469.118,100.252 
				467.337,101.272 467.336,146.843 469.118,145.824 			"/>
		</g>
		<g id="Land_00000057121711908287957160000004010415545053946555_">
			<polygon style="fill:#F0F0F0;" points="431.115,118.205 462.688,136.434 462.688,127.32 454.794,109.091 449.877,113.648 
				451.646,121.288 440.744,97.973 431.115,109.091 			"/>
			<path style="fill:#F0F0F0;" d="M450.174,100.289c1.29,0.744,2.335,2.556,2.335,4.045c0,1.489-1.046,2.093-2.335,1.348
				c-1.29-0.745-2.335-2.555-2.335-4.045C447.839,100.148,448.885,99.545,450.174,100.289z"/>
		</g>
	</g>
</g>
<g id="Plants">
	<g id="Plants_00000131336220566613610360000008213949866003703453_">
		<g>
			<g>
				<path style="fill:#BA68C8;" d="M439.614,282.709c-0.072,0.01-0.146,0.007-0.22-0.01l-6.352-1.504
					c-0.177-0.042-0.321-0.164-0.381-0.323c-0.058-0.152-5.586-15.389,6.193-36.045c8.406-14.738,21.561-24.318,29.945-21.801
					c3.427,1.028,5.809,3.26,6.535,6.124c0.807,3.178-0.47,6.658-3.412,9.306c-0.658,0.592-1.682,1.395-2.981,2.412
					c-8.029,6.292-26.832,21.026-28.865,41.388c-0.014,0.148-0.099,0.281-0.23,0.367
					C439.777,282.668,439.697,282.698,439.614,282.709z M433.613,280.286l5.436,1.287c2.371-20.464,21.129-35.164,29.183-41.476
					c1.281-1.004,2.294-1.798,2.924-2.365c2.667-2.399,3.829-5.522,3.112-8.353c-0.646-2.548-2.708-4.464-5.807-5.394
					c-7.892-2.364-20.47,6.996-28.635,21.312C429.109,264.094,432.962,278.241,433.613,280.286z"/>
			</g>
			<g>
				<path style="fill:#BA68C8;" d="M436.006,281.854c-0.024,0.003-0.049,0.006-0.074,0.005c-0.302,0.006-0.553-0.216-0.557-0.496
					c-0.47-23.783,17.396-46.696,29.417-51.415c0.28-0.111,0.601,0.01,0.72,0.267c0.118,0.257-0.011,0.554-0.289,0.663
					c-11.887,4.665-29.197,27.912-28.752,50.467C436.475,281.601,436.273,281.816,436.006,281.854z"/>
			</g>
		</g>
		<g>
			<g>
				<path style="fill:#BA68C8;" d="M433.262,281.205c-0.078,0.011-0.16,0.007-0.241-0.016l-4.307-1.2
					c-0.174-0.049-0.31-0.172-0.365-0.331c-0.077-0.226-7.671-22.949-2.075-53.557c2.85-15.592,12.714-30.801,23.454-36.165
					c5.165-2.576,10.239-2.9,15.086-0.957c2.74,1.099,4.455,2.718,5.098,4.813c1.777,5.791-4.748,14.412-11.655,23.54
					c-4.834,6.385-9.831,12.988-12.111,18.819c-0.103,0.263-0.418,0.397-0.702,0.304c-0.285-0.095-0.433-0.384-0.33-0.647
					c2.329-5.957,7.369-12.616,12.243-19.056c6.755-8.926,13.137-17.355,11.5-22.686c-0.556-1.813-2.022-3.175-4.481-4.161
					c-4.519-1.813-9.272-1.506-14.124,0.92c-10.468,5.227-20.096,20.133-22.896,35.444c-5.236,28.637,1.149,50.268,1.959,52.831
					l4.024,1.122c0.289,0.08,0.454,0.363,0.366,0.63C433.641,281.044,433.464,281.176,433.262,281.205z"/>
			</g>
			<g>
				<path style="fill:#BA68C8;" d="M432.195,266.733c-0.013,0.002-0.026,0.004-0.039,0.004c-0.302,0.022-0.566-0.185-0.591-0.463
					c-3.246-36.791,19.029-66.249,25.619-71.305c0.232-0.177,0.579-0.15,0.772,0.065c0.194,0.214,0.163,0.533-0.07,0.712
					c-6.495,4.983-28.439,34.054-25.227,70.447C432.682,266.459,432.477,266.693,432.195,266.733z"/>
			</g>
		</g>
	</g>
</g>
<g id="Shadows">
	<path id="Shadow_00000099657966947800812470000017777734795515488655_" style="fill:#E0E0E0;" d="M292.186,280.074l17.556,10.136
		l-144.026,82.946l-24.562-14.181c-10.081,0-18.135,0.001-28.216,0.001L63.84,387.329c0.001,10.859,0.001,13.574,0.001,24.433
		l80.451,46.448c10.081-0.001,18.135-0.001,28.216-0.001l49.097-28.353c-0.001-10.859-0.001-13.574-0.001-24.433l-17.513-10.111
		l144.026-82.946l24.533,14.164c10.098-0.009,18.16-0.017,28.259-0.026l44.066-25.551c-0.01-10.848-0.013-13.573-0.023-24.42
		l-80.465-46.457c-10.098,0.009-18.16,0.017-28.259,0.026l-44.066,25.551C292.173,266.502,292.176,269.227,292.186,280.074z"/>
	
		<ellipse id="Shadow_00000065754999843613862740000012905282050070670008_" style="fill:#E0E0E0;" cx="406.344" cy="376.674" rx="22.505" ry="12.993"/>
</g>
<g id="Dumbbell">
	<g id="Dumbbell_00000178206737200193416440000006659153336504690854_">
		<g>
			<g>
				<g>
					<g>
						<g>
							<polygon style="fill:#37474F;" points="331.688,301.843 328.929,295.436 373.007,291.499 391.655,296.487 							"/>
							<polygon style="fill:#455A64;" points="373.007,232.728 373.007,291.499 391.655,296.487 391.651,223.777 							"/>
							<polygon style="fill:#37474F;" points="328.929,177.895 341.461,161.342 391.651,223.777 373.007,232.728 							"/>
							<polygon style="fill:#263238;" points="284.852,181.832 281.494,166.698 341.461,161.342 328.929,177.895 							"/>
							<polygon points="281.494,166.698 281.494,240.418 331.688,301.843 328.929,295.436 284.852,240.602 284.852,181.832 							
								"/>
						</g>
						<polygon style="fill:#455A64;" points="284.852,240.602 284.852,181.832 328.929,177.895 373.007,232.728 373.007,291.499 
							328.929,295.436 						"/>
					</g>
					<g>
						<polygon style="fill:#455A64;" points="391.655,296.487 426.447,276.4 426.444,203.69 391.651,223.777 						"/>
						<polygon style="fill:#37474F;" points="341.461,161.342 391.651,223.777 426.444,203.69 376.253,141.254 						"/>
						<polygon style="fill:#263238;" points="281.494,166.698 316.286,146.611 376.253,141.254 341.461,161.342 						"/>
					</g>
					<path style="opacity:0.2;" d="M391.655,296.487c0.261-12.118,0.711-24.236,0.816-36.354c0.16-12.118,0.393-24.237,0.398-36.355
						l0.001-0.427l-0.27-0.337l-24.996-31.297l-25.246-31.097l-0.395-0.487l-0.605,0.061c-19.968,2.021-39.927,4.136-59.864,6.503
						c19.833-1.191,39.643-2.632,59.445-4.164l24.569,30.867l24.93,30.813c0.012,11.973,0.238,23.945,0.397,35.919
						C390.941,272.251,391.392,284.369,391.655,296.487z"/>
				</g>
				<polygon style="fill:#37474F;" points="376.253,141.254 390.858,144.112 432.644,196.094 426.444,203.69 				"/>
				<polygon style="fill:#455A64;" points="432.647,256.63 426.447,276.4 426.444,203.69 432.644,196.094 				"/>
				<g style="opacity:0.2;">
					<path d="M426.447,276.4c0.466-12.118,0.844-24.237,1.015-36.354c0.27-12.119,0.21-24.237,0.331-36.355l0.004-0.471
						l-0.302-0.376c-8.368-10.403-16.81-20.748-25.294-31.058c-8.522-10.278-17.161-20.465-25.948-30.532
						c7.943,10.745,16.035,21.371,24.242,31.903c8.246,10.501,16.535,20.969,24.896,31.378l-0.297-0.844
						c0.122,12.118,0.063,24.236,0.335,36.355C425.6,252.163,425.98,264.282,426.447,276.4z"/>
				</g>
				<polygon style="opacity:0.1;fill:#FFFFFF;" points="284.852,181.832 327.763,180.79 369.936,233.865 370.519,289.813 
					328.929,295.436 373.007,291.499 373.007,232.728 328.929,177.895 				"/>
			</g>
			<g>
				<path style="fill:#263238;" d="M404.821,270.896c-0.227,0.283-0.478,0.48-0.758,0.598c-0.275,0.117-0.501,0.128-0.674,0.03
					l-6.237-3.431c-0.149-0.087-0.322-0.204-0.525-0.336c-0.203-0.133-0.304-0.365-0.304-0.69v-3.993
					c0-0.239,0.101-0.505,0.304-0.796c0.203-0.291,0.442-0.519,0.716-0.675l24.406-14.093c0.275-0.159,0.513-0.208,0.716-0.15
					c0.203,0.058,0.298,0.21,0.298,0.449v4.286c0,0.242-0.096,0.501-0.298,0.792c-0.203,0.294-0.442,0.516-0.716,0.675l-16.51,9.532
					l3.402,1.93c0.173,0.099,0.239,0.279,0.203,0.539c-0.036,0.259-0.167,0.53-0.394,0.813L404.821,270.896z"/>
				<path style="fill:#263238;" d="M395.945,248.993c0-1.635,0.275-3.197,0.83-4.697c0.555-1.501,1.295-2.901,2.226-4.212
					c0.937-1.315,2.023-2.521,3.271-3.625c1.247-1.1,2.549-2.075,3.909-2.927c1.08-0.666,2.22-1.349,3.396-2.027
					c1.188-0.685,2.298-1.304,3.331-1.858c1.361-0.721,2.662-1.247,3.91-1.587c1.242-0.332,2.334-0.388,3.265-0.15
					c0.931,0.235,1.677,0.779,2.226,1.643c0.555,0.857,0.836,2.1,0.836,3.736c0,1.635-0.281,3.204-0.836,4.704
					c-0.549,1.494-1.295,2.901-2.226,4.212c-0.931,1.314-2.023,2.521-3.265,3.618c-1.247,1.103-2.549,2.077-3.91,2.93
					c-1.033,0.64-2.143,1.304-3.331,1.99c-1.176,0.677-2.316,1.316-3.396,1.895c-1.361,0.721-2.662,1.247-3.909,1.584
					c-1.247,0.339-2.334,0.391-3.271,0.157c-0.931-0.235-1.671-0.786-2.226-1.643C396.22,251.878,395.945,250.629,395.945,248.993z
					 M412.718,235.81c-2.143,1.152-4.256,2.371-6.351,3.669c-0.621,0.4-1.206,0.819-1.737,1.247
					c-0.525,0.424-0.985,0.878-1.379,1.368c-0.388,0.487-0.698,1.015-0.925,1.582c-0.227,0.566-0.334,1.174-0.334,1.827
					c0,0.653,0.108,1.138,0.334,1.443c0.227,0.305,0.537,0.475,0.925,0.514c0.394,0.035,0.854-0.037,1.379-0.207
					c0.531-0.178,1.116-0.438,1.737-0.773c2.095-1.103,4.208-2.319,6.351-3.669c0.633-0.387,1.212-0.793,1.737-1.215
					c0.531-0.425,0.985-0.884,1.379-1.383c0.394-0.503,0.698-1.033,0.925-1.6s0.34-1.178,0.34-1.831c0-0.654-0.113-1.134-0.34-1.439
					c-0.227-0.305-0.531-0.485-0.925-0.528c-0.394-0.046-0.848,0.021-1.379,0.204C413.929,235.202,413.35,235.464,412.718,235.81z"
					/>
			</g>
		</g>
		<g>
			<g>
				<path style="fill:#F0F0F0;" d="M166.926,361.229c-3.512,2.027-8.363,1.735-13.722-1.359
					c-10.717-6.188-19.406-21.237-19.406-33.612c0-6.188,2.172-10.536,5.684-12.564c2.132-1.231,162.631-93.895,164.764-95.126
					c3.512-2.027,8.364-1.734,13.722,1.359c10.718,6.189,19.406,21.237,19.406,33.613c0,6.188-2.173,10.535-5.684,12.563
					C329.557,267.333,169.058,359.997,166.926,361.229z"/>
				<path style="fill:#FAFAFA;" d="M133.798,326.257c0-6.188,2.172-10.536,5.684-12.563c3.512-2.027,8.363-1.734,13.722,1.36
					c10.718,6.188,19.406,21.237,19.406,33.613c0,6.188-2.172,10.536-5.684,12.563c-3.512,2.027-8.363,1.734-13.722-1.36
					C142.486,353.681,133.798,338.632,133.798,326.257z"/>
			</g>
			<g>
				<path style="fill:#E0E0E0;" d="M210.745,336.175l6.543-3.778c3.475-2.006,5.696-6.378,5.668-12.541
					c0.029-12.372-8.667-27.432-19.396-33.596c-5.322-3.104-10.218-3.366-13.693-1.36l-6.543,3.778
					c3.476-2.007,8.372-1.744,13.694,1.36c10.73,6.163,19.425,21.224,19.396,33.596
					C216.441,329.797,214.221,334.168,210.745,336.175z"/>
			</g>
			<g>
				<path style="fill:#E0E0E0;" d="M300.411,284.086l6.543-3.778c3.475-2.006,5.695-6.378,5.668-12.541
					c0.029-12.372-8.667-27.432-19.397-33.596c-5.322-3.104-10.218-3.366-13.694-1.36l-6.543,3.778
					c3.476-2.007,8.372-1.744,13.694,1.36c10.729,6.163,19.425,21.224,19.396,33.596
					C306.107,277.708,303.887,282.079,300.411,284.086z"/>
			</g>
			<g>
				<path style="fill:#E0E0E0;" d="M238.872,319.615l39.401-22.748c3.475-2.007,5.695-6.378,5.668-12.541
					c0.029-12.372-8.667-27.432-19.396-33.596c-5.322-3.104-10.218-3.366-13.694-1.36l-39.401,22.748
					c3.476-2.007,8.372-1.744,13.694,1.36c10.729,6.164,19.425,21.224,19.397,33.596
					C244.568,313.237,242.348,317.609,238.872,319.615z"/>
			</g>
		</g>
		<g>
			<g>
				<g>
					<g>
						<g>
							<polygon style="fill:#37474F;" points="108.581,430.659 105.823,424.252 149.901,420.315 168.548,425.303 							"/>
							<polygon style="fill:#455A64;" points="149.901,361.545 149.901,420.315 168.548,425.303 168.545,352.594 							"/>
							<polygon style="fill:#37474F;" points="105.823,306.711 118.355,290.158 168.545,352.594 149.901,361.545 							"/>
							<polygon style="fill:#263238;" points="61.745,310.648 58.388,295.514 118.355,290.158 105.823,306.711 							"/>
							<polygon points="58.388,295.514 58.388,369.234 108.581,430.659 105.823,424.252 61.745,369.419 61.745,310.648 							"/>
						</g>
						<polygon style="fill:#455A64;" points="61.745,369.419 61.745,310.648 105.823,306.711 149.901,361.545 149.901,420.315 
							105.823,424.252 						"/>
					</g>
					<g>
						<polygon style="fill:#455A64;" points="168.548,425.303 203.34,405.216 203.337,332.506 168.545,352.594 						"/>
						<polygon style="fill:#37474F;" points="118.355,290.158 168.545,352.594 203.337,332.506 153.147,270.07 						"/>
						<polygon style="fill:#263238;" points="58.388,295.514 93.18,275.427 153.147,270.07 118.355,290.158 						"/>
					</g>
					<path style="opacity:0.2;" d="M168.548,425.303c0.261-12.118,0.711-24.236,0.816-36.354c0.16-12.118,0.393-24.237,0.398-36.355
						l0.001-0.427l-0.27-0.337l-24.996-31.297l-25.246-31.097l-0.395-0.487l-0.605,0.061c-19.968,2.021-39.927,4.136-59.864,6.503
						c19.833-1.191,39.643-2.632,59.445-4.164l24.569,30.867l24.93,30.813c0.012,11.973,0.239,23.945,0.397,35.919
						C167.835,401.067,168.286,413.185,168.548,425.303z"/>
				</g>
				<polygon style="fill:#37474F;" points="153.147,270.07 167.751,272.928 209.538,324.91 203.337,332.506 				"/>
				<polygon style="fill:#455A64;" points="209.541,385.446 203.34,405.216 203.337,332.506 209.538,324.91 				"/>
				<g style="opacity:0.2;">
					<path d="M203.34,405.216c0.466-12.118,0.844-24.237,1.015-36.354c0.27-12.119,0.21-24.237,0.331-36.355l0.004-0.471
						l-0.303-0.376c-8.368-10.403-16.81-20.748-25.294-31.058c-8.523-10.278-17.161-20.465-25.948-30.532
						c7.943,10.745,16.035,21.371,24.242,31.903c8.246,10.501,16.535,20.969,24.896,31.378l-0.297-0.844
						c0.122,12.118,0.063,24.236,0.335,36.355C202.494,380.979,202.874,393.098,203.34,405.216z"/>
				</g>
				<polygon style="opacity:0.1;fill:#FFFFFF;" points="61.745,310.648 104.657,309.606 146.829,362.681 147.413,418.629 
					105.823,424.252 149.901,420.315 149.901,361.545 105.823,306.711 				"/>
			</g>
			<g>
				<path style="fill:#263238;" d="M181.704,399.717c-0.227,0.283-0.477,0.48-0.758,0.598c-0.275,0.117-0.501,0.128-0.674,0.03
					l-6.237-3.431c-0.149-0.087-0.322-0.204-0.525-0.336c-0.203-0.133-0.304-0.365-0.304-0.69v-3.993
					c0-0.239,0.101-0.505,0.304-0.796c0.203-0.291,0.442-0.519,0.716-0.675l24.407-14.093c0.274-0.159,0.513-0.208,0.716-0.15
					c0.203,0.058,0.299,0.21,0.299,0.449v4.286c0,0.242-0.096,0.501-0.299,0.792c-0.203,0.294-0.442,0.516-0.716,0.675l-16.51,9.532
					l3.402,1.93c0.173,0.099,0.239,0.279,0.203,0.539c-0.036,0.259-0.167,0.53-0.394,0.813L181.704,399.717z"/>
				<path style="fill:#263238;" d="M172.828,377.815c0-1.635,0.275-3.197,0.83-4.698c0.555-1.5,1.295-2.901,2.226-4.212
					c0.937-1.315,2.023-2.521,3.271-3.625c1.247-1.1,2.549-2.074,3.91-2.927c1.08-0.665,2.22-1.349,3.396-2.027
					c1.188-0.685,2.298-1.305,3.331-1.858c1.361-0.721,2.662-1.247,3.91-1.587c1.242-0.332,2.334-0.388,3.265-0.15
					c0.931,0.235,1.677,0.779,2.226,1.643c0.555,0.857,0.836,2.1,0.836,3.736c0,1.635-0.281,3.204-0.836,4.704
					c-0.549,1.494-1.295,2.901-2.226,4.212c-0.931,1.314-2.023,2.522-3.265,3.618c-1.247,1.103-2.549,2.078-3.91,2.93
					c-1.033,0.64-2.143,1.304-3.331,1.99c-1.176,0.677-2.316,1.316-3.396,1.895c-1.361,0.721-2.662,1.247-3.91,1.584
					c-1.247,0.339-2.334,0.391-3.271,0.157c-0.931-0.235-1.671-0.786-2.226-1.643S172.828,379.45,172.828,377.815z M189.601,364.631
					c-2.143,1.152-4.256,2.372-6.351,3.669c-0.621,0.4-1.206,0.819-1.737,1.248c-0.525,0.424-0.985,0.878-1.379,1.368
					c-0.388,0.487-0.698,1.015-0.925,1.582c-0.227,0.566-0.334,1.174-0.334,1.828s0.107,1.138,0.334,1.443
					c0.227,0.305,0.537,0.475,0.925,0.513c0.394,0.035,0.854-0.036,1.379-0.207c0.531-0.178,1.116-0.438,1.737-0.773
					c2.095-1.103,4.208-2.319,6.351-3.668c0.633-0.387,1.212-0.793,1.737-1.215c0.531-0.425,0.985-0.884,1.379-1.383
					c0.394-0.503,0.698-1.033,0.925-1.599c0.227-0.566,0.34-1.178,0.34-1.831c0-0.654-0.113-1.134-0.34-1.44
					c-0.227-0.305-0.531-0.485-0.925-0.528c-0.394-0.046-0.848,0.021-1.379,0.204C190.812,364.023,190.233,364.286,189.601,364.631z
					"/>
			</g>
		</g>
	</g>
</g>
<g id="Water">
	<g id="Water_2_">
		<g id="Jar_1_">
			<path id="XMLID_00000090274142552517329500000016171463217814348725_" style="fill:#BA68C8;" d="M418.604,320.993
				c-0.732-0.424-1.515-0.799-2.337-1.129c-1.52-0.609-2.545-2.045-2.542-3.682l0.007-4.49l-14.66-0.022l-0.007,4.49
				c-0.002,1.638-1.032,3.07-2.553,3.675c-0.823,0.327-1.607,0.7-2.34,1.122c-3.377,1.943-5.067,4.494-5.07,7.047l-0.066,45.086
				c-0.004,2.553,1.679,5.109,5.05,7.061c6.741,3.905,17.68,3.921,24.433,0.036c3.376-1.943,5.067-4.493,5.071-7.046l0.066-45.087
				C423.658,325.501,421.975,322.945,418.604,320.993z"/>
			<path id="XMLID_00000030463279588322009440000000876879399754917528_" style="opacity:0.2;" d="M418.604,320.993
				c-0.732-0.424-1.515-0.799-2.337-1.129c-1.52-0.609-2.545-2.045-2.542-3.682l0.007-4.49l-14.66-0.022l-0.007,4.49
				c-0.002,1.638-1.032,3.07-2.553,3.675c-0.823,0.327-1.607,0.7-2.34,1.122c-3.377,1.943-5.067,4.494-5.07,7.047l-0.066,45.086
				c-0.004,2.553,1.679,5.109,5.05,7.061c6.741,3.905,17.68,3.921,24.433,0.036c3.376-1.943,5.067-4.493,5.071-7.046l0.066-45.087
				C423.658,325.501,421.975,322.945,418.604,320.993z"/>
			<path style="opacity:0.6;fill:#BA68C8;" d="M421.378,337.954c-0.235-7.069-28.375-6.305-30.041-0.313l-0.052,35.452
				c-0.003,1.799,1.429,3.664,3.927,5.111c2.924,1.694,6.861,2.631,11.088,2.637c4.227,0.006,8.167-0.919,11.096-2.605
				c2.502-1.44,3.939-3.301,3.942-5.1L421.378,337.954z"/>
			<path id="XMLID_854_" style="opacity:0.2;" d="M395.14,379.591c-6.165-3.536-6.157-9.255,0.019-12.773
				c6.176-3.518,16.18-3.503,22.345,0.033c6.165,3.536,6.157,9.255-0.018,12.773C411.31,383.142,401.305,383.127,395.14,379.591z"/>
			<path style="opacity:0.15;" d="M415.125,316.415c-3.176-1.84-7.664-2.469-11.739-1.881l0.004-2.858l-4.318-0.006l-0.006,4.035
				l-0.001,0.453c-0.003,1.64-1.032,3.07-2.556,3.677c-0.818,0.33-1.603,0.698-2.338,1.121c-0.029,0.014-0.053,0.034-0.083,0.048
				c-3.322,1.937-4.981,4.467-4.985,6.998l-0.066,45.086c-0.004,2.555,1.677,5.109,5.047,7.061c4.85,2.811,11.868,3.595,17.94,2.378
				c-14.041,0.943-17.425-5.016-17.419-9.324l0.065-44.15c0.002-1.519,0.233-2.775,1.291-3.829c0.477,0.444,1.045,0.858,1.707,1.239
				c4.815,2.786,12.624,2.798,17.442,0.026c2.588-1.488,3.79-3.475,3.603-5.429l-0.293-0.17
				C418.084,319.384,417.125,317.575,415.125,316.415z"/>
			<path id="XMLID_00000114035167769887436210000000692383079113275563_" style="opacity:0.4;fill:#FFFFFF;" d="M418.604,320.993
				c-0.732-0.424-1.515-0.799-2.337-1.129c-1.52-0.609-2.545-2.045-2.542-3.683l0.007-4.49l-1.602-0.002
				c-0.009,5.994-0.007,4.732-0.009,6.01c-0.002,1.384,2.111,2.009,3.488,2.764c1.377,0.755,6.028,3.215,6.425,5.382
				c0.4,2.19,0.149,5.988,0.142,10.667c-0.007,4.678-0.047,32.055-0.052,35.126c-0.004,3.035-1.275,7.425-6.914,10.055
				c1.172-0.407,2.298-0.894,3.31-1.476c3.376-1.943,5.064-4.391,5.068-7.077l0.066-45.087
				C423.658,325.501,421.975,322.945,418.604,320.993z"/>
			<g>
				<path id="XMLID_852_" style="fill:#37474F;" d="M418.737,317.999l-0.002,1.28c0.009,1.82-1.202,3.65-3.623,5.048
					c-4.818,2.771-12.625,2.759-17.446-0.026c-1.197-0.696-2.105-1.5-2.703-2.363c-0.598-0.851-0.896-1.762-0.894-2.672l0.002-1.327
					c0-0.275,0.025-0.551,0.097-0.826c0.302-1.544,1.477-3.039,3.515-4.21c0.06-0.036,0.12-0.072,0.18-0.095
					c4.842-2.675,12.517-2.628,17.266,0.121c2.034,1.177,3.217,2.675,3.514,4.208C418.715,317.424,418.738,317.711,418.737,317.999z
					"/>
				<path id="XMLID_851_" style="fill:#263238;" d="M407.4,325.07l0.007-4.538c0.003-1.796,0.454,0.635-2.695,0.63
					c-2.73-0.004-5.152-6.306-6.849-8.356c-0.06,0.024-0.12,0.06-0.18,0.095c-2.037,1.171-3.213,2.665-3.515,4.21
					c-0.072,0.275-0.096,0.551-0.097,0.826l-0.002,1.327c-0.001,0.91,0.297,1.821,0.894,2.672c0.597,0.863,1.506,1.666,2.703,2.363
					c4.821,2.785,12.628,2.797,17.446,0.026C411.71,325.662,407.397,326.783,407.4,325.07z"/>
				<path id="XMLID_850_" style="fill:#BA68C8;" d="M397.674,322.976c-4.813-2.788-4.806-7.296,0.015-10.07
					c4.82-2.774,12.629-2.762,17.442,0.026c4.813,2.788,4.806,7.296-0.015,10.07C410.296,325.775,402.487,325.764,397.674,322.976z"
					/>
				<path id="XMLID_849_" style="fill:#37474F;" d="M418.744,313.724l-0.004,2.551c0,0.288-0.024,0.575-0.097,0.862
					c-0.302,1.532-1.489,3.027-3.526,4.197c-2.157,1.242-4.912,1.921-7.714,2.036c-3.485,0.162-7.064-0.525-9.732-2.074
					c-1.196-0.696-2.093-1.487-2.703-2.351c-0.418-0.587-0.681-1.21-0.8-1.833c-0.071-0.276-0.095-0.563-0.094-0.838l0.004-2.611
					c0.003-1.832,1.203-3.65,3.612-5.035c0.216-0.119,0.431-0.239,0.659-0.346c4.853-2.424,12.192-2.293,16.787,0.372
					C417.552,310.058,418.759,311.892,418.744,313.724z"/>
				<path id="XMLID_848_" style="fill:#455A64;" d="M397.681,318.642c-4.813-2.788-4.806-7.296,0.015-10.07
					c4.82-2.774,12.63-2.762,17.442,0.026c4.813,2.788,4.806,7.297-0.015,10.07C410.302,321.442,402.493,321.43,397.681,318.642z"/>
				<path id="XMLID_846_" style="fill:#263238;" d="M394.968,318.945c0.609,0.863,1.506,1.655,2.703,2.351
					c2.668,1.549,6.247,2.236,9.732,2.074l0,0c0.034-0.895,0.536-1.581-2.691-2.207c-2.68-0.52-6.644-1.642-8.49-4.577
					c-1.695-2.697-0.714-6.249,2.127-8.305c-0.228,0.108-0.444,0.227-0.659,0.346c-2.409,1.385-3.609,3.204-3.612,5.035
					l-0.004,2.611c0,0.275,0.023,0.563,0.094,0.838C394.288,317.735,394.55,318.358,394.968,318.945z"/>
			</g>
		</g>
		<g>
			<path id="XMLID_859_" style="fill:#BA68C8;" d="M402.673,307.168l-0.03,5.613c0,0.087,0.006,0.175,0.028,0.263
				c0.088,0.467,0.447,0.925,1.065,1.285c0.654,0.383,1.492,0.595,2.345,0.636c1.061,0.057,2.153-0.145,2.968-0.611
				c0.366-0.21,0.64-0.449,0.828-0.71c0.129-0.178,0.21-0.367,0.247-0.557c0.022-0.083,0.03-0.171,0.031-0.255l0.03-5.631
				c0.003-0.558-0.359-1.114-1.09-1.541c-0.066-0.037-0.131-0.074-0.2-0.107c-1.473-0.748-3.708-0.724-5.113,0.079
				C403.044,306.054,402.673,306.61,402.673,307.168z"/>
			<path id="XMLID_00000040556927870396268290000001295113740870641825_" style="opacity:0.35;" d="M402.673,307.168l-0.03,5.613
				c0,0.087,0.006,0.175,0.028,0.263c0.088,0.467,0.447,0.925,1.065,1.285c0.654,0.383,1.492,0.595,2.345,0.636
				c1.061,0.057,2.153-0.145,2.968-0.611c0.366-0.21,0.64-0.449,0.828-0.71c0.129-0.178,0.21-0.367,0.247-0.557
				c0.022-0.083,0.03-0.171,0.031-0.255l0.03-5.631c0.003-0.558-0.359-1.114-1.09-1.541c-0.066-0.037-0.131-0.074-0.2-0.107
				c-1.473-0.748-3.708-0.724-5.113,0.079C403.044,306.054,402.673,306.61,402.673,307.168z"/>
			<path style="fill:#BA68C8;" d="M402.674,307.149c-0.006,1.192,1.67,2.168,3.744,2.179c2.074,0.011,3.761-0.947,3.767-2.139
				c0.006-1.192-1.67-2.168-3.744-2.179C404.367,304.999,402.68,305.957,402.674,307.149z"/>
			<path style="opacity:0.5;fill:#BA68C8;" d="M405.096,307.162c-0.002,0.423,0.593,0.77,1.329,0.774
				c0.736,0.004,1.335-0.336,1.337-0.759c0.002-0.423-0.593-0.77-1.329-0.774C405.697,306.398,405.098,306.739,405.096,307.162z"/>
			<path style="opacity:0.3;" d="M405.096,307.162c-0.002,0.423,0.593,0.77,1.329,0.774c0.736,0.004,1.335-0.336,1.337-0.759
				c0.002-0.423-0.593-0.77-1.329-0.774C405.697,306.398,405.098,306.739,405.096,307.162z"/>
		</g>
		<g>
			<path id="XMLID_861_" style="fill:#BA68C8;" d="M401.749,306.553l-0.03,1.909c0,0.109,0.008,0.218,0.035,0.328
				c0.11,0.582,0.557,1.153,1.328,1.603c0.816,0.477,1.86,0.742,2.924,0.793c1.323,0.07,2.684-0.181,3.701-0.762
				c0.456-0.261,0.799-0.56,1.032-0.886c0.161-0.222,0.262-0.458,0.308-0.694c0.028-0.104,0.037-0.214,0.038-0.318l0.03-1.931
				c0.004-0.696-0.447-1.389-1.358-1.922c-0.082-0.046-0.163-0.092-0.249-0.133c-1.836-0.933-4.624-0.902-6.375,0.098
				C402.212,305.164,401.749,305.857,401.749,306.553z"/>
			<path id="XMLID_860_" style="opacity:0.2;" d="M401.749,306.553l-0.03,1.909c0,0.109,0.008,0.218,0.035,0.328
				c0.11,0.582,0.557,1.153,1.328,1.603c0.816,0.477,1.86,0.742,2.924,0.793c1.323,0.07,2.684-0.181,3.701-0.762
				c0.456-0.261,0.799-0.56,1.032-0.886c0.161-0.222,0.262-0.458,0.308-0.694c0.028-0.104,0.037-0.214,0.038-0.318l0.03-1.931
				c0.004-0.696-0.447-1.389-1.358-1.922c-0.082-0.046-0.163-0.092-0.249-0.133c-1.836-0.933-4.624-0.902-6.375,0.098
				C402.212,305.164,401.749,305.857,401.749,306.553z"/>
			<path style="fill:#BA68C8;" d="M401.75,306.529c-0.008,1.487,2.082,2.704,4.669,2.718c2.587,0.014,4.69-1.18,4.698-2.667
				c0.008-1.487-2.082-2.703-4.669-2.717C403.861,303.849,401.758,305.043,401.75,306.529z"/>
			<path style="opacity:0.5;fill:#BA68C8;" d="M404.77,306.546c-0.003,0.528,0.739,0.96,1.658,0.965
				c0.918,0.005,1.665-0.419,1.668-0.947c0.003-0.528-0.739-0.96-1.657-0.965C405.52,305.594,404.773,306.018,404.77,306.546z"/>
			<path style="opacity:0.3;" d="M404.77,306.546c-0.003,0.528,0.739,0.96,1.658,0.965c0.918,0.005,1.665-0.419,1.668-0.947
				c0.003-0.528-0.739-0.96-1.657-0.965C405.52,305.594,404.773,306.018,404.77,306.546z"/>
		</g>
	</g>
</g>
<g id="Character">
	<g id="Character_00000143580934772957994430000012792937729213906089_">
		<g id="Character_10_">
			<g id="Bottom_9_">
				<g id="XMLID_304_">
					<g id="XMLID_00000058590174265979385090000010841993254465707652_">
						<path id="XMLID_00000075874189424764305160000005456844083977949328_" style="fill:#FFBDA7;" d="M328.462,315.612
							c0,0-4.75,30.081-5.37,38.982c-0.332,4.768,0.231,6.192,1.546,9.442c1.035,2.556,1.666,4.158,3.482,7.428
							c0.421,0.758-14.605,8.068-16.536,7.473c-5.074-1.563-7.119-7.393-9.116-11.73c-1.528-3.318-0.428-4.951-0.504-8.478
							c-0.085-3.94-5.217-38.42-5.828-42.316C302.871,309.523,320.609,313.124,328.462,315.612z"/>
						<g>
							<path style="fill:#263238;" d="M299.007,373.62c-0.103,1.539,0.235,2.797,0.694,4.23c0.459,1.432,5.374,4.971,7.082,7.339
								c1.708,2.367,1.912,3.318,3.847,6.549c2.144,3.581,3.24,7.945,13.035,11.706c9.926,3.812,16.48,2.369,21.151,1.021
								c4.671-1.348,6.159-3.643,6.159-3.643s1.771-5.611-1.308-6.961C346.589,392.509,299.007,373.62,299.007,373.62z"/>
							<path id="XMLID_00000000209327118353156130000006336810147922541446_" style="fill:#BA68C8;" d="M324.652,361.032
								c0.716,0.758,1.07,2.874,1.369,3.856c1.006,3.305,3.457,6.389,5.665,9.002c10.453,12.364,20.688,12.398,20.079,22.786
								c-0.307,2.907-5.878,7.096-18.556,7.037c-6.477-0.03-16.133-4.742-18.908-8.904c-2.774-4.163-3.891-7.749-6.145-10.8
								c-2.254-3.05-7.931-6.859-9.15-10.389c-0.715-2.071-0.542-4.387-0.282-6.526c0.214-1.759,1.31-5.109,1.577-6.867
								c0.288-1.899,0.008-3.04,1.502-3.128l0.628,2.763c1.304,4.57,2.227,4.31,3.88,5.527c1.723,1.269,3.06,3.229,4.491,4.853
								c-0.737-3.1-1.95-5.086-0.312-6.546c1.534-1.367,3.776-2.153,7.974-2.788C322.663,360.272,324.016,360.358,324.652,361.032z"
								/>
							<path id="XMLID_00000091009581129486799490000015079685749891169969_" style="opacity:0.4;" d="M324.652,361.032
								c0.716,0.758,1.07,2.874,1.369,3.856c1.006,3.305,3.457,6.389,5.665,9.002c10.453,12.364,20.688,12.398,20.079,22.786
								c-0.307,2.907-5.878,7.096-18.556,7.037c-6.477-0.03-16.133-4.742-18.908-8.904c-2.774-4.163-3.891-7.749-6.145-10.8
								c-2.254-3.05-7.931-6.859-9.15-10.389c-0.715-2.071-0.542-4.387-0.282-6.526c0.214-1.759,1.31-5.109,1.577-6.867
								c0.288-1.899,0.008-3.04,1.502-3.128l0.628,2.763c1.304,4.57,2.227,4.31,3.88,5.527c1.723,1.269,3.06,3.229,4.491,4.853
								c-0.737-3.1-1.95-5.086-0.312-6.546c1.534-1.367,3.776-2.153,7.974-2.788C322.663,360.272,324.016,360.358,324.652,361.032z"
								/>
							<path style="opacity:0.3;" d="M333.21,403.713c-6.477-0.03-16.133-4.742-18.908-8.904c-1.003-1.505-1.786-2.932-2.487-4.288
								c0.211,0.251,0.409,0.529,0.599,0.733c0.423,0.457,0.858,0.902,1.308,1.332c1.731,1.654,3.775,3.253,6.144,3.835
								c2.109,0.517,7.285,1.959,9.023-0.071c0.984-1.149,0.613-3.066-0.355-4.569c-0.409-0.635-1.67-2.144-1.67-2.144
								s3.105-2.569,6.517-3.697c4.407-1.457,6.826-1.419,6.826-1.419c0.587,0.668,1.645,1.725,2.591,2.201
								c0.948,0.477,2.633,1.055,3.551,0.962c0.443-0.045,0.849-0.152,1.23-0.285c2.775,2.388,4.443,4.921,4.188,9.277
								C351.459,399.583,345.888,403.772,333.21,403.713z"/>
							<g>
								<path style="fill:#37474F;" d="M331.687,373.89c3.243,3.836,6.464,6.483,9.347,8.622c2.289,3.658,1.404,4.586-0.356,3.422
									c-1.77-1.171-6.89-8.772-11.266-14.877C330.155,372.049,330.934,372.999,331.687,373.89z"/>
								<path style="fill:#37474F;" d="M303.674,366.161c-1.699-1.04-2.913-2.785-3.599-4.81c0.095-0.411,0.178-0.8,0.227-1.124
									c0.288-1.899,0.008-3.041,1.502-3.128l0.629,2.763c1.304,4.57,2.227,4.31,3.88,5.527c1.723,1.269,3.06,3.229,4.49,4.853
									c4.41,5.531,5.304,8.113,9.943,12.737c4.639,4.624,8.88,6.305,8.601,7.255c-0.279,0.949-2.008,1.951-6.312-1.01
									c-4.304-2.962-9.763-10.189-12.02-14.033C308.757,371.346,306.063,367.622,303.674,366.161z"/>
							</g>
							<g>
								<g>
									<path style="fill:#EBEBEB;" d="M326.934,390.281c0.124-0.013,0.245-0.062,0.348-0.149c3.564-3.005,8.032-4.631,13.28-4.824
										c0.356-0.026,0.637-0.313,0.625-0.672c-0.014-0.358-0.314-0.638-0.672-0.625c-5.545,0.205-10.28,1.931-14.069,5.129
										c-0.273,0.231-0.309,0.64-0.077,0.914C326.513,390.227,326.728,390.304,326.934,390.281z"/>
								</g>
								<g>
									<path style="fill:#EBEBEB;" d="M323.182,386.278c0.122-0.013,0.242-0.061,0.345-0.142c3.781-3.034,8.516-4.69,14.061-4.916
										c0.407-0.025,0.654-0.326,0.639-0.693c-0.016-0.367-0.326-0.653-0.692-0.639c-5.844,0.244-10.832,1.991-14.841,5.208
										c-0.287,0.23-0.333,0.649-0.103,0.936C322.738,386.217,322.964,386.302,323.182,386.278z"/>
								</g>
								<g>
									<path style="fill:#EBEBEB;" d="M318.418,382.672c0.133-0.014,0.265-0.066,0.379-0.157
										c4.172-3.346,9.394-5.171,15.505-5.418c0.391-0.009,0.72-0.359,0.704-0.764c-0.017-0.404-0.359-0.72-0.764-0.704
										c-6.428,0.267-11.942,2.195-16.363,5.741c-0.316,0.253-0.366,0.716-0.113,1.032
										C317.928,382.604,318.176,382.698,318.418,382.672z"/>
								</g>
								<g>
									<path style="fill:#EBEBEB;" d="M314.944,378.835c0.131-0.014,0.26-0.065,0.371-0.155c4.088-3.282,9.198-5.069,15.202-5.314
										c0.382-0.016,0.705-0.351,0.689-0.749c-0.015-0.397-0.351-0.705-0.749-0.689c-6.301,0.256-11.711,2.152-16.043,5.63
										c-0.309,0.248-0.359,0.701-0.11,1.012C314.464,378.769,314.708,378.86,314.944,378.835z"/>
								</g>
								<g>
									<path style="fill:#EBEBEB;" d="M312.199,374.289c0.131-0.014,0.26-0.065,0.371-0.155c4.09-3.279,9.194-5.067,15.203-5.313
										c0.39-0.017,0.705-0.351,0.689-0.749c-0.015-0.397-0.351-0.706-0.749-0.689c-6.308,0.259-11.71,2.151-16.045,5.628
										c-0.309,0.249-0.359,0.702-0.111,1.013C311.718,374.223,311.962,374.315,312.199,374.289z"/>
								</g>
							</g>
						</g>
						<path style="fill:#37474F;" d="M259.075,219.124l-39.077,2.508c-2.152,18.819,0.681,38.239,7.465,43.904
							c18.051,15.074,64.552,22.342,64.552,22.342c-0.349,4.296-0.623,9.507,0.723,18.82c1.224,8.473,3.921,23.039,6.251,33.307
							c6.549,4.981,23.77,2.474,26.35-0.904c0,0,5.024-26.57,7.241-51.625c1.349-15.25,0.395-21.445-7.895-30.496
							C312.299,243.46,259.075,219.124,259.075,219.124z"/>
					</g>
					<path style="fill:#263238;" d="M277.34,275.032c-6.797-8.501-25.182-27.969-25.182-27.969s6.519-7.27,5.565-19.75
						l-24.081,19.479l38.604,37.027c4.2,1.019,8.018,1.844,11.164,2.477C282.308,282.5,280.504,278.99,277.34,275.032z"/>
				</g>
				<g id="XMLID_292_">
					<path id="XMLID_00000157301372840095278680000017860813291146803332_" style="fill:#FFBDA7;" d="M278.44,343.552
						c0,0-3.964,32.917-4.403,37.346c-0.439,4.429,0.12,7.916,0.559,10.729c0.321,2.058,1.26,3.967,2.231,5.787
						c0.756,1.417,2.539,3.856,1.41,5.398c-0.416,0.568-1.033,0.954-1.653,1.288c-1.326,0.711-2.772,1.133-4.081,1.829
						c-1.484,0.79-3.275,1.076-4.931,1.268c-2.008,0.233-4.079,0.274-6.01-0.321c-5.074-1.563-7.119-7.393-9.116-11.73
						c-1.529-3.318-0.428-4.951-0.504-8.478c-0.085-3.941-5.217-38.42-5.828-42.316C252.848,337.464,270.587,341.064,278.44,343.552
						z"/>
					<g>
						<path style="fill:#263238;" d="M248.984,401.56c-0.103,1.539,0.235,2.797,0.694,4.23c0.459,1.432,5.374,4.971,7.082,7.339
							c1.708,2.367,1.912,3.318,3.847,6.549c2.144,3.581,3.24,7.945,13.035,11.706c9.926,3.812,16.48,2.369,21.151,1.021
							c4.671-1.348,6.159-3.643,6.159-3.643s1.771-5.611-1.308-6.961C296.566,420.449,248.984,401.56,248.984,401.56z"/>
						<path id="XMLID_00000132050563711288887940000000752515224782028696_" style="fill:#BA68C8;" d="M274.63,388.972
							c0.716,0.758,1.07,2.874,1.369,3.856c1.006,3.305,3.457,6.39,5.665,9.002c10.453,12.364,20.688,12.398,20.079,22.786
							c-0.307,2.907-5.878,7.096-18.556,7.037c-6.477-0.03-16.133-4.742-18.908-8.904c-2.774-4.162-3.891-7.749-6.145-10.8
							c-2.254-3.05-7.931-6.858-9.15-10.389c-0.715-2.071-0.542-4.387-0.282-6.526c0.214-1.759,1.311-5.11,1.577-6.867
							c0.288-1.899,0.008-3.04,1.502-3.128l0.628,2.763c1.304,4.57,2.227,4.31,3.88,5.527c1.723,1.269,3.06,3.229,4.491,4.853
							c-0.737-3.1-1.95-5.086-0.312-6.546c1.534-1.367,3.776-2.153,7.974-2.788C272.64,388.212,273.993,388.298,274.63,388.972z"/>
						<path id="XMLID_00000054242099387775629010000006189808533906328210_" style="opacity:0.4;" d="M274.63,388.972
							c0.716,0.758,1.07,2.874,1.369,3.856c1.006,3.305,3.457,6.39,5.665,9.002c10.453,12.364,20.688,12.398,20.079,22.786
							c-0.307,2.907-5.878,7.096-18.556,7.037c-6.477-0.03-16.133-4.742-18.908-8.904c-2.774-4.162-3.891-7.749-6.145-10.8
							c-2.254-3.05-7.931-6.858-9.15-10.389c-0.715-2.071-0.542-4.387-0.282-6.526c0.214-1.759,1.311-5.11,1.577-6.867
							c0.288-1.899,0.008-3.04,1.502-3.128l0.628,2.763c1.304,4.57,2.227,4.31,3.88,5.527c1.723,1.269,3.06,3.229,4.491,4.853
							c-0.737-3.1-1.95-5.086-0.312-6.546c1.534-1.367,3.776-2.153,7.974-2.788C272.64,388.212,273.993,388.298,274.63,388.972z"/>
						<path style="opacity:0.3;" d="M283.188,431.653c-6.477-0.03-16.133-4.742-18.908-8.904c-1.003-1.505-1.786-2.932-2.487-4.288
							c0.211,0.251,0.409,0.529,0.599,0.733c0.423,0.456,0.858,0.902,1.308,1.332c1.731,1.654,3.775,3.253,6.144,3.835
							c2.108,0.517,7.285,1.959,9.023-0.071c0.984-1.149,0.613-3.066-0.355-4.569c-0.409-0.635-1.669-2.144-1.669-2.144
							s3.105-2.569,6.517-3.697c4.407-1.457,6.826-1.419,6.826-1.419c0.587,0.668,1.645,1.725,2.591,2.201
							c0.948,0.477,2.633,1.054,3.551,0.962c0.443-0.044,0.849-0.152,1.23-0.285c2.775,2.388,4.443,4.92,4.188,9.277
							C301.436,427.523,295.866,431.712,283.188,431.653z"/>
						<g>
							<path style="fill:#37474F;" d="M281.664,401.83c3.243,3.836,6.464,6.483,9.348,8.622c2.289,3.658,1.404,4.586-0.356,3.422
								c-1.77-1.171-6.89-8.772-11.266-14.877C280.132,399.989,280.911,400.939,281.664,401.83z"/>
							<path style="fill:#37474F;" d="M253.651,394.101c-1.699-1.04-2.913-2.785-3.599-4.81c0.094-0.411,0.177-0.8,0.227-1.124
								c0.288-1.9,0.008-3.041,1.502-3.128l0.629,2.763c1.304,4.57,2.227,4.31,3.88,5.527c1.723,1.269,3.06,3.229,4.49,4.853
								c4.41,5.531,5.304,8.113,9.943,12.737c4.639,4.624,8.88,6.305,8.601,7.255c-0.279,0.949-2.008,1.951-6.312-1.01
								c-4.304-2.962-9.763-10.189-12.02-14.033C258.734,399.286,256.04,395.562,253.651,394.101z"/>
						</g>
						<g>
							<g>
								<path style="fill:#EBEBEB;" d="M276.912,418.221c0.124-0.014,0.245-0.062,0.348-0.149c3.564-3.005,8.032-4.631,13.28-4.824
									c0.356-0.026,0.637-0.313,0.624-0.672c-0.013-0.358-0.314-0.638-0.672-0.625c-5.545,0.205-10.28,1.931-14.069,5.129
									c-0.273,0.231-0.309,0.64-0.077,0.914C276.491,418.167,276.705,418.244,276.912,418.221z"/>
							</g>
							<g>
								<path style="fill:#EBEBEB;" d="M273.159,414.218c0.122-0.013,0.242-0.061,0.345-0.142c3.781-3.034,8.516-4.69,14.061-4.916
									c0.407-0.025,0.653-0.326,0.639-0.693c-0.016-0.367-0.326-0.653-0.692-0.639c-5.844,0.244-10.832,1.991-14.841,5.208
									c-0.287,0.23-0.333,0.649-0.103,0.936C272.716,414.157,272.941,414.242,273.159,414.218z"/>
							</g>
							<g>
								<path style="fill:#EBEBEB;" d="M268.396,410.612c0.133-0.014,0.265-0.066,0.379-0.157c4.172-3.346,9.394-5.171,15.505-5.418
									c0.391-0.01,0.72-0.359,0.704-0.764c-0.017-0.404-0.359-0.72-0.764-0.704c-6.428,0.267-11.942,2.195-16.363,5.741
									c-0.316,0.253-0.366,0.716-0.113,1.032C267.906,410.544,268.154,410.638,268.396,410.612z"/>
							</g>
							<g>
								<path style="fill:#EBEBEB;" d="M264.922,406.775c0.131-0.014,0.26-0.065,0.371-0.155c4.087-3.282,9.198-5.069,15.202-5.314
									c0.381-0.016,0.705-0.351,0.689-0.749c-0.015-0.397-0.351-0.705-0.749-0.689c-6.301,0.255-11.711,2.152-16.043,5.63
									c-0.309,0.248-0.359,0.701-0.11,1.012C264.441,406.709,264.685,406.8,264.922,406.775z"/>
							</g>
							<g>
								<path style="fill:#EBEBEB;" d="M262.176,402.229c0.131-0.014,0.26-0.065,0.371-0.155c4.09-3.279,9.194-5.067,15.203-5.313
									c0.39-0.017,0.705-0.351,0.689-0.749c-0.015-0.397-0.351-0.706-0.749-0.689c-6.308,0.259-11.71,2.151-16.045,5.628
									c-0.309,0.249-0.359,0.702-0.111,1.013C261.695,402.163,261.94,402.255,262.176,402.229z"/>
							</g>
						</g>
					</g>
					<path style="fill:#37474F;" d="M282.557,308.489c1.349-15.25,0.394-21.445-7.896-30.495
						c-12.385-13.521-30.621-30.781-30.621-30.781c5.514-4.875,13.775-9.532,15.034-28.088c-0.14-5.442-13.089-10.035-13.089-10.035
						h-65.048c0,0-2.173,4.292-4.228,10.035c-5.894,16.471-3.785,38.972,11.445,50.726c24.328,18.774,54.519,35.566,54.519,35.566
						c-1.132,5.651-1.305,12.982,0.041,22.295c1.225,8.473,3.791,26.4,6.12,36.668c6.549,4.981,24.867,2.643,27.447-0.735
						C276.282,363.643,280.34,333.545,282.557,308.489z"/>
					<path style="fill:#263238;" d="M254.081,336.302c-0.099-2.122-0.194-3.923-0.278-5.527c-0.329-6.289-0.494-9.445-0.232-16.999
						c0.018-0.522,0.066-1.185,0.119-1.943c0.274-3.833,0.687-9.626-1.276-12.638c-3.398-5.213-10.113-9.478-17.223-13.994
						c-3.177-2.017-6.462-4.104-9.662-6.393c-3.63-2.597-6.954-4.852-10.169-7.034c-12.146-8.24-20.17-13.683-23.107-23.104
						l-0.473-1.523c-3.328-10.742-5.045-16.259-17.062-20.762c-0.063,0.318-0.128,0.634-0.186,0.954
						c11.439,4.316,13.009,9.373,16.33,20.092l0.473,1.523c3.038,9.742,11.614,15.561,23.485,23.614
						c3.21,2.178,6.529,4.43,10.15,7.019c3.221,2.304,6.518,4.399,9.706,6.424c7.019,4.458,13.65,8.67,16.933,13.708
						c1.787,2.74,1.372,8.564,1.123,12.044c-0.055,0.772-0.103,1.447-0.122,1.977c-0.263,7.596-0.098,10.766,0.232,17.082
						c0.084,1.602,0.178,3.401,0.279,5.522c0.054,1.174,0.118,2.297,0.179,3.369c0.354,6.272,0.61,10.804-1.554,12.899
						c-1.031,0.999-2.631,1.462-4.937,1.439c0.057,0.324,0.114,0.646,0.172,0.967c2.487-0.002,4.239-0.56,5.434-1.716
						c2.48-2.401,2.213-7.117,1.844-13.644C254.2,338.594,254.136,337.472,254.081,336.302z"/>
				</g>
			</g>
		</g>
		<path style="fill:#263238;" d="M190.607,59.786c-4.732,3.364-7.441,8.974-8.652,14.653c-1.211,5.678-1.11,11.54-1.336,17.341
			c-0.105,2.69-0.492,4.709-2.161,6.934c-1.268,1.69-2.797,3.19-3.873,5.008c-1.819,3.074-2.173,6.974-0.936,10.326
			c0.737,1.998,2.024,3.909,1.904,6.035c-0.15,2.655-2.398,4.624-3.84,6.859c-2.293,3.554-2.577,8.226-1.088,12.185
			c1.207,3.21,3.491,5.903,6.266,7.88c3.094,2.203,5.535,4.206,9.346,5.282c5.061,1.429,10.471,1.609,15.616,0.519
			c3.758-0.796,7.464-2.323,10.202-5.018c3.58-3.523,5.128-8.659,5.577-13.662c0.954-10.622-2.412-21.088-5.25-31.368
			c-2.837-10.28-5.174-21.25-2.213-31.496c0.972-3.364,3.126-9.15,0.515-12.288c-2.053-2.468-8.329-2.576-11.206-2.281
			C196.339,57.016,193.198,57.943,190.607,59.786z"/>
		<path style="fill:#BA68C8;" d="M206.971,55.834c-1.227,0.096-2.439,0.466-3.54,1.024c-1.641,0.831-3.053,2.061-4.28,3.431
			c-1.106,1.234-2.077,2.594-2.824,4.074c-0.851,1.686-1.412,3.6-1.087,5.461c0.792,4.529,5.949,4.902,9.539,3.687
			c3.215-1.088,5.892-3.308,7.445-6.314c0.832-1.61,1.4-3.395,1.349-5.207c-0.081-2.856-1.88-5.627-4.8-6.089
			C208.177,55.806,207.572,55.787,206.971,55.834z"/>
		<g id="Top_4_">
			<g>
				<path style="fill:#FFBDA7;" d="M241.757,125.646c8.539-0.116,15.915,2.725,19.398,8.796c3.483,6.071,6.046,15.779,7.434,18.768
					c1.388,2.988,3.334,5.32,5.917,11.364c2.165,5.067,5.017,13.484,5.017,13.484l29.92-7.392l4.681,11.693
					c0,0-9.763,6.396-16.406,10.247c-8.82,5.113-15.712,8.093-19.442,9.431c-4.688,1.682-8.952,2.762-12.279-1.131
					c-3.327-3.893-19.836-36.155-19.836-36.155L241.757,125.646z"/>
				<g id="Dumbbell_00000088123926847261063630000007756221543234821548_">
					<g>
						<g>
							<g>
								<g>
									<g>
										<polygon style="fill:#BA68C8;" points="332.173,169.467 331.72,168.408 339.005,167.772 342.085,168.603 										"/>
										<polygon style="fill:#BA68C8;" points="339.026,158.06 339.005,167.772 342.085,168.603 342.11,156.588 										"/>
										<polygon style="opacity:0.1;fill:#FFFFFF;" points="339.026,158.06 339.005,167.772 342.085,168.603 342.11,156.588 
																					"/>
										<polygon style="fill:#BA68C8;" points="331.761,148.984 333.838,146.253 342.11,156.588 339.026,158.06 										"/>
										<polygon style="opacity:0.3;fill:#FFFFFF;" points="331.761,148.984 333.838,146.253 342.11,156.588 339.026,158.06 
																					"/>
										<polygon style="fill:#BA68C8;" points="324.476,149.619 323.926,147.117 333.838,146.253 331.761,148.984 										"/>
										<polygon style="opacity:0.2;fill:#FFFFFF;" points="324.476,149.619 323.926,147.117 333.838,146.253 331.761,148.984 
																					"/>
										<polygon style="fill:#BA68C8;" points="323.926,147.117 323.9,159.299 332.173,169.467 331.72,168.408 324.455,159.331 
											324.476,149.619 										"/>
										<polygon style="opacity:0.2;" points="323.926,147.117 323.9,159.299 332.173,169.467 331.72,168.408 324.455,159.331 
											324.476,149.619 										"/>
									</g>
									<polygon style="fill:#BA68C8;" points="324.455,159.331 324.476,149.619 331.761,148.984 339.026,158.06 339.005,167.772 
										331.72,168.408 									"/>
									<polygon style="opacity:0.1;" points="324.455,159.331 324.476,149.619 331.761,148.984 339.026,158.06 339.005,167.772 
										331.72,168.408 									"/>
								</g>
								<g>
									<polygon style="fill:#BA68C8;" points="342.085,168.603 347.841,165.296 347.866,153.281 342.11,156.588 									"/>
									<polygon style="opacity:0.1;fill:#FFFFFF;" points="342.085,168.603 347.841,165.296 347.866,153.281 342.11,156.588 
																			"/>
									<polygon style="fill:#BA68C8;" points="333.838,146.253 342.11,156.588 347.866,153.281 339.594,142.945 									"/>
									<polygon style="opacity:0.3;fill:#FFFFFF;" points="333.838,146.253 342.11,156.588 347.866,153.281 339.594,142.945 
																			"/>
									<polygon style="fill:#BA68C8;" points="323.926,147.117 329.683,143.809 339.594,142.945 333.838,146.253 									"/>
									<polygon style="opacity:0.2;fill:#FFFFFF;" points="323.926,147.117 329.683,143.809 339.594,142.945 333.838,146.253 
																			"/>
								</g>
								<path style="fill:#BA68C8;" d="M342.085,168.603c0.047-2.002,0.126-4.005,0.148-6.007c0.031-2.003,0.073-4.005,0.079-6.008
									l0-0.07l-0.044-0.056l-4.12-5.181l-4.161-5.148l-0.065-0.081l-0.1,0.01c-3.3,0.327-6.599,0.669-9.895,1.054
									c3.278-0.19,6.552-0.421,9.825-0.667l4.049,5.11l4.109,5.1c-0.002,1.979,0.031,3.957,0.053,5.936
									C341.975,164.598,342.046,166.6,342.085,168.603z"/>
							</g>
							<polygon style="fill:#BA68C8;" points="339.594,142.945 342.006,143.423 348.894,152.027 347.866,153.281 							"/>
							<polygon style="opacity:0.3;fill:#FFFFFF;" points="339.594,142.945 342.006,143.423 348.894,152.027 347.866,153.281 
															"/>
							<polygon style="fill:#BA68C8;" points="348.873,162.031 347.841,165.296 347.866,153.281 348.894,152.027 							"/>
							<polygon style="opacity:0.1;fill:#FFFFFF;" points="348.873,162.031 347.841,165.296 347.866,153.281 348.894,152.027 
															"/>
							<g>
								<path style="fill:#BA68C8;" d="M347.841,165.296c0.081-2.002,0.148-4.005,0.18-6.007c0.049-2.003,0.043-4.005,0.067-6.008
									l0.001-0.078l-0.05-0.062c-1.379-1.722-2.771-3.435-4.169-5.141c-1.405-1.702-2.829-3.388-4.277-5.055
									c1.309,1.778,2.642,3.537,3.995,5.281c1.359,1.738,2.725,3.471,4.103,5.194l-0.049-0.14
									c0.016,2.003,0.002,4.005,0.043,6.008C347.71,161.29,347.768,163.293,347.841,165.296z"/>
							</g>
							<polygon style="opacity:0.1;fill:#FFFFFF;" points="324.476,149.619 331.567,149.462 338.518,158.247 338.595,167.493 
								331.72,168.408 339.005,167.772 339.026,158.06 331.761,148.984 							"/>
						</g>
					</g>
					<g>
						<g>
							<path style="fill:#BA68C8;" d="M304.925,179.223c-0.581,0.334-1.383,0.284-2.267-0.23c-1.769-1.026-3.199-3.516-3.195-5.561
								c0.002-1.023,0.363-1.74,0.944-2.074c0.353-0.203,26.908-15.459,27.261-15.662c0.581-0.334,1.383-0.284,2.267,0.229
								c1.769,1.027,3.199,3.516,3.195,5.561c-0.002,1.023-0.363,1.74-0.944,2.074C331.833,163.764,305.278,179.02,304.925,179.223z
								"/>
							<path style="fill:#BA68C8;" d="M300.407,171.358c0.309-0.178,20.707-11.896,26.013-14.945
								c1.248-0.717,0.499-2.332,1.082-2.786c0.583-0.454,3.972,0.37,5.95,3.3c1.978,2.93,1.86,6.5,1.134,6.915
								c-0.726,0.415-1.914-0.574-3.158,0.154c-4.376,2.514-26.184,15.043-26.503,15.227c-0.581,0.334-1.383,0.284-2.267-0.229
								c-1.769-1.026-3.2-3.516-3.195-5.561C299.465,172.41,299.826,171.692,300.407,171.358z"/>
							<path style="opacity:0.2;" d="M302.181,177.872c0.703-0.495,1.538-0.867,2.287-1.29c1.949-1.1,3.898-2.2,5.847-3.301
								c5.685-3.212,11.509-6.204,17.031-9.688c0.811-0.512,1.63-1.052,3.042-1.956c0.817-0.523,1.918-0.29,2.537-1.242
								c0.28-0.431,0.33-0.971,0.311-1.485c-0.049-1.328-0.531-2.628-1.334-3.686c0.557,0.463,1.092,1.024,1.55,1.703
								c1.978,2.93,1.86,6.5,1.134,6.915c-0.726,0.415-1.914-0.574-3.158,0.154c-4.376,2.514-26.184,15.043-26.503,15.227
								c-0.581,0.334-1.383,0.284-2.267-0.229c-0.319-0.185-0.621-0.431-0.912-0.7C301.882,178.13,302.025,177.982,302.181,177.872z
								"/>
							<path style="fill:#BA68C8;" d="M299.463,173.432c0.002-1.023,0.363-1.74,0.944-2.074c0.581-0.334,1.383-0.284,2.267,0.23
								c1.769,1.026,3.199,3.516,3.195,5.561c-0.002,1.023-0.363,1.74-0.944,2.074c-0.581,0.334-1.383,0.284-2.267-0.229
								C300.889,177.967,299.459,175.477,299.463,173.432z"/>
							<g>
								<g>
									<g>
										<g>
											<g>
												<polygon style="fill:#BA68C8;" points="295.259,190.676 294.806,189.616 302.091,188.981 305.171,189.812 												
													"/>
												<polygon style="fill:#BA68C8;" points="302.112,179.269 302.091,188.981 305.171,189.812 305.196,177.797 												
													"/>
												<polygon style="opacity:0.1;fill:#FFFFFF;" points="302.112,179.269 302.091,188.981 305.171,189.812 305.196,177.797 
																									"/>
												<polygon style="fill:#BA68C8;" points="294.847,170.193 296.924,167.462 305.196,177.797 302.112,179.269 												
													"/>
												<polygon style="opacity:0.3;fill:#FFFFFF;" points="294.847,170.193 296.924,167.462 305.196,177.797 302.112,179.269 
																									"/>
												<polygon style="fill:#BA68C8;" points="287.562,170.828 287.012,168.326 296.924,167.462 294.847,170.193 												
													"/>
												<polygon style="opacity:0.2;fill:#FFFFFF;" points="287.562,170.828 287.012,168.326 296.924,167.462 294.847,170.193 
																									"/>
												<polygon style="fill:#BA68C8;" points="287.012,168.326 286.987,180.508 295.259,190.676 294.806,189.616 
													287.541,180.54 287.562,170.828 												"/>
												<polygon style="opacity:0.2;" points="287.012,168.326 286.987,180.508 295.259,190.676 294.806,189.616 
													287.541,180.54 287.562,170.828 												"/>
											</g>
											<polygon style="fill:#BA68C8;" points="287.541,180.54 287.562,170.828 294.847,170.193 302.112,179.269 
												302.091,188.981 294.806,189.616 											"/>
											<polygon style="opacity:0.1;" points="287.541,180.54 287.562,170.828 294.847,170.193 302.112,179.269 302.091,188.981 
												294.806,189.616 											"/>
										</g>
										<g>
											<polygon style="fill:#BA68C8;" points="305.171,189.812 310.927,186.505 310.953,174.489 305.196,177.797 											"/>
											<polygon style="opacity:0.1;fill:#FFFFFF;" points="305.171,189.812 310.927,186.505 310.953,174.489 305.196,177.797 
																							"/>
											<polygon style="fill:#BA68C8;" points="296.924,167.462 305.196,177.797 310.953,174.489 302.68,164.154 											"/>
											<polygon style="opacity:0.3;fill:#FFFFFF;" points="296.924,167.462 305.196,177.797 310.953,174.489 302.68,164.154 
																							"/>
											<polygon style="fill:#BA68C8;" points="287.012,168.326 292.769,165.018 302.68,164.154 296.924,167.462 											"/>
											<polygon style="opacity:0.2;fill:#FFFFFF;" points="287.012,168.326 292.769,165.018 302.68,164.154 296.924,167.462 
																							"/>
										</g>
										<path style="fill:#BA68C8;" d="M305.171,189.812c0.048-2.003,0.126-4.005,0.148-6.007
											c0.031-2.003,0.073-4.005,0.079-6.008l0-0.07l-0.044-0.056l-4.12-5.181l-4.161-5.148l-0.065-0.081l-0.1,0.01
											c-3.3,0.327-6.599,0.67-9.895,1.054c3.278-0.19,6.552-0.421,9.825-0.667l4.049,5.109l4.109,5.1
											c-0.002,1.979,0.031,3.957,0.053,5.936C305.062,185.807,305.132,187.809,305.171,189.812z"/>
									</g>
									<polygon style="fill:#BA68C8;" points="302.68,164.154 305.093,164.632 311.98,173.236 310.953,174.489 									"/>
									<polygon style="opacity:0.3;fill:#FFFFFF;" points="302.68,164.154 305.093,164.632 311.98,173.236 310.953,174.489 
																			"/>
									<polygon style="fill:#BA68C8;" points="311.959,183.24 310.927,186.505 310.953,174.489 311.98,173.236 									"/>
									<polygon style="opacity:0.1;fill:#FFFFFF;" points="311.959,183.24 310.927,186.505 310.953,174.489 311.98,173.236 
																			"/>
									<g>
										<path style="fill:#BA68C8;" d="M310.927,186.505c0.081-2.002,0.148-4.005,0.181-6.007
											c0.049-2.003,0.043-4.005,0.068-6.007l0.001-0.078l-0.05-0.062c-1.379-1.722-2.771-3.435-4.169-5.141
											c-1.405-1.701-2.829-3.388-4.277-5.054c1.309,1.778,2.642,3.537,3.995,5.28c1.359,1.738,2.725,3.471,4.103,5.194
											l-0.049-0.14c0.016,2.003,0.002,4.005,0.043,6.008C310.796,182.499,310.855,184.502,310.927,186.505z"/>
									</g>
									<polygon style="opacity:0.1;fill:#FFFFFF;" points="287.562,170.828 294.654,170.671 301.604,179.456 301.681,188.702 
										294.806,189.616 302.091,188.981 302.112,179.269 294.847,170.193 									"/>
								</g>
							</g>
						</g>
					</g>
				</g>
				<path style="fill:#FFBDA7;" d="M313.503,167.592c1.553,1.8,2.281,5.465,0.209,6.634l-1.732,0.944l-0.021,7.97l0.62,0.224
					c4.063-2.173,8.323-3.264,11.173-4.872c2.849-1.608,6.086-2.734,7.053-4.976c0.966-2.242,2.154-10.959,2.092-12.69
					c-0.062-1.731-2.88-3.276-7.67-4.333c-4.79-1.057-5.976-0.497-7.009,0.465c-1.033,0.962-1.277,1.774-1.277,1.774
					s-2.044-0.205-3.39,0.568c-1.346,0.773-1.608,2.737-1.608,2.737s-1.46,0.222-2.745,1.231c-1.284,1.01-0.934,3.576-0.934,3.576
					l1.269-0.729c0.746-0.41,2.708,0.019,3.902,1.4c0.012,0.013,0.023,0.027,0.035,0.041
					C313.482,167.567,313.492,167.58,313.503,167.592z"/>
			</g>
			<g id="Chest_2_">
				<path style="fill:#BA68C8;" d="M231.63,125.029c0,0-18.104-0.756-29.249,1.669c-6.351,1.382-12.494,2.88-12.494,2.88
					c-2.593,3.246-14.039,16.365-12.953,23.382c0.931,6.016,10.214,29.552,11.222,37.213c-5.612,10.371-12.224,29.385-12.224,29.385
					c15.469,14.587,72.949,16.579,83.143-0.433c0,0-0.029-10.924-3.157-22.625c-0.131-7.956,0.408-14.502,0.629-18.878
					c0,0,6.921-3.225,8.316-13.801c0.877-6.648-1.553-13.173-10.12-23.68c-8.642-10.6-13.052-14.494-13.052-14.494L231.63,125.029z"
					/>
				<path style="opacity:0.2;" d="M238.008,176.262c-7.812,8.814-26.433,5.14-31.185-4.732
					C208.623,186.684,234.267,187.869,238.008,176.262z"/>
				<path style="opacity:0.3;fill:#FFFFFF;" d="M188.21,226.3c2.494-9.952,5.576-19.762,9.942-29.492
					c1.405-3.132,1.69-6.657,0.716-9.949c-5.786-19.566-9.488-34.464-9.488-34.464l-12.474,0.324
					c-0.002,0.002-0.002,0.003-0.004,0.004c0.71,5.609,10.232,29.684,11.253,37.449c-5.612,10.371-12.224,29.385-12.224,29.385
					C178.749,222.215,183.028,224.555,188.21,226.3z"/>
			</g>
			<g id="Head_4_">
				<g>
					<path style="fill:#263238;" d="M224.823,111.912c4.714-2.259,9.061-4.791,13.104-8.113c2.277-1.871,2.928-4.712,3.645-7.426
						c0.764-2.891,1.927-5.483,3.81-7.82c1.92-2.383,4.056-3.066,5.197-5.969c0.945-2.405,1.461-6.363,1.225-8.936
						c-0.205-2.24-1.09-5.312-2.155-7.666c-2.303-5.089-6.471-8.819-11.567-10.738c-5.694-2.144-13.292-2.651-19.255-1.441
						c-10.312,2.091-14.819,6.517-17.448,13.119c-9.293,5.543-7.811,18.368-7.069,21.206c1.427,5.465,5.013,12.308,8.756,16.463
						c3.166,3.514,5.704,6.39,7.261,10.898c0.505,1.463-0.139,2.22,1.773,2.148c1.893-0.072,4.084-1.608,5.757-2.406
						C220.178,114.123,222.501,113.025,224.823,111.912z"/>
				</g>
				<path style="fill:#263238;" d="M247.114,62.735c2.519-1.383,5.609-1.683,8.345-0.809c2.736,0.873,5.079,2.907,6.328,5.493
					c-1.63-2.056-4.143-3.33-6.746-3.673c-2.603-0.343-5.28,0.2-7.662,1.307c1.926-0.359,3.832,0.728,5.283,2.042
					c2.805,2.54,4.655,6.112,5.113,9.869c-0.499-1.936-1.843-3.525-3.147-5.041c-1.297-1.507-2.635-3.048-4.387-3.988
					c-0.84-0.45-1.758-0.752-2.563-1.261c-0.805-0.51-1.515-1.299-1.595-2.248"/>
				<g>
					<path style="fill:#FFBDA7;" d="M207.97,120.946c0.669-5.478,1.348-13.904,1.348-13.904c-0.993,1.352-6.391,3.257-10.167-1.928
						c-4.349-5.971-3.72-10.289-0.767-13.204c3.373-3.33,9.345-2.555,11.883,2.639c0.319,0.652,2.32-0.368,2.63-0.631
						c0.844-0.714,1.247-1.851,1.437-2.906c0.239-1.333,0.098-2.148-0.361-3.267c-0.377-0.92-0.563-1.677-0.161-2.657
						c0.413-1.006,1.191-1.807,1.86-2.663c1.768-2.26,2.847-5.052,3.059-7.914c0.107-1.444,0.009-2.949,0.574-4.283
						c0.815-1.922,2.906-3.08,4.985-3.275c2.079-0.195,4.15,0.424,6.082,1.216c1.046,0.429,2.092,0.917,3.217,1.036
						c1.107,0.117,2.25-0.143,3.197-0.727c1.581-0.975,2.728-2.851,4.577-3.025c1.367-0.129,2.618,0.757,3.589,1.728
						c2.595,2.593,3.925,6.085,4.941,9.539c1.623,5.519,1.803,11.418,1.604,17.13c-0.477,13.675-3.597,19.982-8.028,22.055
						c-2.644,1.237-5.118,2.017-10.192,1.691c0,0-0.176,1.713-0.436,4.24c-0.19,1.851,0.098,2.919,2.451,3.416
						c2.249,3,7.813,10.348-5.466,11.007c-17.13,0.85-25.736-7.458-27.38-9.563C207.036,125.632,207.55,124.385,207.97,120.946z"/>
					<path style="fill:#263238;" d="M216.464,94.668c0.495,2.763-0.858,5.93-3.474,6.954c0.73-1.525,1.258-3.187,1.211-4.877
						c-0.047-1.69-0.731-3.416-2.066-4.456c-0.525-0.409-1.132-0.703-1.656-1.112c-0.525-0.409-0.98-0.981-1.017-1.645
						c-0.169-3.103,3.223-0.755,4.113,0.095C214.998,90.985,216.114,92.712,216.464,94.668z"/>
					<g>
						<g id="XMLID_00000182526964337889108810000004341596737119568813_">
							<path id="XMLID_00000098214248699373637300000018434021655689658501_" style="fill:#B16668;" d="M227.986,102.351
								l7.152,2.133c-0.552,2.043-2.6,3.223-4.574,2.635C228.588,106.529,227.435,104.395,227.986,102.351z"/>
							<path style="fill:#F0997A;" d="M228.469,103.984c1.989-0.086,3.708,1.258,4.164,3.12c-0.653,0.2-1.365,0.224-2.07,0.014
								c-1.418-0.422-2.399-1.644-2.644-3.054C228.101,104.031,228.28,103.993,228.469,103.984z"/>
						</g>
						<path id="XMLID_00000061439682665568536990000005410036121742362533_" style="fill:#263238;" d="M248.338,80.635l-5.712-0.513
							c0.083-1.594,1.429-2.771,3.007-2.629C247.209,77.634,248.421,79.041,248.338,80.635z"/>
						<path id="XMLID_531_" style="fill:#263238;" d="M221.319,81.486l5.677-1.229c-0.283-1.592-1.784-2.606-3.352-2.267
							C222.077,78.33,221.036,79.896,221.319,81.486z"/>
						<path id="XMLID_530_" style="fill:#263238;" d="M242.027,87.924c-0.076,1.303,0.933,2.45,2.251,2.563
							c1.318,0.112,2.448-0.855,2.523-2.158c0.076-1.304-0.932-2.451-2.25-2.562C243.233,85.655,242.102,86.621,242.027,87.924z"/>
						<path id="XMLID_529_" style="fill:#263238;" d="M224.712,88.672c-0.076,1.303,0.932,2.45,2.251,2.563
							c1.319,0.112,2.448-0.855,2.523-2.158c0.076-1.304-0.932-2.451-2.25-2.562C225.917,86.402,224.786,87.368,224.712,88.672z"/>
					</g>
					<polygon style="fill:#F0997A;" points="244.49,95.62 236.629,99.179 234.244,83.554 					"/>
					<g id="XMLID_525_">
						<path id="XMLID_526_" style="fill:#F0997A;" d="M233.277,117.597c-9.106-0.746-17.859-3.558-19.979-7.66
							c0,0,0.227,3.641,3.955,5.736c5.227,2.937,15.794,4.166,15.794,4.166L233.277,117.597z"/>
					</g>
				</g>
			</g>
			<g>
				<g id="Dumbbell_00000134938963106943594340000018368919410572947878_">
					<g>
						<g>
							<g>
								<g>
									<g>
										<polygon style="fill:#BA68C8;" points="135.438,257.929 135.963,256.903 128.738,255.771 125.608,256.389 										"/>
										<polygon style="fill:#BA68C8;" points="129.382,246.08 128.738,255.771 125.608,256.389 126.406,244.4 										"/>
										<polygon style="opacity:0.1;fill:#FFFFFF;" points="129.382,246.08 128.738,255.771 125.608,256.389 126.406,244.4 
																					"/>
										<polygon style="fill:#BA68C8;" points="137.251,237.522 135.366,234.655 126.406,244.4 129.382,246.08 										"/>
										<polygon style="opacity:0.3;fill:#FFFFFF;" points="137.251,237.522 135.366,234.655 126.406,244.4 129.382,246.08 
																					"/>
										<polygon style="fill:#BA68C8;" points="144.475,238.654 145.195,236.195 135.366,234.655 137.251,237.522 										"/>
										<polygon style="opacity:0.2;fill:#FFFFFF;" points="144.475,238.654 145.195,236.195 135.366,234.655 137.251,237.522 
																					"/>
										<polygon style="fill:#BA68C8;" points="145.195,236.195 144.387,248.351 135.438,257.929 135.963,256.903 
											143.831,248.345 144.475,238.654 										"/>
										<polygon style="opacity:0.2;" points="145.195,236.195 144.387,248.351 135.438,257.929 135.963,256.903 143.831,248.345 
											144.475,238.654 										"/>
									</g>
									<polygon style="fill:#BA68C8;" points="143.831,248.345 144.475,238.654 137.251,237.522 129.382,246.08 128.738,255.771 
										135.963,256.903 									"/>
									<polygon style="opacity:0.1;" points="143.831,248.345 144.475,238.654 137.251,237.522 129.382,246.08 128.738,255.771 
										135.963,256.903 									"/>
								</g>
								<g>
									<polygon style="fill:#BA68C8;" points="125.608,256.389 120.092,252.696 120.889,240.707 126.406,244.4 									"/>
									<polygon style="opacity:0.1;fill:#FFFFFF;" points="125.608,256.389 120.092,252.696 120.889,240.707 126.406,244.4 
																			"/>
									<polygon style="fill:#BA68C8;" points="135.366,234.655 126.406,244.4 120.889,240.707 129.849,230.962 									"/>
									<polygon style="opacity:0.3;fill:#FFFFFF;" points="135.366,234.655 126.406,244.4 120.889,240.707 129.849,230.962 
																			"/>
									<polygon style="fill:#BA68C8;" points="145.195,236.195 139.678,232.502 129.849,230.962 135.366,234.655 									"/>
									<polygon style="opacity:0.2;fill:#FFFFFF;" points="145.195,236.195 139.678,232.502 129.849,230.962 135.366,234.655 
																			"/>
								</g>
								<path style="fill:#BA68C8;" d="M126.142,250.404c0.157-1.972,0.326-3.944,0.459-5.918l4.448-4.807l4.389-4.82
									c3.249,0.469,6.499,0.924,9.756,1.338c-3.261-0.609-6.529-1.176-9.799-1.728l-0.099-0.017l-0.07,0.076l-4.503,4.851
									l-4.465,4.886l-0.048,0.053l-0.005,0.07c-0.132,1.998-0.226,3.999-0.333,5.999c-0.116,1.999-0.174,4.002-0.264,6.003
									C125.785,254.394,125.992,252.401,126.142,250.404z"/>
							</g>
							<polygon style="fill:#BA68C8;" points="129.849,230.962 127.41,231.273 119.95,239.386 120.889,240.707 							"/>
							<polygon style="opacity:0.3;fill:#FFFFFF;" points="129.849,230.962 127.41,231.273 119.95,239.386 120.889,240.707 							
								"/>
							<polygon style="fill:#BA68C8;" points="119.286,249.368 120.092,252.696 120.889,240.707 119.95,239.386 							"/>
							<polygon style="opacity:0.1;fill:#FFFFFF;" points="119.286,249.368 120.092,252.696 120.889,240.707 119.95,239.386 							
								"/>
							<g>
								<path style="fill:#BA68C8;" d="M120.092,252.696c0.056-2.003,0.126-4.006,0.231-6.006c0.088-2.001,0.231-3.999,0.344-5.998
									l0.004-0.078l0.054-0.059c1.494-1.624,2.999-3.237,4.511-4.844c1.518-1.601,3.054-3.186,4.613-4.75
									c-1.428,1.685-2.878,3.348-4.347,4.995c-1.475,1.641-2.956,3.276-4.449,4.901l0.058-0.136
									c-0.153,1.997-0.276,3.995-0.454,5.991C120.497,248.708,120.301,250.703,120.092,252.696z"/>
							</g>
							<polygon style="opacity:0.1;fill:#FFFFFF;" points="144.475,238.654 137.411,238.012 129.876,246.301 129.167,255.52 
								135.963,256.903 128.738,255.771 129.382,246.08 137.251,237.522 							"/>
						</g>
					</g>
					<g>
						<g>
							<path style="fill:#BA68C8;" d="M161.954,269.527c0.557,0.373,1.36,0.378,2.277-0.074c1.835-0.903,3.432-3.289,3.568-5.33
								c0.068-1.02-0.243-1.761-0.799-2.134c-0.338-0.226-25.787-17.264-26.125-17.491c-0.557-0.373-1.36-0.378-2.277,0.074
								c-1.835,0.903-3.433,3.289-3.568,5.33c-0.068,1.02,0.243,1.761,0.8,2.134C136.167,252.262,161.616,269.3,161.954,269.527z"/>
							<path style="fill:#BA68C8;" d="M167,261.99c-0.296-0.198-19.844-13.286-24.929-16.69c-1.196-0.801-0.339-2.361-0.889-2.854
								c-0.551-0.493-3.988,0.098-6.162,2.885c-2.174,2.788-2.3,6.358-1.605,6.821c0.696,0.464,1.949-0.441,3.14,0.369
								c4.194,2.808,25.093,16.8,25.399,17.005c0.557,0.373,1.36,0.378,2.277-0.074c1.835-0.903,3.433-3.289,3.568-5.33
								C167.868,263.103,167.557,262.362,167,261.99z"/>
							<path style="opacity:0.2;" d="M164.784,268.366c-0.667-0.542-1.475-0.97-2.193-1.443c-1.869-1.23-3.738-2.462-5.607-3.693
								c-5.451-3.593-11.057-6.976-16.328-10.83c-0.774-0.566-1.554-1.161-2.901-2.16c-0.78-0.578-1.894-0.421-2.446-1.413
								c-0.25-0.449-0.263-0.992-0.209-1.503c0.14-1.321,0.71-2.585,1.583-3.586c-0.587,0.424-1.16,0.947-1.663,1.593
								c-2.174,2.788-2.3,6.358-1.605,6.821c0.696,0.464,1.949-0.441,3.14,0.369c4.194,2.808,25.093,16.8,25.399,17.005
								c0.557,0.373,1.36,0.378,2.277-0.074c0.331-0.163,0.649-0.388,0.958-0.636C165.066,268.645,164.933,268.487,164.784,268.366z
								"/>
							<path style="fill:#BA68C8;" d="M167.8,264.123c0.068-1.02-0.243-1.761-0.799-2.134c-0.557-0.373-1.36-0.378-2.278,0.074
								c-1.835,0.903-3.433,3.289-3.568,5.33c-0.068,1.02,0.243,1.761,0.8,2.134c0.557,0.373,1.36,0.378,2.278-0.074
								C166.067,268.55,167.664,266.164,167.8,264.123z"/>
							<g>
								<g>
									<g>
										<g>
											<g>
												<polygon style="fill:#BA68C8;" points="170.814,281.614 171.339,280.588 164.114,279.456 160.984,280.074 												
													"/>
												<polygon style="fill:#BA68C8;" points="164.758,269.765 164.114,279.456 160.984,280.074 161.782,268.085 												
													"/>
												<polygon style="opacity:0.1;fill:#FFFFFF;" points="164.758,269.765 164.114,279.456 160.984,280.074 161.782,268.085 
																									"/>
												<polygon style="fill:#BA68C8;" points="172.627,261.207 170.742,258.34 161.782,268.085 164.758,269.765 												
													"/>
												<polygon style="opacity:0.3;fill:#FFFFFF;" points="172.627,261.207 170.742,258.34 161.782,268.085 164.758,269.765 
																									"/>
												<polygon style="fill:#BA68C8;" points="179.851,262.339 180.571,259.88 170.742,258.34 172.627,261.207 												"/>
												<polygon style="opacity:0.2;fill:#FFFFFF;" points="179.851,262.339 180.571,259.88 170.742,258.34 172.627,261.207 
																									"/>
												<polygon style="fill:#BA68C8;" points="180.571,259.88 179.763,272.036 170.814,281.614 171.339,280.588 
													179.207,272.03 179.851,262.339 												"/>
												<polygon style="opacity:0.2;" points="180.571,259.88 179.763,272.036 170.814,281.614 171.339,280.588 179.207,272.03 
													179.851,262.339 												"/>
											</g>
											<polygon style="fill:#BA68C8;" points="179.207,272.03 179.851,262.339 172.627,261.207 164.758,269.765 
												164.114,279.456 171.339,280.588 											"/>
											<polygon style="opacity:0.1;" points="179.207,272.03 179.851,262.339 172.627,261.207 164.758,269.765 164.114,279.456 
												171.339,280.588 											"/>
										</g>
										<g>
											<polygon style="fill:#BA68C8;" points="160.984,280.074 155.468,276.381 156.265,264.392 161.782,268.085 											"/>
											<polygon style="opacity:0.1;fill:#FFFFFF;" points="160.984,280.074 155.468,276.381 156.265,264.392 161.782,268.085 
																							"/>
											<polygon style="fill:#BA68C8;" points="170.742,258.34 161.782,268.085 156.265,264.392 165.225,254.647 											"/>
											<polygon style="opacity:0.3;fill:#FFFFFF;" points="170.742,258.34 161.782,268.085 156.265,264.392 165.225,254.647 
																							"/>
											<polygon style="fill:#BA68C8;" points="180.571,259.88 175.054,256.187 165.225,254.647 170.742,258.34 											"/>
											<polygon style="opacity:0.2;fill:#FFFFFF;" points="180.571,259.88 175.054,256.187 165.225,254.647 170.742,258.34 
																							"/>
										</g>
										<path style="fill:#BA68C8;" d="M161.518,274.089c0.157-1.972,0.326-3.944,0.459-5.918l4.448-4.807l4.389-4.82
											c3.248,0.469,6.499,0.924,9.756,1.338c-3.261-0.609-6.529-1.176-9.8-1.728l-0.099-0.017l-0.071,0.076l-4.503,4.851
											l-4.465,4.887l-0.048,0.053l-0.005,0.07c-0.132,1.998-0.226,3.999-0.333,5.999c-0.116,1.999-0.174,4.002-0.264,6.003
											C161.161,278.079,161.368,276.086,161.518,274.089z"/>
									</g>
									<polygon style="fill:#BA68C8;" points="165.225,254.647 162.786,254.958 155.326,263.071 156.265,264.392 									"/>
									<polygon style="opacity:0.3;fill:#FFFFFF;" points="165.225,254.647 162.786,254.958 155.326,263.071 156.265,264.392 
																			"/>
									<polygon style="fill:#BA68C8;" points="154.662,273.053 155.468,276.381 156.265,264.392 155.326,263.071 									"/>
									<polygon style="opacity:0.1;fill:#FFFFFF;" points="154.662,273.053 155.468,276.381 156.265,264.392 155.326,263.071 
																			"/>
									<g>
										<path style="fill:#BA68C8;" d="M155.468,276.381c0.056-2.003,0.126-4.006,0.231-6.006
											c0.088-2.001,0.231-3.999,0.344-5.998l0.004-0.078l0.054-0.059c1.494-1.624,2.999-3.237,4.511-4.844
											c1.518-1.601,3.054-3.186,4.613-4.75c-1.428,1.685-2.878,3.348-4.347,4.995c-1.475,1.641-2.956,3.276-4.449,4.901
											l0.058-0.136c-0.153,1.997-0.276,3.996-0.454,5.991C155.873,272.394,155.678,274.388,155.468,276.381z"/>
									</g>
									<polygon style="opacity:0.1;fill:#FFFFFF;" points="179.851,262.339 172.787,261.697 165.252,269.986 164.543,279.205 
										171.339,280.588 164.114,279.456 164.758,269.765 172.627,261.207 									"/>
								</g>
							</g>
						</g>
					</g>
				</g>
				<g id="Arm_00000129192847492174311080000002345356232243554991_">
					<path style="fill:#FFBDA7;" d="M143.876,241.327c0.716-5.657,2.913-25.072,3.771-31.085c1.127-7.902,1.389-12.333,2.398-17.241
						c1.128-5.49,6.696-19.1,11.705-32.165c6.466-16.866,8.533-21.537,12.855-25.199c4.926-4.174,10.368-5.337,18.008-6.713
						c6.981,7.333,1.598,30.434-2.156,37.199c-4.232,7.628-15.386,27.103-15.386,27.103s-4.501,15.295-8.217,27.887
						c-2.133,7.227-4.443,14.48-4.443,14.48c-0.884,3.503-3.083,8.029-2.25,11.779c0.833,3.75,2.119,8.137,2.119,8.137l-1.904,2.069
						l-2.67-1.811c0,0-1.883-0.226-3.662,2.437c-1.163,1.742-1.43,5.066-0.598,5.627c0.832,0.56,1.751,1.172,1.751,1.172
						l-0.52,7.819c0,0-2.1,0.798-4.256,1.187c-2.156,0.389-2.193-0.392-3.895-1.49c-1.702-1.098-2.671-0.187-4.104-1.169
						c-1.433-0.982-1.676-2.658-2.621-3.132c-0.945-0.474-1.966-1.137-2.543-3.139c-0.577-2.002-0.425-6.958-0.514-9.625
						C136.655,252.788,143.32,245.72,143.876,241.327z"/>
				</g>
			</g>
		</g>
	</g>
</g>
<g id="Speech_Bubble">
	<g id="Speech_Bubble_6_">
		<g id="Speech_Bubble_8_">
			<path id="XMLID_1322_" style="fill:#BA68C8;" d="M332.355,37.155L275.04,70.307c-0.633,0.365-1.146,1.253-1.146,2.97v30.22
				c0,0.764,0.516,1.627,1.152,1.986l4.557,2.591c0.636,0.359,1.665,0.354,2.297-0.011l57.315-33.152
				c0.633-0.365,1.145-1.253,1.145-1.984v-31.22c0-0.73-0.516-1.614-1.152-1.973l-4.557-2.591
				C334.016,36.784,332.988,36.789,332.355,37.155z"/>
			<path id="XMLID_00000021088677229840580050000001015266572411266436_" style="opacity:0.3;fill:#FFFFFF;" d="M332.355,37.155
				L275.04,70.307c-0.633,0.365-1.146,1.253-1.146,2.97v30.22c0,0.764,0.516,1.627,1.152,1.986l4.557,2.591
				c0.636,0.359,1.665,0.354,2.297-0.011l57.315-33.152c0.633-0.365,1.145-1.253,1.145-1.984v-31.22c0-0.73-0.516-1.614-1.152-1.973
				l-4.557-2.591C334.016,36.784,332.988,36.789,332.355,37.155z"/>
			<path id="XMLID_1321_" style="fill:#BA68C8;" d="M281.9,108.063c-0.61,0.354-1.724,0.366-2.299,0.014l-4.555-2.595
				c-0.635-0.354-1.153-1.195-1.153-1.984v-30.22c0-1.367,0.266-1.813,0.402-2.134l6.797,3.912
				c-0.132,0.252-0.343,0.572-0.338,1.127v31.22C280.755,108.086,281.226,108.454,281.9,108.063z"/>
			<g>
				<path id="XMLID_1319_" style="fill:#BA68C8;" d="M270.755,97.376c-0.72-0.429-6.205-3.52-6.38-3.62
					c-0.529-0.323-0.72-1.106-0.228-1.635l9.746-11.174l6.86,3.934L270.56,95.77C270.084,96.278,270.273,97.027,270.755,97.376z"/>
				<path id="XMLID_00000005269209175915374850000006566607885164352933_" style="opacity:0.3;fill:#FFFFFF;" d="M270.755,97.376
					c-0.72-0.429-6.205-3.52-6.38-3.62c-0.529-0.323-0.72-1.106-0.228-1.635l9.746-11.174l6.86,3.934L270.56,95.77
					C270.084,96.278,270.273,97.027,270.755,97.376z"/>
				<g>
					<path style="fill:#FFFFFF;" d="M339.216,41.046L281.9,74.198c-0.632,0.365-1.145,1.253-1.145,1.984v8.701l-10.197,10.885
						c-0.66,0.708-0.176,1.68,0.655,1.756l9.542-0.697l0,0v10.575c0,0.73,0.513,1.026,1.145,0.661l57.315-33.152
						c0.633-0.365,1.145-1.253,1.145-1.984V41.707C340.361,40.977,339.849,40.681,339.216,41.046z"/>
					<path style="fill:#BA68C8;" d="M339.571,41.753v31.174c0,0.446-0.365,1.077-0.751,1.3l-57.275,33.129l0-10.528v-0.85
						l-0.848,0.062l-9.457,0.691c-0.102-0.024-0.163-0.095-0.187-0.158c-0.012-0.031-0.048-0.125,0.081-0.264l10.197-10.885
						l0.214-0.228v-0.312v-8.701c0-0.445,0.365-1.077,0.751-1.3L339.571,41.753 M339.727,40.889c-0.154,0-0.328,0.05-0.512,0.156
						L281.9,74.198c-0.632,0.365-1.145,1.253-1.145,1.984v8.701l-10.197,10.885c-0.66,0.708-0.176,1.68,0.655,1.756l9.542-0.697l0,0
						v10.575c0,0.518,0.258,0.817,0.634,0.817c0.154,0,0.328-0.05,0.512-0.157l57.315-33.152c0.633-0.365,1.145-1.253,1.145-1.984
						V41.707C340.361,41.189,340.103,40.889,339.727,40.889L339.727,40.889z"/>
				</g>
			</g>
		</g>
		<g>
			<path style="fill:#37474F;" d="M287.342,93.744c-0.055-0.081-0.082-0.247-0.082-0.5v-0.259c0-0.253,0.027-0.452,0.082-0.597
				c0.055-0.144,0.142-0.251,0.262-0.32l1.869-1.079V80.761l-2.018,1.584c-0.119,0.069-0.209-0.009-0.27-0.233
				c-0.059-0.225-0.089-0.477-0.089-0.756c0-0.227,0.099-0.429,0.298-0.612l3.111-2.673c0.119-0.069,0.233-0.092,0.344-0.069
				c0.109,0.024,0.164,0.095,0.164,0.214v11.884l1.556-0.898c0.12-0.069,0.207-0.063,0.262,0.018
				c0.055,0.082,0.082,0.249,0.082,0.502v0.259c0,0.253-0.027,0.452-0.082,0.595c-0.055,0.145-0.142,0.252-0.262,0.321l-4.965,2.866
				C287.484,93.832,287.397,93.826,287.342,93.744z"/>
			<path style="fill:#37474F;" d="M294.11,89.548v-1.455c0-0.332,0.219-0.624,0.657-0.878l0.329-0.19
				c0.438-0.253,0.658-0.214,0.658,0.118v1.455c0,0.333-0.22,0.626-0.658,0.879l-0.329,0.19
				C294.329,89.921,294.11,89.881,294.11,89.548z"/>
			<path style="fill:#37474F;" d="M296.921,87.925V86.47c0-0.332,0.22-0.624,0.658-0.878l0.329-0.19
				c0.438-0.253,0.658-0.214,0.658,0.118v1.455c0,0.333-0.221,0.626-0.658,0.879l-0.329,0.19
				C297.14,88.298,296.921,88.258,296.921,87.925z"/>
			<path style="fill:#37474F;" d="M299.732,86.302v-1.455c0-0.332,0.219-0.624,0.658-0.878l0.329-0.19
				c0.438-0.253,0.657-0.214,0.657,0.118v1.455c0,0.333-0.22,0.626-0.657,0.879l-0.329,0.19
				C299.951,86.675,299.732,86.635,299.732,86.302z"/>
			<path style="fill:#37474F;" d="M304.464,83.65c-0.065-0.214-0.097-0.449-0.097-0.702c0-0.159,0.015-0.274,0.045-0.344
				l3.439-8.545c0.318-0.783,0.533-1.381,0.643-1.797c0.11-0.416,0.165-0.816,0.165-1.202c0-0.585-0.137-0.958-0.411-1.119
				c-0.275-0.16-0.646-0.105-1.114,0.165c-0.349,0.201-0.636,0.434-0.859,0.695c-0.225,0.263-0.481,0.597-0.77,1.003
				c-0.15,0.246-0.254,0.386-0.314,0.42c-0.12,0.069-0.249,0.004-0.389-0.194c-0.14-0.198-0.209-0.39-0.209-0.577
				c0-0.279,0.14-0.622,0.419-1.03c0.279-0.406,0.627-0.804,1.046-1.192c0.419-0.388,0.823-0.695,1.212-0.919
				c0.896-0.518,1.614-0.623,2.153-0.315c0.538,0.308,0.807,0.986,0.807,2.036c0,0.466-0.047,0.925-0.142,1.378
				c-0.095,0.454-0.262,1.001-0.501,1.646c-0.239,0.643-0.598,1.521-1.076,2.635l-2.184,5.586l3.603-2.08
				c0.12-0.069,0.207-0.065,0.262,0.008c0.055,0.075,0.082,0.239,0.082,0.492v0.259c0,0.253-0.027,0.451-0.082,0.595
				c-0.055,0.145-0.142,0.252-0.262,0.321l-5.233,3.022C304.606,83.947,304.529,83.866,304.464,83.65z"/>
			<path style="fill:#37474F;" d="M311.456,79.534v-1.455c0-0.332,0.219-0.624,0.658-0.878l0.328-0.19
				c0.439-0.253,0.658-0.214,0.658,0.118v1.455c0,0.333-0.22,0.626-0.658,0.879l-0.328,0.19
				C311.674,79.906,311.456,79.867,311.456,79.534z"/>
			<path style="fill:#37474F;" d="M314.266,77.911v-1.455c0-0.332,0.22-0.624,0.658-0.878l0.329-0.19
				c0.438-0.253,0.658-0.214,0.658,0.118v1.455c0,0.333-0.22,0.626-0.658,0.879l-0.329,0.19
				C314.486,78.283,314.266,78.244,314.266,77.911z"/>
			<path style="fill:#37474F;" d="M317.078,76.288v-1.455c0-0.332,0.219-0.624,0.658-0.878l0.329-0.19
				c0.438-0.253,0.658-0.214,0.658,0.118v1.455c0,0.333-0.221,0.626-0.658,0.879l-0.329,0.19
				C317.297,76.66,317.078,76.621,317.078,76.288z"/>
			<path style="fill:#37474F;" d="M323.133,73.22c-0.429,0.135-0.78,0.182-1.054,0.141c-0.275-0.042-0.412-0.181-0.412-0.42
				c0-0.187,0.073-0.464,0.218-0.833c0.144-0.368,0.266-0.583,0.366-0.64c0.05-0.029,0.164-0.035,0.344-0.019
				c0.249,0.029,0.493,0.024,0.732-0.015c0.239-0.038,0.519-0.149,0.838-0.333c0.498-0.288,0.932-0.741,1.3-1.359
				c0.369-0.618,0.555-1.373,0.555-2.264c0-0.863-0.17-1.387-0.51-1.57c-0.338-0.184-0.832-0.088-1.479,0.286l-0.584,0.337
				c-0.119,0.069-0.206,0.063-0.261-0.018c-0.056-0.082-0.082-0.249-0.082-0.501v-0.259c0-0.252,0.026-0.447,0.082-0.585
				c0.055-0.138,0.142-0.242,0.261-0.311l0.494-0.285c0.398-0.23,0.729-0.543,0.994-0.942c0.265-0.398,0.456-0.812,0.575-1.239
				c0.12-0.429,0.181-0.815,0.181-1.161c0-0.505-0.118-0.87-0.352-1.093c-0.234-0.224-0.621-0.181-1.159,0.13
				c-0.299,0.173-0.552,0.365-0.755,0.576c-0.205,0.212-0.392,0.425-0.561,0.643c-0.171,0.217-0.275,0.338-0.314,0.361
				c-0.1,0.058-0.22-0.02-0.359-0.232c-0.14-0.211-0.209-0.417-0.209-0.617c0-0.332,0.262-0.762,0.785-1.29
				c0.523-0.529,1.063-0.954,1.622-1.276c0.877-0.506,1.573-0.601,2.086-0.287c0.514,0.315,0.771,1.011,0.771,2.088
				c0,0.718-0.138,1.395-0.411,2.031c-0.275,0.637-0.636,1.205-1.085,1.703v0.079c0.529-0.092,0.968,0.08,1.316,0.517
				c0.35,0.436,0.523,1.14,0.523,2.11c0,0.878-0.137,1.708-0.411,2.49c-0.273,0.783-0.65,1.472-1.129,2.068
				c-0.479,0.596-1.017,1.065-1.615,1.411C323.996,72.892,323.562,73.086,323.133,73.22z"/>
			<path style="fill:#37474F;" d="M328.801,69.519v-1.455c0-0.332,0.219-0.625,0.658-0.878l0.329-0.19
				c0.438-0.253,0.658-0.214,0.658,0.118v1.455c0,0.333-0.221,0.626-0.658,0.879l-0.329,0.19
				C329.02,69.892,328.801,69.852,328.801,69.519z"/>
			<path style="fill:#37474F;" d="M331.613,67.896v-1.455c0-0.332,0.219-0.625,0.658-0.878l0.328-0.19
				c0.438-0.253,0.658-0.214,0.658,0.118v1.455c0,0.333-0.22,0.626-0.658,0.879l-0.328,0.19
				C331.832,68.269,331.613,68.229,331.613,67.896z"/>
			<path style="fill:#37474F;" d="M334.423,66.273v-1.455c0-0.332,0.22-0.625,0.658-0.878l0.329-0.19
				c0.439-0.253,0.658-0.214,0.658,0.118v1.455c0,0.333-0.22,0.626-0.658,0.879l-0.329,0.19
				C334.643,66.646,334.423,66.606,334.423,66.273z"/>
		</g>
	</g>
</g>
</svg>
