<?xml version="1.0" encoding="utf-8"?>
<!-- Generator: Adobe Illustrator 27.5.0, SVG Export Plug-In . SVG Version: 6.00 Build 0)  -->
<svg version="1.1" xmlns="http://www.w3.org/2000/svg" xmlns:xlink="http://www.w3.org/1999/xlink" x="0px" y="0px"
	 viewBox="0 0 500 500" style="enable-background:new 0 0 500 500;" xml:space="preserve">
<g id="BACKGROUND">
	<rect x="-0.002" y="0.001" style="fill:#FFFFFF;" width="500" height="500"/>
</g>
<g id="OBJECTS">
	<g>
		<defs>
			<rect id="SVGID_1_" x="0.002" y="-0.001" width="500" height="500"/>
		</defs>
		<clipPath id="SVGID_00000044157232212152867840000004123271212842072972_">
			<use xlink:href="#SVGID_1_"  style="overflow:visible;"/>
		</clipPath>
		<g style="clip-path:url(#SVGID_00000044157232212152867840000004123271212842072972_);">
			<rect x="417.292" y="-97.529" style="fill:#DDD0EF;" width="7.778" height="293.673"/>
			<rect x="286.44" y="-97.529" style="fill:#DDD0EF;" width="7.778" height="293.673"/>
			
				<rect x="352.577" y="-131.643" transform="matrix(-1.836970e-16 1 -1 -1.836970e-16 292.8089 -420.1228)" style="fill:#DDD0EF;" width="7.778" height="135.973"/>
			
				<rect x="352.577" y="-86.348" transform="matrix(-1.836970e-16 1 -1 -1.836970e-16 338.1039 -374.8277)" style="fill:#DDD0EF;" width="7.778" height="135.973"/>
			
				<rect x="351.662" y="-41.968" transform="matrix(-1.836970e-16 1 -1 -1.836970e-16 381.5689 -329.5326)" style="fill:#DDD0EF;" width="7.778" height="135.973"/>
			
				<rect x="351.204" y="1.954" transform="matrix(-1.836970e-16 1 -1 -1.836970e-16 425.0339 -285.1526)" style="fill:#DDD0EF;" width="7.778" height="135.973"/>
			
				<rect x="351.204" y="46.792" transform="matrix(-1.836970e-16 1 -1 -1.836970e-16 469.8714 -240.315)" style="fill:#DDD0EF;" width="7.778" height="135.973"/>
			
				<rect x="351.204" y="93.002" transform="matrix(-1.836970e-16 1 -1 -1.836970e-16 516.0816 -194.1049)" style="fill:#DDD0EF;" width="7.778" height="135.973"/>
		</g>
	</g>
	<polygon style="fill:#DDD0EF;" points="499.998,188.521 499.998,500.001 -0.002,500.001 -0.002,191.701 	"/>
	<g>
		<path style="fill:#2D2A2A;" d="M483.472,191.77c-4.161,0.027-8.323,0.055-12.484,0.082c-11.224,0.074-22.448,0.148-33.672,0.222
			c-16.706,0.11-33.412,0.221-50.118,0.331c-20.243,0.134-40.485,0.267-60.728,0.401c-22.322,0.147-44.645,0.295-66.967,0.442
			c-22.38,0.148-44.76,0.295-67.14,0.443c-21.01,0.139-42.02,0.277-63.03,0.416c-17.636,0.116-35.271,0.233-52.907,0.349
			c-12.769,0.084-25.538,0.168-38.307,0.253c-6.007,0.04-12.024-0.025-18.03,0.119c-0.262,0.006-0.526,0.003-0.788,0.005
			c-0.482,0.003-0.483,0.753,0,0.75c4.161-0.027,8.323-0.055,12.484-0.082c11.224-0.074,22.448-0.148,33.672-0.222
			c16.706-0.11,33.412-0.221,50.118-0.331c20.243-0.134,40.485-0.267,60.728-0.401c22.322-0.147,44.645-0.295,66.967-0.442
			c22.38-0.148,44.76-0.296,67.14-0.443c21.01-0.139,42.02-0.277,63.03-0.416c17.636-0.116,35.271-0.233,52.907-0.349
			c12.769-0.084,25.538-0.169,38.307-0.253c6.007-0.04,12.024,0.025,18.03-0.119c0.263-0.006,0.526-0.003,0.788-0.005
			C483.955,192.516,483.956,191.766,483.472,191.77L483.472,191.77z"/>
	</g>
	<g>
		<path style="fill:#9F75CC;" d="M145.2,76.529c0,0,0.781-2.929-1.172-5.664c-1.953-2.734-3.32-9.179-3.906-15.819
			c-0.586-6.64,2.929-10.351,6.054-14.647c3.125-4.297,2.539-4.687,1.172-6.64s-3.906-0.977-5.859,1.758
			c-1.953,2.734-2.734,3.711-2.734,3.711s-3.711,4.687-3.906,8.984s-0.195,14.647,1.172,18.553
			C137.388,70.671,141.902,78.352,145.2,76.529z"/>
		<path style="fill:#9F75CC;" d="M144.419,76.92c0,0-6.944-5.598-8.311-12.434c-1.367-6.835-2.734-18.944-2.539-21.287
			c0.195-2.343,8.593-9.765,7.226-11.718c-1.367-1.953-3.515-2.148-4.882-1.367c-1.367,0.781-8.593,8.007-8.984,13.475
			c-0.391,5.468,0.586,22.068,2.539,25.584c1.953,3.515,8.398,10.155,10.351,11.132L144.419,76.92z"/>
		<path style="fill:#DDD0EF;" d="M240.168,165.584c0,0-5.273-5.468-11.522-6.445c-6.249-0.976-42.24-0.644-56.301,4.825
			c-14.061,5.468-29.238,17.049-29.434,31.501c-0.195,14.452,6.054,22.264,6.054,22.264l8.007,6.25L240.168,165.584z"/>
		<polygon style="fill:#9F75CC;" points="141.909,227.117 142.187,222.854 255.401,221.847 258.721,228.096 258.331,234.541 
			145.645,235.127 		"/>
		<g>
			<path style="fill:#2D2A2A;" d="M141.963,222.684c1.172,2.995,2.344,5.989,3.515,8.984c0.061,0.155,0.184,0.277,0.362,0.275
				c3.695-0.026,7.39-0.052,11.086-0.078c8.872-0.062,17.744-0.124,26.617-0.187c10.689-0.075,21.378-0.15,32.067-0.225
				c9.278-0.065,18.557-0.13,27.835-0.195c3.067-0.021,6.134-0.043,9.201-0.065c1.382-0.01,2.956,0.189,4.325-0.03
				c0.06-0.01,0.128-0.001,0.189-0.001c0.482-0.003,0.483-0.753,0-0.75c-3.695,0.026-7.391,0.052-11.086,0.078
				c-8.872,0.062-17.744,0.125-26.617,0.187c-10.689,0.075-21.378,0.15-32.067,0.225c-9.279,0.065-18.557,0.13-27.835,0.195
				c-3.067,0.021-6.134,0.043-9.201,0.065c-0.935,0.007-1.87,0.013-2.804,0.02c-0.394,0.003-1.151-0.142-1.52,0.011
				c-0.046,0.019-0.136,0.001-0.189,0.001c0.12,0.092,0.241,0.184,0.362,0.275c-1.172-2.995-2.344-5.989-3.515-8.984
				C142.513,222.04,141.787,222.234,141.963,222.684L141.963,222.684z"/>
		</g>
		<path style="fill:#DDD0EF;" d="M147.011,208.551c0.306,0.943,0.622,1.841,0.943,2.692c1.509,4.023,3.182,7.058,5.094,9.383
			c4.391,5.344,10.056,6.956,17.985,8.236c12.106,1.953,56.048,2.147,64.839,0.581c8.786-1.56,9.373-11.52,9.566-14.645
			c0.199-3.126-0.194-10.153-0.194-10.153s0-1.285-0.026-3.376c-0.066-5.059-0.28-14.839-1.03-22.478
			c-0.459-4.707-1.122-8.598-2.07-10.081c-3.126-4.885-3.32-5.079-12.499-6.053c-9.179-0.979-50.581,2.927-63.079,11.132
			C154.043,181.989,141.932,192.927,147.011,208.551z"/>
		<path style="fill:#9F75CC;" d="M209.617,211.925c0,0-4.687-15.884-4.296-18.097c0.391-2.213,2.734-2.474,4.036-0.781
			s3.776,20.181,3.776,20.181l-3.125,0.521L209.617,211.925z"/>
		<polygon style="fill:#2D2A2A;" points="198.51,214.316 198.675,209.219 221.034,208.89 220.87,214.645 198.51,214.973 		"/>
		<g>
			<path style="fill:#2D2A2A;" d="M148.316,211.144c-0.866-2.879-1.324-5.934-1.538-8.924c-0.324-4.527-0.034-9.341,1.89-13.517
				c2.692-5.84,7.716-10.536,12.98-14.066c8.061-5.407,17.525-8.468,27.089-9.803c6.118-0.854,12.353-1.186,18.524-1.37
				c4.923-0.147,9.859-0.119,14.773,0.231c4.028,0.287,8.072,0.771,11.993,1.762c2.545,0.643,5.14,1.485,7.318,2.99
				c0.398,0.275,0.773-0.375,0.379-0.648c-4.692-3.243-11.128-4.027-16.643-4.592c-10.936-1.12-22.089-0.59-33.006,0.481
				c-10.113,0.993-20.198,3.773-28.92,9.094c-5.757,3.512-11.223,8.238-14.479,14.236c-2.21,4.07-2.862,8.74-2.742,13.327
				c0.096,3.672,0.597,7.47,1.658,10.998C147.732,211.805,148.456,211.608,148.316,211.144L148.316,211.144z"/>
		</g>
		<path style="fill:#9F75CC;" d="M161.357,170.729c0,0,3.906,1.302,6.51-4.166c0,0-16.665-30.987-17.707-34.632
			c-1.042-3.646-5.989-59.63-5.989-59.63l-7.031,0.26c0,0,4.427,48.954,6.51,59.11C145.734,141.825,161.357,170.729,161.357,170.729
			z"/>
		<path style="fill:#9F75CC;" d="M219.868,159.27c0,0,0.781,3.13,4.947,2.846c4.166-0.285,4.166-2.846,4.166-2.846l16.145-53.496
			l-7.551-0.569L219.868,159.27z"/>
		<path style="fill:#9F75CC;" d="M223.869,101.015c0,0-2.083,4.427-0.26,6.51c1.823,2.083,30.466,2.864,32.029,1.562
			c1.562-1.302,4.687-9.635,2.083-13.801c-2.604-4.166-4.166-5.468-13.28-3.646C235.326,93.463,225.431,96.067,223.869,101.015z"/>
		<g>
			<path style="fill:#2D2A2A;" d="M142.536,195.465c-0.221,4.366,0.305,8.927,1.438,13.139c0.86,3.198,2.181,6.356,4.318,8.919
				c2.814,3.376,6.431,6.284,10.327,8.313c3.861,2.011,8.083,3.103,12.416,3.401c0.482,0.033,0.48-0.717,0-0.75
				c-8.415-0.579-15.798-4.516-21.489-10.679c-4.351-4.712-5.757-11.491-6.173-17.707c-0.103-1.538-0.164-3.095-0.086-4.636
				C143.31,194.982,142.56,194.984,142.536,195.465L142.536,195.465z"/>
		</g>
		<g>
			<path style="fill:#2D2A2A;" d="M245.287,193.099c0.09,3.726,0.105,7.455,0.062,11.181c-0.056,4.865,0.201,10.207-1.279,14.897
				c-0.534,1.692-0.906,3.49-1.732,5.073c-0.955,1.829-2.564,2.945-4.436,3.721c-0.439,0.182-0.247,0.908,0.199,0.723
				c3.06-1.269,4.807-3.262,5.807-6.388c0.749-2.339,1.446-4.611,1.702-7.056c0.607-5.78,0.542-11.656,0.494-17.461
				c-0.013-1.563-0.031-3.127-0.069-4.69C246.025,192.617,245.275,192.615,245.287,193.099L245.287,193.099z"/>
		</g>
	</g>
	<g>
		<g>
			<path style="fill:#DDD0EF;" d="M408.634,104.487c22.453-1.592,40.585,4.107,52.213,18.571
				c19.647,24.439,16.44,60.986-3.934,77.425c-20.375,16.439-54.865,15.996-74.259,4.613c-26.979-15.836-27.231-45.02-22.767-62.618
				S382.417,106.345,408.634,104.487z"/>
			<g>
				<path style="fill:#2D2A2A;" d="M461.43,194.774c-1.389,3.191-4.288,5.924-6.948,8.037c-7.242,5.751-16.253,8.608-25.388,9.27
					c-2.71,0.196-5.46,0.285-8.174,0.113c-0.482-0.031-0.48,0.72,0,0.75c6.892,0.437,14.31-0.234,20.844-2.5
					c6.893-2.39,13.7-6.265,18.257-12.092c0.77-0.984,1.555-2.047,2.058-3.201C462.268,194.715,461.622,194.333,461.43,194.774
					L461.43,194.774z"/>
			</g>
		</g>
		<path style="fill:#9F75CC;" d="M367.314,133.352c22.738-1.644,41.103,4.293,52.885,19.341
			c19.91,25.429,16.681,63.437-3.944,80.524c-20.625,17.087-55.554,16.609-75.199,4.759c-27.33-16.484-27.6-46.838-23.088-65.138
			C322.48,154.539,340.766,135.271,367.314,133.352z"/>
	</g>
	<g>
		<path style="fill:#DDD0EF;" d="M65.268,73.502l-1.264,132.73c0,0,5.688,6.952,23.386,7.585
			c17.697,0.632,22.122-7.585,22.122-7.585l0.632-133.994c0,0-8.849-10.113-22.754-8.217C73.485,65.917,67.797,68.446,65.268,73.502
			z"/>
		<path style="fill:#9F75CC;" d="M33.666,98.784l-4.424,117.561c0,0,3.16,6.32,22.754,6.32c12.704,0,21.49-5.688,21.49-5.688
			l3.16-120.721c0,0-8.217-8.849-25.282-6.952C34.298,91.199,33.666,98.784,33.666,98.784z"/>
		<g>
			<path style="fill:#2D2A2A;" d="M76.284,96.355c0.379,1.69,0.31,3.573-0.026,5.257c-0.796,3.989-3.558,6.941-7.359,8.317
				c-3.136,1.136-6.547,1.279-9.851,1.295c-3.762,0.018-7.538-0.294-11.233-1.014c-3.086-0.602-6.19-1.465-8.996-2.908
				c-1.985-1.021-4.18-2.467-5.013-4.646c-1.67-4.367,3.449-7.64,6.793-9.016c4.727-1.945,10.084-2.585,15.16-2.221
				c4.732,0.339,10.503,1.709,13.099,6.131c3.377,5.753-8.018,7.04-11.262,7.157c-3.394,0.122-7.015-0.111-10.225-1.304
				c-1.915-0.712-4.754-2.48-3.023-4.822c1.255-1.697,4.081-2.098,6.016-2.269c2.41-0.214,4.991-0.094,7.293,0.704
				c0.854,0.296,1.694,0.701,2.289,1.401c0.313,0.368,0.841-0.164,0.53-0.53c-1.387-1.631-3.935-2.066-5.94-2.284
				c-2.648-0.289-5.545-0.166-8.069,0.755c-1.738,0.635-3.614,1.943-3.383,4.047c0.263,2.387,3.204,3.504,5.166,4.073
				c3.64,1.055,7.631,1.213,11.385,0.844c2.893-0.284,6.15-0.83,8.576-2.549c4.981-3.529-0.74-8.751-4.467-10.337
				c-5.213-2.219-11.387-2.245-16.891-1.309c-4.583,0.779-10.366,2.461-13.045,6.622c-2.979,4.627,1.162,8.546,5.177,10.473
				c6.998,3.359,15.438,4.083,23.088,3.664c5.269-0.289,11.047-1.717,13.726-6.737c1.359-2.547,1.733-5.606,1.303-8.444
				c-0.028-0.183-0.056-0.367-0.096-0.549C76.901,95.685,76.178,95.884,76.284,96.355L76.284,96.355z"/>
		</g>
		<g>
			<path style="fill:#2D2A2A;" d="M109.82,72.427c0.569,1.084,0.731,2.618,0.442,3.86c-0.887,3.807-5.395,5.319-8.744,6.047
				c-4.028,0.875-8.21,0.986-12.317,0.94c-3.747-0.042-7.514-0.293-11.197-1.007c-3.883-0.753-8.584-2.016-11.201-5.242
				c-0.655-0.807-1.174-1.8-1.203-2.859c-0.042-1.503,1.525-2.261,2.705-2.83c5.353-2.582,11.946-3.362,17.817-3.332
				c3.071,0.016,6.224,0.305,9.134,1.343c1.865,0.665,7.468,2.677,6.64,5.627c-0.663,2.362-4.474,3.036-6.475,3.343
				c-3.014,0.463-6.105,0.535-9.149,0.453c-2.924-0.079-5.934-0.271-8.769-1.04c-1.436-0.389-4.507-1.637-2.138-3.225
				c2.445-1.639,6.163-1.732,8.988-1.745c1.727-0.008,3.468,0.099,5.168,0.413c0.423,0.078,3.773,0.597,3.66,1.351
				c-0.036,0.235-0.633,0.443-0.832,0.511c-0.454,0.155-0.259,0.88,0.199,0.723c0.929-0.317,2.002-1.207,0.928-2.084
				c-1.227-1.002-3.342-1.191-4.842-1.397c-1.925-0.264-3.878-0.324-5.817-0.226c-1.752,0.088-3.525,0.292-5.224,0.745
				c-1.143,0.305-2.476,0.73-3.305,1.627c-1.442,1.561,0.137,2.967,1.606,3.565c2.814,1.144,6.101,1.341,9.1,1.483
				c3.531,0.167,7.126,0.104,10.625-0.433c2.292-0.352,5.767-1.091,6.852-3.477c1.117-2.457-1.758-4.449-3.578-5.431
				c-6.645-3.585-14.716-3.337-21.954-2.076c-3.094,0.539-6.272,1.285-9.107,2.677c-1.33,0.653-2.931,1.564-2.981,3.219
				c-0.098,3.182,3.106,5.485,5.632,6.722c6.686,3.272,14.842,3.498,22.122,3.327c3.978-0.093,8.103-0.399,11.891-1.712
				c1.99-0.689,3.999-1.709,5.32-3.402c1.404-1.8,1.721-4.28,0.85-6.392c-0.062-0.15-0.121-0.303-0.197-0.448
				C110.243,71.621,109.596,72,109.82,72.427L109.82,72.427z"/>
		</g>
		<g>
			<path style="fill:#2D2A2A;" d="M108.922,197.929c0.072,2.768,0.143,5.535,0.215,8.303c0.092-0.12,0.184-0.241,0.275-0.362
				c-3.493,1.168-7.073,2.129-10.668,2.92c-2.901,0.639-5.849,1.175-8.82,1.327c-3.48,0.179-7.012-0.035-10.487-0.245
				c-1.908-0.115-3.82-0.249-5.72-0.459c-0.479-0.053-0.475,0.698,0,0.75c5.094,0.561,10.308,0.856,15.43,0.734
				c5.509-0.132,11.028-1.535,16.302-3.035c1.395-0.397,2.788-0.809,4.163-1.269c0.154-0.051,0.28-0.191,0.275-0.362
				c-0.072-2.768-0.143-5.535-0.215-8.303C109.659,197.447,108.909,197.445,108.922,197.929L108.922,197.929z"/>
		</g>
	</g>
	<g>
		<path style="fill:#9F75CC;" d="M450.609,403.522c0,0,21.328,49.487,19.855,51.058c-1.473,1.571-441.118,1.571-441.118,1.571
			s22.093-49.487,25.038-50.272C57.329,405.093,450.609,403.522,450.609,403.522z"/>
		<path style="fill:#FC8A2D;" d="M102.365,390.936c0,0-12.124-2.144-17.821,0.829s-55.243,13.934-51.461,25.763
			c2.097,6.559,25.134,6.175,38.657,6.562c13.522,0.387,42.358-0.852,42.358-0.852L102.365,390.936z"/>
		<g>
			<path style="fill:#2D2A2A;" d="M101.242,391.917c-8.265,2.936-16.602,5.686-24.98,8.28c-11.566,3.582-23.578,6.482-34.524,11.787
				c-2.947,1.428-5.729,3.346-6.875,6.619c-0.16,0.457,0.565,0.653,0.723,0.199c1.03-2.944,3.557-4.701,6.194-6.007
				c4.59-2.273,9.481-3.979,14.325-5.617c6.374-2.154,12.852-3.952,19.281-5.928c5.739-1.764,11.449-3.622,17.138-5.54
				c2.978-1.004,5.953-2.019,8.915-3.071C101.893,392.48,101.699,391.755,101.242,391.917L101.242,391.917z"/>
		</g>
		<g>
			<path style="fill:#2D2A2A;" d="M85.334,424.506c-0.483-4.227-0.966-8.453-1.449-12.68c-0.07-0.608-0.139-1.217-0.209-1.825
				c-0.054-0.474-0.805-0.479-0.75,0c0.483,4.227,0.966,8.454,1.449,12.68c0.069,0.608,0.139,1.217,0.209,1.825
				C84.638,424.98,85.389,424.985,85.334,424.506L85.334,424.506z"/>
		</g>
		<g>
			<path style="fill:#2D2A2A;" d="M75.387,424.92c0-4.115,0-8.23,0-12.345c0-0.582,0-1.164,0-1.746c0-0.483-0.75-0.483-0.75,0
				c0,4.115,0,8.23,0,12.345c0,0.582,0,1.164,0,1.746C74.637,425.403,75.387,425.403,75.387,424.92L75.387,424.92z"/>
		</g>
		<g>
			<path style="fill:#2D2A2A;" d="M100.293,414.598c-5.328,0.214-10.654,0.473-15.978,0.77c-3.964,0.221-7.928,0.461-11.885,0.781
				c-2.521,0.204-5.17,0.297-7.639,0.89c-3.316,0.797-5.41,4.142-5.889,7.367c-0.07,0.472,0.652,0.676,0.723,0.199
				c0.444-2.991,2.31-6.127,5.41-6.853c2.47-0.579,5.108-0.671,7.627-0.872c7.344-0.587,14.707-0.95,22.066-1.289
				c1.855-0.085,3.71-0.169,5.565-0.243C100.774,415.329,100.777,414.579,100.293,414.598L100.293,414.598z"/>
		</g>
		<path style="fill:#FC8A2D;" d="M363.089,305.874c0,0,5.079,3.127,2.98,5.733c-2.099,2.607-5.476,2.362-7.465,0.52
			c-1.989-1.842-4.699-5.434-4.699-5.434L363.089,305.874z"/>
		<path style="fill:#6E369E;" d="M98.731,380.528c0,0,0.435,46.133,3.047,47.874c2.611,1.741,71.811-0.87,71.811-0.87
			l-12.621-49.615L98.731,380.528z"/>
		<path style="fill:#FC8A2D;" d="M270.666,218.767c0,0,16.677,19.125,22.543,25.131c5.866,6.006,17.598,18.018,17.598,18.018
			l-25.502,18.488l-36.047-40.866L270.666,218.767z"/>
		<path style="fill:#6E369E;" d="M244.339,197.733c0,0,11.215,1.246,16.2,7.477c4.985,6.231,25.131,20.977,25.131,24.093
			s-5.816,6.439-16.408,12.669c-10.592,6.231-20.562,5.608-20.562,5.608L244.339,197.733z"/>
		<path style="fill:#6E369E;" d="M267.376,308.5c0,0,24.155,43.086,32.641,72.463c8.487,29.377,0,41.128-12.404,43.739
			s-54.837,3.264-54.837,3.264l-1.306-118.161L267.376,308.5z"/>
		<path style="fill:#6E369E;" d="M250.57,213.31c0,0,6.854,15.577,6.854,23.677s-3.115,11.839-3.115,11.839
			s6.231,36.762,4.362,36.762c-1.869,0-30.531,0.623-49.224-0.623c-18.693-1.246-26.17-1.869-26.17-1.869s4.985-44.239,5.608-46.731
			c0.623-2.492,37.57-39.937,37.57-39.937s12.9,13.767,16.639,18.129c3.738,4.362,3.738,4.362,3.738,4.362l-2.492-16.823
			C244.339,202.095,248.077,209.572,250.57,213.31z"/>
		<path style="fill:#FC8A2D;" d="M103.738,307.463c0,0-5.079,3.127-2.98,5.733c2.099,2.607,5.476,2.362,7.465,0.52
			s4.699-5.434,4.699-5.434L103.738,307.463z"/>
		<path style="fill:#FC8A2D;" d="M200.95,238.764c-0.176-2.111-26.568-15.687-26.568-15.687s-35.406,36.143-35.46,37.456
			c0,0-14.422,19.448-17.745,29.417c-3.323,9.969-3.323,11.631-3.323,11.631s29.077,6.231,30.739,5.4
			c1.378-0.689,16.885-24.707,20.435-33.306C180.55,262.301,201.08,240.327,200.95,238.764z"/>
		<polygon style="fill:#FC8A2D;" points="251.722,192.192 241.672,205.533 226.454,196.428 236.262,182.726 		"/>
		<path style="fill:#2D2A2A;" d="M259.453,175.721c0.617-0.086,8.387-4.523,2.825-9.83c-5.562-5.307-16.517-5.668-30.037-3.365
			c-13.519,2.303-16.544,6.184-18.174,12.545c-1.331,5.192,1.695,16.802,6.703,21.137c5.008,4.335,16.459-11.048,17.43-11.603
			C239.172,184.051,259.453,175.721,259.453,175.721z"/>
		<path style="fill:#FC8A2D;" d="M263.218,398.617c-0.402,1.822-0.86,3.595-1.361,5.306c-1.22,4.12-2.7,7.88-4.392,11.144
			c-3.299,6.342-8.897,11.876-15.989,16.375c-1.036,0.662-2.115,1.297-3.215,1.911c-8.834,4.92-19.571,8.363-30.9,9.957
			c-1.255,0.172-2.524,0.324-3.793,0.455c-7.269,0.745-14.72,0.725-22.024-0.159c-9.017-1.09-17.886-3.264-26.022-6.7
			c-1.128-0.469-2.235-0.966-3.328-1.497c-18.471-8.819-32.557-24.662-34.919-49.848c-0.31-3.312-0.465-6.5-0.472-9.55
			c-0.007-1.58,0.028-3.133,0.106-4.644c0.712-14.663,4.984-26.166,11.611-35.178c0.733-1.001,1.495-1.967,2.284-2.905
			c5.985-7.114,13.536-12.524,21.919-16.623c22.49-11.006,60.806-7.846,60.806-7.846s10.455-0.621,22.919,7.452
			c0.966,0.628,1.946,1.304,2.94,2.043c4.244,3.167,8.65,7.383,12.887,12.993c2.778,3.671,5.069,7.728,6.916,12.034
			c0.374,0.862,0.726,1.732,1.057,2.615c1.904,4.961,3.25,10.213,4.11,15.56c0.275,1.677,0.5,3.367,0.677,5.058
			C266.2,377.626,265.418,388.853,263.218,398.617z"/>
		<path style="fill:#FC8A2D;" d="M374.622,307.444c4.299,30.596,4.297,30.596,8.64,61.29c4.05,28.62,5.4,52.11,9.99,56.7
			s11.88,4.32,11.88,4.32l-9.45-122.58L374.622,307.444z"/>
		<path style="fill:#FFFFFF;" d="M82.352,268.594c0,0-3.375-4.725-8.37-4.725s-5.94,4.32-6.615,8.505
			c-0.675,4.185-0.54,12.015-0.54,12.015l13.5,0.945L82.352,268.594z"/>
		<path style="fill:#6E369E;" d="M101.927,273.319c0,0-9.18-4.59-13.635-4.995s-7.02,0.135-7.02,0.135l-3.375,13.905l22.815,1.62
			L101.927,273.319z"/>
		<path style="fill:#FFFFFF;" d="M81.189,275.564c0,0-6.713-6.482-11.112-6.019c-4.398,0.463-4.861,3.704-5.093,13.89
			c-0.231,10.186-0.695,18.057-3.936,28.474c-3.241,10.417-4.63,23.15-3.241,31.252c1.389,8.102,2.315,10.417,6.945,9.26
			c4.63-1.158,4.167-4.861,4.167-4.861L81.189,275.564z"/>
		<path style="fill:#6E369E;" d="M100.172,279.267c0,0-8.334-4.167-14.121-4.63c-5.787-0.463-6.945-0.232-6.945-0.232
			s-7.176,26.853-10.186,39.586c-3.01,12.732-5.324,31.715-4.398,33.335c0.926,1.621,3.472,3.009,7.639-0.463
			c4.167-3.472,9.26-13.427,15.279-24.539c6.019-11.112,8.334-14.121,8.334-14.121h3.704L100.172,279.267z"/>
		<g>
			<path style="fill:#2D2A2A;" d="M95.006,300.09c-2.391,4.121-4.749,8.261-7.083,12.414c-3.189,5.673-6.609,11.352-9.225,17.321
				c-0.972,2.218-1.251,5.458,1.285,6.777c0.428,0.222,0.807-0.425,0.379-0.648c-2.427-1.262-1.685-4.31-0.77-6.297
				c1.138-2.473,2.438-4.874,3.729-7.27c3.21-5.958,6.549-11.847,9.914-17.718c0.803-1.402,1.608-2.803,2.419-4.201
				C95.896,300.05,95.248,299.672,95.006,300.09L95.006,300.09z"/>
		</g>
		<path style="fill:#9F75CC;" d="M95.119,309.753c0,0-8.421-7.158-10.316-5.263c-1.895,1.895,0.842,3.368,0.842,3.368l7.789,4.842
			C93.435,312.7,96.593,311.647,95.119,309.753z"/>
		<path style="fill:#9F75CC;" d="M90.277,317.331c0,0-6.526-5.474-8.421-4.632c-1.895,0.842-1.263,2.105-0.632,2.947
			c0.632,0.842,7.579,4.842,7.579,4.842S91.119,318.805,90.277,317.331z"/>
		<path style="fill:#9F75CC;" d="M85.646,325.752c0,0-5.053-5.053-7.579-4.632c-2.526,0.421-2.105,2.947-0.632,4
			c1.474,1.053,6.526,4.632,6.526,4.632S86.698,326.595,85.646,325.752z"/>
		<path style="fill:#FC8A2D;" d="M415.941,414.784c0,0,5.153,2.35,14.554,3.164s17.809,0.994,19.888,3.526s1.627,3.254,1.627,3.254
			s1.085,3.435,0.362,4.52c-0.723,1.085-1.356,1.175-1.356,1.175s-0.181,2.079-2.802,2.441c-2.622,0.362-5.424-0.181-5.424-0.181
			s-0.181,1.627-2.17,2.441c-1.989,0.814-10.667,0.542-20.702,0.09c-10.034-0.452-15.187,0.362-19.526-1.718
			s-4.882-6.69-5.786-9.763c-0.904-3.074-0.904-8.407-0.904-8.407l22.419-0.904"/>
		<path style="fill:#FC8A2D;" d="M412.692,268.248c0,0-5.13,17.01-6.48,19.17s-3.78-25.11-3.78-25.11L412.692,268.248z"/>
		<path style="fill:#FFFFFF;" d="M291.348,254.693c0,0-9.075,1.851-15.613,4.513c-2.75,1.119-7.705,5.298-7.705,5.298
			s-9.557-0.462-12.369-0.49c-19.669-0.196-32.664-0.475-53.34-0.071c-20.676,0.404-45.658-1.614-66.765-2.018
			c-21.106-0.404-32.306,4.035-34.029,5.649s-0.862,16.544-0.862,16.544l181.342,3.228L291.348,254.693z"/>
		<path style="fill:#FC8A2D;" d="M349.242,262.742l-13.5,1.177l2.97,45.034c0,0,2.97,2.06,17.28-0.883L349.242,262.742z"/>
		<polygon style="fill:#FC8A2D;" points="421.043,263.174 410.234,271.218 398.922,255.633 410.234,251.234 418.026,251.485 		"/>
		<path style="fill:#FFFFFF;" d="M401.352,253.618c0,0,4.86,2.943,7.02,12.362c2.16,9.419-1.62,32.672-1.62,32.672
			s-5.67,12.657-17.28,13.54c-11.61,0.883-13.77-4.415-13.77-4.415l-24.3,1.766c0,0-0.54-5.298-1.35-17.955
			c-0.81-12.657-1.89-29.728-1.89-29.728s18.36-2.06,28.62-5.004C387.042,253.912,399.462,253.029,401.352,253.618z"/>
		<path style="fill:#2D2A2A;" d="M435.242,244.463c0,0,3.418-3.589-1.196-8.375c-4.615-4.786-17.263-2.906-17.263-2.906
			s-13.307,1.824-15.7,11.396c-2.393,9.572,10.06,9.798,10.06,9.798L435.242,244.463z"/>
		<path style="fill:#FC8A2D;" d="M434.449,243.064c0,0,0.754,2.095,1.424,4.776c0.519,2.077,0.754,2.681,0.754,2.681
			s2.556,2.179,2.43,3.687c-0.126,1.508-2.262,1.927-2.262,1.927s1.089,7.248,0.084,9.384c-1.005,2.137-3.519,3.519-8.547,3.016
			c-5.027-0.503-11.563-5.027-11.563-5.027l-2.514-7.206c0,0-5.374-0.052-6.033-3.017c-0.503-2.262,0-5.153,2.891-5.53
			c3.691-0.481,5.53,1.257,5.53,1.257l1.382,0.964c0,0,4.022-1.257,9.301-3.268C432.606,244.698,434.449,243.064,434.449,243.064z"
			/>
		<g>
			<path style="fill:#2D2A2A;" d="M414.156,255.942c-0.032,0.006-0.064,0.011-0.096,0.016c-0.105,0.019,0.07-0.006-0.026,0.004
				c-0.052,0.005-0.105,0.012-0.158,0.016c-0.309,0.028-0.62,0.03-0.929,0.009c-0.906-0.06-1.807-0.355-2.551-0.896
				c-0.567-0.412-1.008-0.967-1.348-1.575c-0.236-0.421-0.884-0.044-0.648,0.379c0.639,1.143,1.61,2.024,2.838,2.488
				c0.799,0.302,1.686,0.414,2.537,0.353c0.193-0.014,0.389-0.033,0.579-0.071C414.828,256.569,414.628,255.846,414.156,255.942
				L414.156,255.942z"/>
		</g>
		<g>
			<path style="fill:#2D2A2A;" d="M415.837,252.26c-0.751-1.157-1.817-2.21-2.999-2.918c-0.516-0.31-1.079-0.553-1.667-0.689
				c-0.47-0.109-0.67,0.614-0.199,0.723c1.186,0.276,2.2,1.008,3.047,1.859c0.177,0.178,0.348,0.362,0.512,0.551
				c0.071,0.082,0.14,0.164,0.208,0.248c0.031,0.038,0.061,0.076,0.092,0.114c0.009,0.011,0.096,0.123,0.044,0.055
				c0.109,0.142,0.217,0.286,0.314,0.436C415.451,253.042,416.1,252.666,415.837,252.26L415.837,252.26z"/>
		</g>
		<g>
			<path style="fill:#2D2A2A;" d="M434.098,245.3c-0.532,0.138-1.055,0.324-1.567,0.524c-1.072,0.418-2.117,0.927-3.048,1.609
				c-0.163,0.119-0.244,0.325-0.135,0.513c0.094,0.161,0.349,0.255,0.513,0.135c1.304-0.956,2.87-1.651,4.435-2.057
				C434.765,245.902,434.567,245.179,434.098,245.3L434.098,245.3z"/>
		</g>
		<path style="fill:#2D2A2A;" d="M432.777,247.826c-1.335,0-1.337,3.115,0,3.115C434.112,250.941,434.114,247.826,432.777,247.826z"
			/>
		<path style="fill:#2D2A2A;" d="M422.641,233.276c0,0,7.127-1.989,7.79-8.785c0.663-6.796-4.144-16.077-13.757-13.923
			c-9.613,2.155-13.591,12.597-10.608,18.232c2.983,5.635,10.608,5.801,10.608,5.801L422.641,233.276z"/>
		<path style="fill:#FC8A2D;" d="M379.212,316.154c-0.865-11.708-7.56-46.623,1.62-54.576c7.553-6.544,17.28-4.388,21.87,2.742
			c4.59,7.131,4.86,35.653,6.48,50.188s9.72,100.102,10.26,101.748l-25.92,0.823c0,0-8.91-53.479-10.26-68.015
			C381.912,334.529,380.022,327.125,379.212,316.154z"/>
		<path style="fill:#FFFFFF;" d="M337.574,261.52l-9.362,0.358c0,0-8.277-8.091-26.989-8.428
			c-18.713-0.337-36.346,16.181-36.346,16.181s-13.435,0.899-42.223,0.899c-28.789,0-51.34-2.247-77.729-1.798
			c-26.39,0.449-42.044,0.617-46.842,6.91c0,0-3.359,29.779-0.48,32.027c2.879,2.247,11.015,0.797,31.493,2.977
			c28.429,3.026,55.177,4.402,81.087,5.75c25.91,1.348,76.08-1.492,99.111-2.841c23.031-1.348,30.111-3.817,30.111-3.817
			L337.574,261.52z"/>
		<g>
			<path style="fill:#2D2A2A;" d="M329.876,261.923c0.001,11.749,0.247,23.531,1.04,35.254c0.254,3.758,0.565,7.521,1.127,11.248
				c0.072,0.476,0.794,0.273,0.723-0.199c-1.096-7.27-1.382-14.681-1.663-22.018c-0.257-6.702-0.395-13.41-0.454-20.117
				c-0.012-1.389-0.023-2.779-0.023-4.168C330.626,261.441,329.876,261.44,329.876,261.923L329.876,261.923z"/>
		</g>
		<g>
			<path style="fill:#2D2A2A;" d="M281.718,257.176c-1.721,0.486-3.317,1.622-4.63,2.796c-1.969,1.76-3.025,3.838-4.121,6.195
				c-0.116,0.249-0.496,0.789-0.49,1.072c0.007,0.316,0.142-0.012,0.183-0.001c-0.224-0.058-0.578,0.024-0.804,0.034
				c-1.395,0.058-2.79,0.115-4.185,0.171c-13.442,0.541-26.886,1.03-40.333,1.457c-16.094,0.511-32.132,0.54-48.227,0.038
				c-14.346-0.448-28.651-0.843-43.003-0.339c-7.324,0.257-14.672,0.624-21.941,1.595c-4.813,0.643-10.125,1.373-14.422,3.801
				c-0.692,0.391-1.343,0.846-1.93,1.382c-0.357,0.326,0.174,0.856,0.53,0.53c2.835-2.591,7.217-3.453,10.859-4.16
				c5.939-1.154,12.008-1.632,18.04-1.989c12.762-0.755,25.542-0.839,38.318-0.489c13.105,0.359,26.204,0.91,39.316,0.879
				c14.381-0.034,28.769-0.683,43.138-1.205c8.234-0.299,16.469-0.611,24.701-0.958c0.122-0.005,0.27-0.065,0.324-0.186
				c0.792-1.785,1.551-3.766,2.719-5.342c1.439-1.941,3.777-3.888,6.154-4.559C282.382,257.768,282.185,257.044,281.718,257.176
				L281.718,257.176z"/>
		</g>
		<g>
			<path style="fill:#2D2A2A;" d="M417.749,428.177c4.437,0.001,8.884,0.12,13.312,0.4c2.386,0.151,13.974,0.306,11.043,5.002
				c-0.256,0.411,0.392,0.788,0.648,0.379c2.216-3.551-2.497-5.069-5.195-5.49c-5.092-0.796-10.323-0.887-15.467-0.989
				c-1.447-0.029-2.894-0.051-4.341-0.051C417.266,427.426,417.265,428.176,417.749,428.177L417.749,428.177z"/>
		</g>
		<g>
			<path style="fill:#2D2A2A;" d="M421.274,424.38c5.771,0.332,11.54,0.826,17.282,1.49c3.02,0.349,6.39,0.525,9.243,1.688
				c1.677,0.683,2.393,1.857,2.674,3.598c0.077,0.475,0.8,0.273,0.723-0.199c-0.252-1.56-0.849-2.873-2.264-3.686
				c-2.356-1.353-5.476-1.538-8.101-1.875c-6.488-0.832-13.026-1.391-19.557-1.766C420.792,423.602,420.794,424.352,421.274,424.38
				L421.274,424.38z"/>
		</g>
		<g>
			<path style="fill:#2D2A2A;" d="M424.258,420.673c4.896,0.226,9.8,0.563,14.671,1.111c3.369,0.38,6.883,0.793,10.107,1.883
				c0.91,0.308,1.956,0.718,2.549,1.521c0.608,0.824,0.928,2.256,0.607,3.236c-0.151,0.46,0.573,0.657,0.723,0.199
				c0.445-1.361-0.086-3.329-1.121-4.32c-1.411-1.35-3.725-1.752-5.553-2.133c-5.648-1.177-11.441-1.602-17.187-1.975
				c-1.598-0.104-3.196-0.199-4.796-0.273C423.775,419.901,423.776,420.651,424.258,420.673L424.258,420.673z"/>
		</g>
		<g>
			<path style="fill:#2D2A2A;" d="M98.163,278.773c-1.685-1.42-3.752-2.466-5.802-3.233c-3.803-1.424-7.792-1.327-11.791-1.46
				c-0.39-0.013-1.033-0.162-1.417-0.047c-0.158,0.047-0.11-0.456,0.268,0.174c-0.166-0.276-0.412-0.53-0.619-0.775
				c-1.963-2.324-4.568-4.603-7.794-4.376c-1.904,0.134-4.757,0.969-5.151,3.219c-0.083,0.472,0.64,0.675,0.723,0.199
				c0.369-2.106,3.321-2.695,5.033-2.691c3.12,0.008,5.084,2.621,7.045,4.651c0.467,0.483,0.899,0.362,1.588,0.385
				c3.469,0.116,7.037-0.034,10.397,0.94c2.457,0.712,5.013,1.88,6.989,3.545C97.999,279.613,98.532,279.085,98.163,278.773
				L98.163,278.773z"/>
		</g>
		<g>
			<path style="fill:#2D2A2A;" d="M378.567,313.939c0.532,4.252,1.069,8.504,1.608,12.755c1.223,9.644,2.458,19.286,3.713,28.926
				c1.343,10.318,2.702,20.634,4.129,30.941c1.379,9.958,2.853,19.908,4.53,29.82c0.646,3.816,1.203,7.868,2.801,11.431
				c0.492,1.097,1.124,2.123,1.938,3.01c1.293,1.408,3.136,3.167,5.006,3.785c0.248,0.082,0.516,0.168,0.779,0.114
				c0.472-0.098,0.272-0.821-0.199-0.723c-0.01,0.002-0.648-0.226-0.875-0.345c-1.341-0.7-2.532-1.765-3.62-2.799
				c-0.837-0.795-1.516-1.698-2.047-2.723c-1.673-3.231-2.211-7.091-2.832-10.629c-1.707-9.73-3.137-19.519-4.502-29.303
				c-1.406-10.074-2.737-20.158-4.053-30.243c-1.257-9.627-2.493-19.257-3.716-28.888c-0.426-3.358-0.851-6.715-1.275-10.073
				c-0.201-1.595-0.287-3.259-0.608-4.836c-0.014-0.072-0.018-0.147-0.027-0.219C379.258,313.467,378.507,313.461,378.567,313.939
				L378.567,313.939z"/>
		</g>
		<path style="fill:#FC8A2D;" d="M260.18,187.791c0,0-0.026,0.266-0.08,0.729c-0.114,0.916-0.359,2.597-0.828,4.332
			c-0.496,1.897-1.249,3.868-2.347,4.996c-2.612,2.675-12.345-0.148-15.017-3.459c-2.671-3.318-3.267-8.908-3.267-8.908
			s-4.951-1.258-4.522-5.013c0.429-3.755,3.24-5.148,6.58-3.774c0,0,1.273,0.499,1.602,1.989c0,0,4.961-2.253,10.251-3.016
			c5.283-0.765,7.226-2.462,7.226-2.462s1.387,5.175,1.426,7.117l1.05,2.122c0,0,1.536,2.385,1.458,3.408
			C263.582,187.571,261.788,188.375,260.18,187.791z"/>
		<g>
			<path style="fill:#2D2A2A;" d="M241.32,181.718c-0.587-1.209-1.461-2.349-2.437-3.264c-0.454-0.426-0.952-0.811-1.489-1.127
				c-0.417-0.245-0.795,0.403-0.379,0.648c1.479,0.87,2.626,2.273,3.461,3.754c0.068,0.121,0.136,0.243,0.196,0.368
				C240.883,182.53,241.53,182.151,241.32,181.718L241.32,181.718z"/>
		</g>
		<g>
			<path style="fill:#2D2A2A;" d="M260.471,176.45c-1.454-0.3-3.146-0.097-4.409,0.7c-0.407,0.257-0.031,0.906,0.379,0.648
				c0.768-0.485,1.665-0.689,2.566-0.711c0.322-0.008,0.644,0.006,0.964,0.041c0.025,0.003,0.05,0.006,0.075,0.009
				c0.088,0.009-0.019-0.003,0.006,0c0.038,0.006,0.076,0.011,0.114,0.017c0.035,0.006,0.071,0.012,0.106,0.019
				C260.742,177.27,260.944,176.548,260.471,176.45L260.471,176.45z"/>
		</g>
		<path style="fill:#2D2A2A;" d="M258.966,178.994c-1.373-0.349-2.165,2.759-0.79,3.108
			C259.549,182.451,260.341,179.343,258.966,178.994z"/>
		<path style="fill:#FFFFFF;" d="M259.272,192.852l-0.27-0.068c-2.86-0.727-5.095-2.813-4.733-4.597
			c0.362-1.784,2.174-2.219,3.972-0.867c0.769,0.581,1.395,0.956,1.858,1.2C259.986,189.436,259.741,191.117,259.272,192.852z"/>
		<path style="fill:#6E369E;" d="M229.106,194.208c0,0-6.276-2.9-21.852-0.311c-15.576,2.589-31.835,15.339-35.72,17.558
			c-3.885,2.219-4.765,1.922-4.067,3.922c0.698,2,5.834,11.769,12.156,18.018c6.323,6.249,21.619,16.7,24.853,15.83
			c3.234-0.87,13.169-19.869,20.538-27.186C232.383,214.722,237.907,197.176,229.106,194.208z"/>
		<path style="fill:#FC8A2D;" d="M133.613,317.548c0,0,1.954,0.623,4.231-1.489c2.277-2.112-1.485-4.341-3.797-4.208
			c-2.312,0.133-2.751,0.116-2.751,0.116l-4.71-0.397c0,0-2.596-1.086-5.347-0.97c-2.751,0.116-4.791-1.169-4.791-1.169
			s-5.169,0.135-6.502,0.525c-1.333,0.389-2.976,1.093-2.976,1.093s1.368,3.681,4.749,4.357c3.381,0.677,6.169-0.427,6.169-0.427
			s-0.05,1.317,2.783,1.973c2.832,0.656,4.629-0.375,4.629-0.375s0.393,1.223,3.352,1.445c2.958,0.221,3.523-0.197,3.523-0.197
			L133.613,317.548z"/>
		<g>
			<path style="fill:#2D2A2A;" d="M132.919,317.008c0.628-0.768,0.889-1.834,0.739-2.806c-0.179-1.165-0.918-1.793-1.967-2.213
				c-1.323-0.53-2.86-0.753-4.285-0.752c-0.86,0.001-1.72,0.001-2.58,0.002c-0.483,0-0.483,0.75,0,0.75
				c1.076-0.001,2.165-0.06,3.239,0.021c0.801,0.061,1.6,0.175,2.38,0.37c0.75,0.187,1.739,0.455,2.203,1.132
				c0.384,0.561,0.372,1.405,0.19,2.033c-0.071,0.246-0.172,0.479-0.301,0.7c-0.043,0.073-0.089,0.144-0.137,0.214
				c-0.05,0.074-0.015,0.022-0.012,0.019C132.086,316.848,132.614,317.382,132.919,317.008L132.919,317.008z"/>
		</g>
		<g>
			<path style="fill:#2D2A2A;" d="M124.193,317.129c0.48-0.012,0.963-0.232,1.325-0.537c0.878-0.742,1.017-2.037,0.867-3.107
				c-0.166-1.182-0.873-2.137-1.956-2.638c-1.165-0.539-2.487-0.614-3.751-0.639c-0.599-0.012-1.204-0.016-1.8,0.055
				c-0.201,0.024-0.395,0.048-0.581,0.129c-0.441,0.192-0.06,0.839,0.378,0.648c-0.201,0.088,0.132-0.016,0.2-0.026
				c0.278-0.041,0.759-0.056,1.108-0.06c1.135-0.012,2.315,0.005,3.416,0.311c0.912,0.254,1.761,0.772,2.094,1.703
				c0.311,0.866,0.34,2.158-0.301,2.894c-0.185,0.213-0.432,0.369-0.672,0.447c-0.095,0.031-0.192,0.053-0.29,0.069
				c0.121-0.019-0.003,0-0.038,0.001C123.711,316.391,123.71,317.141,124.193,317.129L124.193,317.129z"/>
		</g>
		<g>
			<path style="fill:#2D2A2A;" d="M117.093,315.746c1.827-0.43,2.73-3.004,2.053-4.605c-0.885-2.094-3.692-2.273-5.623-2.145
				c-0.932,0.062-1.864,0.165-2.788,0.302c-0.476,0.07-0.274,0.793,0.199,0.723c0.612-0.091,1.229-0.159,1.845-0.216
				c0.945-0.087,1.967-0.205,2.909-0.038c0.862,0.154,1.812,0.455,2.419,1.12c0.757,0.829,0.588,2.175,0.058,3.081
				c-0.282,0.482-0.788,0.94-1.273,1.054C116.424,315.133,116.622,315.857,117.093,315.746L117.093,315.746z"/>
		</g>
		<g>
			<path style="fill:#2D2A2A;" d="M436.022,257.858c-0.731-0.001-1.409-0.137-2.129-0.35c-1.402-0.416-2.676-1.225-3.423-2.51
				c-0.243-0.417-0.891-0.04-0.648,0.379c1.164,2,3.412,2.97,5.635,3.196c0.187,0.019,0.376,0.035,0.564,0.036
				C436.505,258.609,436.505,257.859,436.022,257.858L436.022,257.858z"/>
		</g>
		<path style="fill:#FC8A2D;" d="M333.215,315.959c0,0-1.954,0.623-4.231-1.489c-2.277-2.112,1.485-4.341,3.797-4.208
			c2.312,0.133,2.751,0.116,2.751,0.116l4.71-0.397c0,0,2.596-1.087,5.347-0.97c2.751,0.116,4.791-1.169,4.791-1.169
			s5.169,0.135,6.502,0.525c1.333,0.389,2.976,1.093,2.976,1.093s-1.368,3.681-4.749,4.357c-3.381,0.677-6.169-0.427-6.169-0.427
			s0.049,1.317-2.783,1.972c-2.832,0.656-4.629-0.375-4.629-0.375s-0.393,1.223-3.352,1.444c-2.958,0.221-3.523-0.197-3.523-0.197
			L333.215,315.959z"/>
		<g>
			<path style="fill:#2D2A2A;" d="M334.439,314.889c0.063,0.076-0.053-0.077-0.088-0.133c-0.115-0.181-0.213-0.373-0.287-0.574
				c-0.235-0.632-0.255-1.323-0.027-1.961c0.286-0.8,1.273-1.127,2.016-1.341c1.156-0.332,2.369-0.483,3.571-0.482
				c0.793,0.001,1.586,0.001,2.379,0.002c0.483,0,0.483-0.75,0-0.75c-1.199-0.001-2.41-0.064-3.605,0.053
				c-0.967,0.095-1.945,0.247-2.869,0.554c-0.928,0.308-1.875,0.786-2.215,1.764c-0.39,1.123-0.16,2.474,0.596,3.398
				C334.214,315.793,334.742,315.26,334.439,314.889L334.439,314.889z"/>
		</g>
		<g>
			<path style="fill:#2D2A2A;" d="M342.634,314.79c-0.025-0.001-0.05-0.004-0.076-0.006c-0.032-0.003,0.08,0.016-0.013-0.003
				c-0.051-0.011-0.102-0.021-0.152-0.034c-0.221-0.06-0.409-0.151-0.596-0.31c-0.717-0.61-0.762-1.792-0.581-2.642
				c0.491-2.312,3.285-2.409,5.182-2.43c0.5-0.005,1.006-0.005,1.504,0.054c0.058,0.007,0.139,0.025,0.242,0.041
				c0.051,0.008,0.183,0.068,0.006-0.01c0.438,0.191,0.82-0.455,0.379-0.648c-0.532-0.232-1.228-0.186-1.791-0.189
				c-1.3-0.007-2.696,0.017-3.932,0.474c-1.088,0.402-1.954,1.172-2.267,2.317c-0.299,1.094-0.227,2.517,0.564,3.399
				c0.376,0.42,0.959,0.722,1.53,0.736C343.117,315.552,343.117,314.802,342.634,314.79L342.634,314.79z"/>
		</g>
		<g>
			<path style="fill:#2D2A2A;" d="M349.934,313.434c-0.384-0.09-0.812-0.415-1.09-0.776c-0.63-0.818-0.9-2.178-0.331-3.089
				c0.489-0.782,1.463-1.129,2.318-1.326c0.92-0.212,1.891-0.135,2.824-0.061c0.748,0.059,1.496,0.139,2.238,0.249
				c0.472,0.07,0.676-0.653,0.199-0.723c-0.776-0.115-1.557-0.203-2.338-0.268c-1.08-0.089-2.179-0.154-3.241,0.108
				c-1.015,0.251-2.073,0.723-2.647,1.642c-0.666,1.066-0.456,2.57,0.171,3.606c0.366,0.605,0.987,1.193,1.698,1.361
				C350.205,314.268,350.405,313.545,349.934,313.434L349.934,313.434z"/>
		</g>
		<path style="fill:#FC8A2D;" d="M245.793,196.487c0,0,3.323,26.585,2.077,26.169s-12.929-11.767-16.887-20.704
			c-0.719-1.622-3.064-8.17-3.064-8.17L245.793,196.487z"/>
		<g>
			<path style="fill:#2D2A2A;" d="M93.208,424.506c-0.074-2.204-0.182-4.408-0.316-6.609c-0.102-1.669-0.218-3.339-0.391-5.003
				c-0.117-1.127-0.201-2.323-0.55-3.408c-0.147-0.458-0.872-0.262-0.723,0.199c0.344,1.069,0.425,2.242,0.538,3.353
				c0.17,1.67,0.285,3.346,0.386,5.021c0.129,2.147,0.234,4.296,0.306,6.446C92.474,424.987,93.224,424.989,93.208,424.506
				L93.208,424.506z"/>
		</g>
		<g>
			<path style="fill:#2D2A2A;" d="M256.127,217.589c2.121,3.124,3.827,6.68,4.922,10.286c0.859,2.831,1.368,5.91,0.658,8.829
				c-0.695,2.856-2.062,5.605-4.164,7.685c-0.903,0.893-2.029,1.82-3.233,2.266c-0.449,0.166-0.255,0.892,0.199,0.723
				c3.466-1.286,5.951-4.913,7.211-8.203c2.255-5.894,0.343-12.028-2.354-17.438c-0.773-1.551-1.615-3.091-2.59-4.526
				C256.505,216.814,255.855,217.188,256.127,217.589L256.127,217.589z"/>
		</g>
		<g>
			<path style="fill:#2D2A2A;" d="M211.191,232.53c-3.131,4.473-6.262,8.946-9.393,13.419c-0.443,0.633-0.887,1.267-1.33,1.9
				c0.171-0.045,0.342-0.09,0.513-0.135c-1.021-0.511-2.043-1.021-3.064-1.532c-0.431-0.215-0.811,0.432-0.379,0.648
				c1.021,0.511,2.043,1.021,3.064,1.532c0.193,0.096,0.39,0.041,0.513-0.135c3.131-4.473,6.262-8.946,9.393-13.419
				c0.443-0.633,0.887-1.267,1.33-1.9C212.116,232.512,211.466,232.137,211.191,232.53L211.191,232.53z"/>
		</g>
		<g>
			<path style="fill:#2D2A2A;" d="M233.472,246.642c-2.064,0.186-4.145,0.252-6.216,0.255c-3.493,0.005-7.21-0.083-10.535-1.263
				c-0.456-0.162-0.652,0.563-0.199,0.723c3.319,1.178,7.041,1.285,10.528,1.29c2.14,0.003,4.291-0.063,6.423-0.255
				C233.949,247.349,233.954,246.598,233.472,246.642L233.472,246.642z"/>
		</g>
	</g>
</g>
</svg>
