<?xml version="1.0" encoding="utf-8"?>
<!-- Generator: Adobe Illustrator 27.5.0, SVG Export Plug-In . SVG Version: 6.00 Build 0)  -->
<svg version="1.1" xmlns="http://www.w3.org/2000/svg" xmlns:xlink="http://www.w3.org/1999/xlink" x="0px" y="0px"
	 viewBox="0 0 500 500" style="enable-background:new 0 0 500 500;" xml:space="preserve">
<g id="BACKGROUND_2">
	<rect style="fill:#FFFFFF;" width="500" height="500"/>
</g>
<g id="OBJECTS">
	<g>
		<ellipse style="opacity:0.1;fill:#04080F;" cx="313.877" cy="446.853" rx="32.311" ry="5.714"/>
		<ellipse style="opacity:0.1;fill:#04080F;" cx="335.747" cy="398.395" rx="19.58" ry="3.462"/>
		<g>
			<g>
				<path style="fill:#132C4F;" d="M274.522,275.585c-1.762-9.956-12.98-12.813-12.98-12.813
					C262.265,269.178,274.522,275.585,274.522,275.585z"/>
				<path style="fill:#3A66CF;" d="M293.451,229.204c-4.433,3.378-12.455,19.633-15.199,24.277
					c-2.035,3.443-9.637,7.93-15.671,12.172c2.231,3.81,7.395,7.259,10.144,8.908c5.679-3.081,10.65-5.951,11.438-6.936
					c1.689-2.111,20.733-28.032,22.505-42.831C306.667,224.793,297.884,225.827,293.451,229.204z"/>
				<path style="fill:#EE9D68;" d="M254.812,272.376c-4.992,5.546-10.337,13.404-10.337,13.404s-9.288,10.133-10.133,16.466
					c-0.844,6.333,1.267,5.489,1.267,5.489s0.211,5.489,1.9,4.855c1.689-0.633,3.8-13.299,8.022-13.933
					c4.222-0.633,1.9,3.589,6.544,3.8s-1.9-4.455-1.9-8.244c0-3.789-0.422-7.8,5.489-10.755c1.301-0.651,3.33-1.68,5.719-2.912
					C258.48,279.214,255.936,275.395,254.812,272.376z"/>
				<path style="fill:#274B93;" d="M272.725,274.56c-2.749-1.649-7.913-5.098-10.144-8.908c-0.554-0.946-0.93-1.913-1.039-2.881
					c0,0-2.545,0.712-3.592,3.737c0,0-3.182-0.356-3.716,2.669c-0.131,0.739,0.092,1.894,0.577,3.198
					c1.124,3.019,3.668,6.838,6.571,8.169c0.972,0.446,1.984,0.614,2.996,0.378c5.339-1.246,3.915-2.669,3.915-2.669
					s2.847,1.246,6.229-2.669C274.522,275.585,273.81,275.211,272.725,274.56z"/>
			</g>
			<path style="fill:none;stroke:#FFFFFF;stroke-width:2;stroke-linecap:round;stroke-linejoin:round;stroke-miterlimit:10;" d="
				M306,228.26c-9.42,0-16.587,10.443-21.376,23.743c-4.789,13.299-20.264,16.02-20.264,16.02"/>
			<g>
				<path style="fill:#132C4F;" d="M353.299,294.213c-0.95-5.368-6.998-6.908-6.998-6.908
					C346.69,290.759,353.299,294.213,353.299,294.213z"/>
				<g>
					<path style="fill:#3A66CF;" d="M362.904,268.68c-2.744-10.977-18.999-34.199-23.193-34.066
						c-4.193,0.132-8.684,4.723-8.684,4.723c-5.647,6.333-0.633,16.044-0.633,16.044c11.4,1.267,18.999,20.899,20.899,25.543
						c0.859,2.101-1.652,4.978-4.659,7.501c1.092,2.346,4.458,4.514,5.945,5.384c5.09-2.217,10.318-4.387,12.013-5.285
						C368.182,286.624,365.648,279.658,362.904,268.68z"/>
					<path style="fill:#EE9D68;" d="M342.412,291.597c-2.124,1.452-3.785,2.416-3.785,2.416s-2.744-0.422-6.333,1.689
						c-3.589,2.111-7.811,2.111-7.177,5.066c0.633,2.956,3.8,2.322,3.8,2.322s-3.8,3.589-2.322,5.489
						c1.478,1.9,2.955-1.267,4.433-1.056s5.911,0.422,7.811-1.071s1.9-5.051,2.322-6.74c0.131-0.525,2.097-1.62,4.851-2.938
						C344.231,295.817,342.741,293.199,342.412,291.597z"/>
					<path style="fill:#274B93;" d="M346.301,287.304c0,0-1.372,0.384-1.937,2.015c0,0-1.716-0.192-2.003,1.439
						c-0.039,0.219-0.016,0.508,0.051,0.838c1.324-0.905,2.825-2,4.222-3.172C346.462,288.054,346.343,287.679,346.301,287.304z"/>
					<path style="fill:#274B93;" d="M347.83,297.091c2.878-0.672,2.111-1.439,2.111-1.439s1.535,0.672,3.358-1.439
						c0,0-0.278-0.146-0.72-0.404c-2.337,1.018-4.644,2.046-6.568,2.966C346.598,297.09,347.213,297.235,347.83,297.091z"/>
					<path style="fill:#274B93;" d="M346.634,288.425c-1.397,1.172-2.899,2.267-4.222,3.172c0.329,1.602,1.819,4.22,3.6,5.178
						c1.923-0.92,4.23-1.948,6.568-2.966C351.093,292.938,347.727,290.771,346.634,288.425z"/>
				</g>
			</g>
			<path style="fill:none;stroke:#FFFFFF;stroke-width:2;stroke-linecap:round;stroke-linejoin:round;stroke-miterlimit:10;" d="
				M337.135,235.187c0,0,24.081,29.272,24.503,44.26c0.145,5.151-3.887,10.157-10.865,13.207"/>
			<g>
				<path style="fill:#EE9D68;" d="M324.168,416.494c-0.737-1.615-1.459-3.457-2.052-5.599c-3.096,2.78-6.706,3.646-9.703,3.765
					c0.384,4.404,0.446,7.898,0.33,10.209C315.219,424.172,320.182,422.134,324.168,416.494z"/>
				<path style="fill:#274B93;" d="M312.306,428.268c0,0,6.439,1.222,13.023-9.404c-0.381-0.73-0.773-1.52-1.161-2.37
					c-3.986,5.64-8.949,7.678-11.425,8.376c-0.058,1.165-0.161,2.036-0.292,2.56C312.391,427.667,312.346,427.948,312.306,428.268z"
					/>
			</g>
			<path style="fill:#091323;" d="M325.053,361.565c-1.948-1.283-6.5-6.172-14.593-9.616c-5.934-2.526-13.777-4.265-23.901-3.242
				c-1.058,0.107-2.132,0.233-3.241,0.403c0,0,1.185-1.542,2.967-4.172c6.003-8.856,18.786-30.049,15.979-46.264
				c-5.361,1.833-11.614,3.426-17.641,3.677h-3.206c0,0-24.066,46.548-22.166,53.937c1.414,5.499,17.094,7.139,29.374,8.228
				c4.219,0.374,8.037,0.683,10.736,1.061c4.59,0.643,9.618,1.525,13.94,2.577c5.409,1.317,9.703,2.9,10.654,4.613
				c1.16-1.39,2.962-4.467,2.92-10.125C326.253,362.307,325.636,361.949,325.053,361.565z"/>
			<path style="fill:none;stroke:#FFFFFF;stroke-width:2;stroke-linecap:round;stroke-linejoin:round;stroke-miterlimit:10;" d="
				M294.359,300.954c0,0,2.101,18.496-7.716,32.587c-9.816,14.091-14.883,18.898-1.425,20.611
				c13.458,1.713,18.152-4.514,41.503,11.406"/>
			<g>
				<path style="fill:#EE9D68;" d="M330.73,364.417c-1.135-0.452-2.507-1.052-3.854-1.775c0.042,5.658-1.76,8.735-2.92,10.125
					c0.037,0.066,0.078,0.132,0.105,0.198c0.348,0.871,0.778,1.796,1.24,2.763C327.256,374.109,330.197,370.671,330.73,364.417z"/>
				<path style="fill:#274B93;" d="M332.35,365.028c-0.435-0.154-0.992-0.36-1.62-0.61c-0.533,6.254-3.474,9.691-5.429,11.31
					c0.36,0.752,0.739,1.528,1.125,2.338C330.758,374.897,332.021,369.053,332.35,365.028z"/>
			</g>
			<g>
				<path style="fill:#0D1D37;" d="M320.684,398.931c0.317-20.266-11.419-32.615-10.301-46.231
					c1.118-13.616,13.151-39.002,6.184-60.191c0,0-16.704,9.21-31.943,9.843c0,0,0.911,55.098,4.394,63.331
					c3.483,8.233,18.663,20.266,21.365,34.515c1.034,5.456,1.672,10.352,2.03,14.463c2.998-0.119,6.607-0.985,9.703-3.765
					C321.217,407.652,320.608,403.741,320.684,398.931z"/>
				<path style="fill:none;stroke:#FFFFFF;stroke-width:2;stroke-linecap:round;stroke-linejoin:round;stroke-miterlimit:10;" d="
					M310.383,295.497c0,0,3.801,25.853-3.715,45.802c-7.516,19.949,7.8,36.415,9.167,47.498c1.366,11.083,3.572,24.01,3.572,24.01"
					/>
			</g>
			<path style="fill:#6C2829;" d="M347.198,191.36c2.716-2.693,4.363-6.344,1.331-7.821c-3.032-1.477-8.598,3.152-8.739,0.379
				c-0.141-2.773-0.004-7.215-3.701-7.382c-3.697-0.166-4.593-12.141-14.524-9.444c-9.932,2.697-8.583,14.4-6.792,16.599
				c1.791,2.199-5.665,5.553-0.89,14.381c0,0,0,0,0,0c0,0,1.324-3.08,3.116-2.96c0,0,10.476,0.277,10.545,4.262
				c0.069,3.986-3.092,8.437-0.887,8.663l2.205,0.226c0,0,0.837-3.985,3.007-3.127c0,0,4,1.146-0.842,6.85
				c-4.225,4.978-0.157,7.039-0.157,7.039s0.004-0.003,0.005-0.003c0.054-0.031,3.514-2.042,3.748-4.334
				c0.237-2.31,14.448-7.434,14.991-14.805C350.158,192.512,344.482,194.053,347.198,191.36z"/>
			<g>
				<path style="fill:#274B93;" d="M312.977,229.644c4.118,2.621,17.322,5.153,19.165-1.072c-5.086-2.837-11.655-4.725-19.165-4.476
					C312.967,224.102,308.863,227.025,312.977,229.644z"/>
				<path style="fill:#DEE8F9;" d="M341.899,237.754c-1.754-3.256-5.146-6.609-9.758-9.182c-1.843,6.225-15.047,3.693-19.165,1.072
					c-4.113-2.618-0.01-5.541,0-5.548c-2.038,0.068-4.144,0.292-6.309,0.698c-1.742,0.326-3.297,1.295-4.347,2.722
					c-3.437,4.669-11.364,15.886-12.352,21.321c-1.267,6.966-3.8,34.515-7.283,44.015c-3.483,9.5-4.433,12.349-4.433,12.349
					s23.749,6.333,40.532-9.5c0,0-0.317-18.366,3.167-22.482C325.433,269.103,346.332,245.987,341.899,237.754z"/>
			</g>
			<g>
				<path style="fill:#DEE8F9;" d="M341.07,371.242c-0.475-6.247-4.513-4.519-4.513-4.518c3.227,2.386,2.553,7.059,1.486,13.694
					c-1.108,6.887,2.869,15.12-4.693,17.458c-0.274,0.085-0.521,0.085-0.747,0.022c0.622,0.582,1.637,0.722,3.243,0.048
					c6.333-2.659,4.591-8.74,4.117-13.965C339.487,378.755,341.545,377.488,341.07,371.242z"/>
				<path style="fill:#0D1D37;" d="M338.043,380.417c1.068-6.635,1.742-11.309-1.486-13.694c-0.808-0.597-1.856-1.053-3.207-1.358
					c0,0-0.383-0.12-1-0.338c-0.329,4.025-1.592,9.87-5.924,13.038c0.923,1.935,1.866,4.033,2.577,6.299
					c1.274,4.06,1.134,12.852,3.599,13.533c0.227,0.063,0.473,0.063,0.747-0.022C340.912,395.538,336.934,387.305,338.043,380.417z"
					/>
			</g>
			<g>
				<path style="fill:#DEE8F9;" d="M328.018,424.239L328.018,424.239c0.529,1.577,0.392,2.85-1.002,4.141
					c-5.049,4.676-4.433,9.816-7.6,13.933c-2.613,3.397-15.792,4.422-16.047,2.007l0,0c0,0-2.99,1.62,1.654,2.781
					c4.644,1.161,14.566,1.583,16.36-4.539c1.794-6.122,5.911-10.977,7.705-13.405C330.885,426.728,329.374,424.177,328.018,424.239
					z"/>
				<path style="fill:#0D1D37;" d="M328.018,424.239c-0.122-0.364-0.279-0.744-0.465-1.144c-0.554-1.195-1.357-2.568-2.224-4.231
					c-6.585,10.627-13.023,9.404-13.023,9.404c-0.205,1.644-0.263,4.292-1.307,7.059c-0.92,2.438-2.605,4.969-5.832,6.986
					c-1.328,0.83-1.851,1.495-1.797,2.007c0.255,2.415,13.434,1.391,16.047-2.007c3.166-4.117,2.551-9.257,7.6-13.933
					C328.41,427.089,328.547,425.816,328.018,424.239z"/>
			</g>
			<g>
				<path style="fill:#EE9D68;" d="M331.745,211.921c3.675-3.555,1.928-6.069,0.349-6.785c-2.683-1.215-3.232,3.127-3.232,3.127
					l-2.205-0.226c-2.205-0.226,0.956-4.677,0.887-8.663c-0.07-3.986-10.545-4.262-10.545-4.262c-1.792-0.12-3.116,2.96-3.116,2.96
					c0,0,0,0,0,0c-1.037,4.735-1.807,9.964-2.45,12.546c-1.352,5.432,5.63,7.102,5.63,7.102s4.231,1.509,8.478-0.326
					c0,0-1.741,6.283-9.515,4.803v0c-0.864,2.172-1.892,3.84-1.512,4.971c0.61,1.813,6.579,2.583,10.093,2.465
					c3.514-0.118,4.87-0.934,5.706-7.627c0.125-1,0.326-1.991,0.563-2.982c-0.001,0-0.005,0.003-0.005,0.003
					S327.052,216.46,331.745,211.921z"/>
				<path style="fill:#E28B5A;" d="M325.541,217.393c-4.247,1.835-8.478,0.326-8.478,0.326c-0.055,1.672-0.516,3.166-1.037,4.477v0
					C323.801,223.676,325.541,217.393,325.541,217.393z"/>
				<g>
					<path style="fill:none;stroke:#CB2909;stroke-linecap:round;stroke-linejoin:round;stroke-miterlimit:10;" d="M318.375,204.756
						c0,0-2.398,4.794,0.29,4.561"/>
					<path style="fill:none;stroke:#CB2909;stroke-linecap:round;stroke-linejoin:round;stroke-miterlimit:10;" d="M322.147,210.356
						c-0.035,0.09-1.93,3.398-4.791,0.803"/>
					<path style="fill:#F8593E;" d="M324.296,208.473c0,0-0.934-1.401-1.388-1.1c-0.454,0.301,1.131,3.755,1.242,3.706
						c0.111-0.049,2.811-2.278,2.102-2.847C325.543,207.663,324.296,208.473,324.296,208.473z"/>
					<path style="fill:#F8593E;" d="M314.318,207.838c0,0,1.137-1.241,1.539-0.874c0.403,0.367-1.692,3.538-1.794,3.472
						c-0.102-0.065-2.43-2.682-1.642-3.135C313.21,206.847,314.318,207.838,314.318,207.838z"/>
					<path style="fill:none;stroke:#CB2909;stroke-linecap:round;stroke-linejoin:round;stroke-miterlimit:10;" d="M320.946,201.828
						c0,0,2.673-1.475,4.907,0.417"/>
					<path style="fill:#001953;" d="M321.415,204.734c0.184-0.137,0.41-0.194,0.637-0.161c0.469,0.069,0.794,0.506,0.726,0.974
						c-0.033,0.227-0.153,0.428-0.337,0.565c-0.125,0.093-0.27,0.15-0.421,0.166c-0.071,0.008-0.144,0.006-0.216-0.005
						c-0.227-0.033-0.428-0.153-0.565-0.337c-0.137-0.184-0.194-0.41-0.161-0.637C321.111,205.072,321.231,204.872,321.415,204.734z
						"/>
					<path style="fill:none;stroke:#CB2909;stroke-linecap:round;stroke-linejoin:round;stroke-miterlimit:10;" d="M313.712,200.449
						c0,0,2.733-1.069,4.468,1.107"/>
					<path style="fill:#001953;" d="M313.733,203.589c0.184-0.137,0.41-0.194,0.637-0.161c0.469,0.069,0.794,0.506,0.726,0.974
						c-0.033,0.227-0.153,0.428-0.337,0.565c-0.125,0.093-0.27,0.15-0.421,0.166c-0.071,0.007-0.144,0.006-0.216-0.005
						c-0.227-0.033-0.428-0.153-0.565-0.337c-0.137-0.184-0.194-0.411-0.161-0.638C313.429,203.926,313.549,203.726,313.733,203.589
						z"/>
					<path style="fill:none;stroke:#CB2909;stroke-linecap:round;stroke-linejoin:round;stroke-miterlimit:10;" d="M332.259,206.701
						c0,0-2.048-0.234-2.204,3.464c0,0,0.658-1.928,2.307-1.292"/>
				</g>
			</g>
		</g>
	</g>
	<g>
		<path style="fill:#000D2D;" d="M186.333,253.493l-0.989-5.43l-0.067-0.683c0.042-0.004,0.084-0.006,0.125-0.022l7.788-3.092
			c0.219-0.087,0.336-0.325,0.272-0.552l-0.916-3.207c-0.035-0.124-0.121-0.227-0.236-0.285c-0.116-0.058-0.25-0.064-0.37-0.017
			l-8.017,3.092c-0.205,0.079-0.325,0.293-0.286,0.51l1.736,9.528c-1.087,0.624-4.496,2.728-4.579,4.598
			c-0.018,0.418,0.116,1.022,0.863,1.52c0.414,0.276,0.792,0.37,1.115,0.37c0.264,0,0.492-0.063,0.671-0.141
			c1.974-0.855,2.803-5.505,2.89-6.033c0.002-0.011-0.005-0.021-0.004-0.031C186.335,253.578,186.341,253.537,186.333,253.493z"/>
		<path style="fill:#000D2D;" d="M273.719,209.059l-0.989-5.43l-0.067-0.683c0.042-0.004,0.084-0.006,0.125-0.022l7.788-3.092
			c0.219-0.087,0.336-0.325,0.272-0.552l-0.916-3.207c-0.035-0.124-0.121-0.227-0.236-0.285c-0.116-0.058-0.25-0.063-0.37-0.017
			l-8.017,3.092c-0.205,0.079-0.325,0.293-0.285,0.509l1.736,9.529c-1.087,0.624-4.496,2.728-4.579,4.598
			c-0.018,0.418,0.116,1.022,0.863,1.52c0.414,0.276,0.792,0.37,1.115,0.37c0.264,0,0.492-0.063,0.672-0.141
			c1.974-0.855,2.802-5.505,2.89-6.033c0.002-0.011-0.005-0.02-0.004-0.031C273.721,209.144,273.727,209.102,273.719,209.059z"/>
		<path style="fill:#000D2D;" d="M245.75,242.725l-0.989-5.43l-0.067-0.683c0.042-0.004,0.084-0.006,0.125-0.022l7.788-3.092
			c0.219-0.087,0.336-0.325,0.272-0.552l-0.916-3.207c-0.035-0.124-0.121-0.227-0.236-0.285c-0.116-0.058-0.25-0.063-0.37-0.017
			l-8.017,3.092c-0.205,0.079-0.325,0.293-0.286,0.509l1.736,9.529c-1.087,0.624-4.496,2.728-4.579,4.598
			c-0.018,0.418,0.116,1.022,0.863,1.52c0.414,0.276,0.792,0.37,1.115,0.37c0.264,0,0.492-0.063,0.671-0.141
			c1.974-0.855,2.803-5.505,2.89-6.033c0.002-0.011-0.005-0.02-0.004-0.031C245.751,242.809,245.758,242.768,245.75,242.725z"/>
		<path style="fill:#000D2D;" d="M317.796,147.241c0.002-0.043,0.005-0.085-0.006-0.129l-2.406-9.718
			c-0.012-0.047-0.036-0.087-0.06-0.125l-0.786-2.751c-0.035-0.124-0.121-0.227-0.236-0.285c-0.116-0.057-0.251-0.063-0.37-0.017
			l-8.017,3.092c-0.205,0.079-0.325,0.293-0.286,0.51l1.736,9.528c-1.086,0.624-4.495,2.728-4.578,4.598
			c-0.018,0.418,0.116,1.022,0.863,1.52c0.414,0.276,0.792,0.37,1.115,0.37c0.264,0,0.492-0.063,0.671-0.141
			c1.975-0.855,2.802-5.505,2.89-6.032c0.002-0.011-0.005-0.021-0.004-0.032c0.004-0.042,0.01-0.083,0.002-0.126l-0.989-5.431
			l-0.067-0.681c0.042-0.004,0.084-0.006,0.126-0.022l7.31-2.903l2.117,8.549c-1.045,0.691-4.316,3.004-4.281,4.875
			c0.008,0.419,0.18,1.012,0.956,1.463c0.385,0.223,0.732,0.303,1.031,0.303c0.31,0,0.569-0.086,0.766-0.186
			c1.917-0.977,2.452-5.669,2.507-6.201C317.802,147.259,317.796,147.251,317.796,147.241z"/>
		<path style="fill:#000D2D;" d="M195.573,326.124c0.002-0.042,0.005-0.085-0.006-0.129l-2.406-9.718
			c-0.012-0.047-0.036-0.087-0.06-0.126l-0.786-2.751c-0.035-0.124-0.121-0.227-0.236-0.284c-0.116-0.057-0.251-0.064-0.369-0.017
			l-8.017,3.092c-0.205,0.079-0.325,0.293-0.286,0.51l1.736,9.528c-1.086,0.624-4.495,2.728-4.578,4.598
			c-0.018,0.418,0.116,1.022,0.863,1.52c0.414,0.276,0.792,0.37,1.115,0.37c0.264,0,0.492-0.063,0.671-0.141
			c1.975-0.855,2.803-5.505,2.89-6.032c0.002-0.011-0.005-0.021-0.004-0.032c0.004-0.042,0.01-0.083,0.002-0.126l-0.989-5.431
			l-0.067-0.681c0.042-0.004,0.084-0.006,0.126-0.022l7.31-2.903l2.117,8.549c-1.045,0.691-4.316,3.004-4.281,4.875
			c0.008,0.419,0.18,1.013,0.956,1.463c0.385,0.223,0.732,0.303,1.031,0.303c0.31,0,0.569-0.085,0.766-0.186
			c1.917-0.977,2.452-5.669,2.507-6.201C195.579,326.142,195.572,326.134,195.573,326.124z"/>
		<path style="fill:#000D2D;" d="M175.292,196.092c0.002-0.042,0.005-0.085-0.006-0.129l-2.406-9.718
			c-0.012-0.047-0.036-0.087-0.06-0.126l-0.786-2.751c-0.035-0.124-0.121-0.227-0.236-0.285c-0.116-0.057-0.251-0.063-0.37-0.017
			l-8.017,3.092c-0.205,0.079-0.325,0.293-0.286,0.51l1.736,9.528c-1.086,0.624-4.495,2.728-4.578,4.598
			c-0.018,0.418,0.116,1.022,0.863,1.52c0.414,0.276,0.792,0.37,1.115,0.37c0.264,0,0.492-0.063,0.671-0.141
			c1.975-0.855,2.803-5.505,2.89-6.032c0.002-0.011-0.005-0.021-0.004-0.032c0.004-0.042,0.01-0.083,0.002-0.126l-0.989-5.431
			l-0.067-0.681c0.042-0.004,0.084-0.006,0.126-0.022l7.31-2.903l2.117,8.549c-1.045,0.691-4.316,3.004-4.281,4.875
			c0.007,0.419,0.18,1.012,0.956,1.463c0.385,0.223,0.732,0.303,1.031,0.303c0.31,0,0.569-0.085,0.766-0.186
			c1.917-0.977,2.452-5.669,2.507-6.201C175.298,196.11,175.292,196.102,175.292,196.092z"/>
		<path style="fill:#000D2D;" d="M372.795,232.875c0.002-0.043,0.005-0.085-0.005-0.129l-2.406-9.718
			c-0.012-0.047-0.036-0.087-0.06-0.126l-0.786-2.751c-0.035-0.124-0.121-0.227-0.236-0.285c-0.116-0.057-0.251-0.064-0.37-0.017
			l-8.017,3.092c-0.205,0.079-0.325,0.293-0.286,0.51l1.736,9.528c-1.086,0.624-4.495,2.728-4.578,4.598
			c-0.018,0.418,0.116,1.022,0.863,1.52c0.414,0.276,0.792,0.37,1.115,0.37c0.264,0,0.492-0.063,0.671-0.141
			c1.975-0.855,2.802-5.505,2.89-6.032c0.002-0.011-0.005-0.021-0.004-0.032c0.004-0.042,0.01-0.083,0.002-0.126l-0.989-5.431
			l-0.067-0.681c0.042-0.004,0.084-0.006,0.126-0.023l7.31-2.902l2.117,8.549c-1.045,0.691-4.316,3.004-4.281,4.875
			c0.008,0.419,0.18,1.012,0.956,1.463c0.385,0.223,0.732,0.303,1.031,0.303c0.31,0,0.569-0.085,0.766-0.186
			c1.917-0.977,2.452-5.669,2.507-6.201C372.801,232.893,372.794,232.885,372.795,232.875z"/>
		<path style="fill:#000D2D;" d="M241.781,330.054l-1.795-9.766c-0.045-0.247-0.28-0.412-0.533-0.365
			c-0.249,0.045-0.414,0.281-0.368,0.528l1.736,9.447c-1.086,0.619-4.496,2.705-4.579,4.559c-0.018,0.415,0.116,1.013,0.863,1.507
			c0.414,0.274,0.792,0.367,1.115,0.367c0.264,0,0.492-0.063,0.672-0.14c1.974-0.848,2.802-5.458,2.89-5.981
			c0.002-0.011-0.005-0.021-0.004-0.031C241.783,330.137,241.789,330.096,241.781,330.054z"/>
		<path style="fill:#000D2D;" d="M272.308,150.701l-1.795-9.766c-0.045-0.247-0.28-0.412-0.533-0.365
			c-0.249,0.045-0.414,0.281-0.368,0.528l1.736,9.447c-1.087,0.619-4.496,2.705-4.579,4.559c-0.018,0.415,0.116,1.013,0.863,1.507
			c0.414,0.274,0.792,0.367,1.115,0.367c0.264,0,0.492-0.063,0.672-0.14c1.974-0.848,2.802-5.458,2.89-5.981
			c0.002-0.011-0.005-0.021-0.004-0.031C272.31,150.784,272.316,150.743,272.308,150.701z"/>
		<path style="fill:#000D2D;" d="M173.563,276.491l-1.795-9.766c-0.045-0.247-0.28-0.412-0.533-0.365
			c-0.249,0.045-0.414,0.281-0.368,0.528l1.736,9.447c-1.087,0.619-4.496,2.705-4.579,4.559c-0.018,0.415,0.116,1.013,0.863,1.507
			c0.414,0.274,0.792,0.367,1.115,0.367c0.264,0,0.492-0.063,0.672-0.14c1.974-0.848,2.802-5.458,2.89-5.981
			c0.002-0.011-0.005-0.021-0.004-0.031C173.565,276.575,173.571,276.534,173.563,276.491z"/>
		<path style="fill:none;stroke:#000D2D;stroke-width:2;stroke-linecap:round;stroke-linejoin:round;stroke-miterlimit:10;" d="
			M170.795,114.318c0,0,0.759,14.904,3.813,24.212"/>
		<path style="fill:none;stroke:#000D2D;stroke-width:2;stroke-linecap:round;stroke-linejoin:round;stroke-miterlimit:10;" d="
			M167.79,125.338c0,0,2.931,14.5,6.818,21.333"/>
		<path style="fill:none;stroke:#000D2D;stroke-width:2;stroke-linecap:round;stroke-linejoin:round;stroke-miterlimit:10;" d="
			M234.412,130.969c0,0,10.75,10.369,9.25,28.119"/>
		<path style="fill:none;stroke:#000D2D;stroke-width:2;stroke-linecap:round;stroke-linejoin:round;stroke-miterlimit:10;" d="
			M245.412,140.562c0,0,6.75,5.492,0,26.134"/>
		<path style="fill:none;stroke:#000D2D;stroke-width:2;stroke-linecap:round;stroke-linejoin:round;stroke-miterlimit:10;" d="
			M435.912,188.338c0,0,9.713-5.5,15.75,3.5"/>
		<path style="fill:none;stroke:#000D2D;stroke-width:2;stroke-linecap:round;stroke-linejoin:round;stroke-miterlimit:10;" d="
			M434.162,183.088c0,0,7.125-4.5,12.5-0.625"/>
		<path style="fill:none;stroke:#000D2D;stroke-width:2;stroke-linecap:round;stroke-linejoin:round;stroke-miterlimit:10;" d="
			M312.412,66.683c0,0-9,10.905,7,21.405"/>
		<path style="fill:none;stroke:#000D2D;stroke-width:2;stroke-linecap:round;stroke-linejoin:round;stroke-miterlimit:10;" d="
			M304.995,80.579c0,0,7.167,10.092,16.5,12.925"/>
		<path style="fill:none;stroke:#000D2D;stroke-width:2;stroke-linecap:round;stroke-linejoin:round;stroke-miterlimit:10;" d="
			M250,344.671c0,0-5.933,16.159,4.198,19.746"/>
		<path style="fill:none;stroke:#000D2D;stroke-width:2;stroke-linecap:round;stroke-linejoin:round;stroke-miterlimit:10;" d="
			M366.365,268.819c0,0,9.631,12.36,3.964,21.939"/>
		<path style="fill:none;stroke:#000D2D;stroke-width:2;stroke-linecap:round;stroke-linejoin:round;stroke-miterlimit:10;" d="
			M375.995,277.8c0,0,2,13.544-5.333,20.874"/>
		<path style="fill:none;stroke:#000D2D;stroke-width:2;stroke-linecap:round;stroke-linejoin:round;stroke-miterlimit:10;" d="
			M85.995,296.775c0,0-8.077,8.532,2,23.584"/>
		<path style="fill:none;stroke:#000D2D;stroke-width:2;stroke-linecap:round;stroke-linejoin:round;stroke-miterlimit:10;" d="
			M77.329,308.567c0,0,4,11.674,10.667,19.556"/>
		<path style="fill:none;stroke:#000D2D;stroke-width:2;stroke-linecap:round;stroke-linejoin:round;stroke-miterlimit:10;" d="
			M101.58,230.099c0,0-9.648-1.543-16.116,2.348"/>
		<path style="fill:none;stroke:#000D2D;stroke-width:2;stroke-linecap:round;stroke-linejoin:round;stroke-miterlimit:10;" d="
			M90.829,227.347c-0.5,0.158-5.667,0.83-12,5.744"/>
	</g>
	<g>
		<g>
			<ellipse style="opacity:0.1;fill:#04080F;" cx="418.725" cy="296.775" rx="32.311" ry="5.714"/>
			<ellipse style="opacity:0.1;fill:#04080F;" cx="477.446" cy="272.854" rx="19.58" ry="3.462"/>
			<path style="fill:#EBAF4F;" d="M427.037,99.377c5.504-5.312,4.222-21.321-7.811-24.91c-10.894-3.249-13.933-8.866-11.611-15.833
				c2.322-6.966-9.077-9.711-9.469-13.854c-0.392-4.144-12.274-6.834-18.185-4.301c-5.911,2.533-3.378,8.601-3.378,8.601
				s-5.698,4.91-2.955,10.398c2.743,5.488,12.047,9.942,13.722,31.085C388.616,106.557,408.882,116.898,427.037,99.377z"/>
			<g>
				<path style="fill:#F16192;" d="M392.416,134.42c-5.408-4.185-8.087-7.84-9.085-11.186c0,0-21.812-6.563-32.08,2.953
					c0,0,1.9,19.21,8.022,40.532c6.122,21.321,14.988,35.043,14.566,38.843c0,0,1.42,0.035,3.767-0.092
					c4.213-0.229,11.42-0.983,18.818-3.412c4.253-1.396,8.567-3.347,12.411-6.07c5.352-3.791,9.789-9.078,11.87-16.454
					c0.244-0.865,0.456-1.759,0.633-2.682C421.337,176.851,410.149,148.141,392.416,134.42z"/>
				<path style="fill:none;stroke:#BF2C64;stroke-width:2;stroke-linecap:round;stroke-linejoin:round;stroke-miterlimit:10;" d="
					M352.219,133.688c0,0,14.339-8.669,34.895-4.118"/>
				<path style="fill:none;stroke:#BF2C64;stroke-width:2;stroke-linecap:round;stroke-linejoin:round;stroke-miterlimit:10;" d="
					M377.469,121.916c0,0,3.286,12.574,13.102,21.123c9.816,8.55,26.859,29.297,28.154,41.643"/>
			</g>
			<path style="fill:#E6605F;" d="M476.634,40.69c-1.489,0.106-6.955-2.111-3.999-2.525c2.956-0.414,4.75-2.014,3.694-2.014
				c-1.056,0-7.389-1.478-11.611-2.639c-4.222-1.161-14.113,8.908-14.113,8.908c-0.001,0.003-0.001,0.006-0.002,0.01
				c-1.046,4,3.348,3.432,3.348,3.432c0.557-0.396,1.202-0.676,1.898-0.875c4.321-1.232,10.733,0.805,11.823-0.286
				c1.267-1.267-2.533-1.689-4.75-3.167c-2.217-1.478,0.422-1.794,7.283,0.621C477.068,44.57,478.124,40.584,476.634,40.69z"/>
			<g>
				<path style="fill:#3A66CF;" d="M423.503,268.819L423.503,268.819c2.996,4.315,0.077,7.842-2.166,9.995
					c-2.639,2.533-1.794,9.816-12.203,15.833c-5.328,3.08-7.779,3.002-8.1,1.305l-0.042,0.032c0,0-1.713,3.483,1.295,3.958
					c3.008,0.475,15.199-4.591,17.099-9.341c1.9-4.75,0-8.037,4.116-10.273C427.619,278.092,429.202,272.371,423.503,268.819z"/>
				<path style="fill:#091323;" d="M423.503,268.819c-0.38-0.547-0.85-1.107-1.434-1.678c-2.988,4.543-8.054,11.181-13.237,13.187
					c-0.448,2.756-1.469,5.381-3.538,7.669c-2.937,3.246-4.566,6.337-4.259,7.955c0.322,1.697,2.772,1.774,8.1-1.305
					c10.408-6.016,9.564-13.299,12.203-15.833C423.58,276.661,426.499,273.134,423.503,268.819z"/>
			</g>
			<g>
				<path style="fill:#3A66CF;" d="M485.096,215.041c-4.535-4.393-4.539-13.783-10.985-11.639c2.598,1.11,3.723,3.954,4.362,6.137
					c1.028,3.51,7.878,6.125,8.408,18.135c0.29,6.568-1.1,8.56-2.928,7.648c0,0,1.426,2.108,4.685,1.258
					C491.898,235.731,489.63,219.434,485.096,215.041z"/>
				<path style="fill:#091323;" d="M486.881,227.675c-0.53-12.011-7.379-14.625-8.408-18.135c-0.639-2.183-1.764-5.027-4.362-6.137
					c-1.403-0.599-3.234-0.694-5.654,0.098c2.649,4.748,6.198,12.307,5.583,17.831c2.238,1.67,4.095,3.788,5.168,6.68
					c1.414,3.81,3.229,6.557,4.744,7.313C485.781,236.235,487.171,234.242,486.881,227.675z"/>
			</g>
			<g>
				<path style="fill:#E6605F;" d="M365.817,57.789c-1.58-6.122-7.593-6.517-13.547-8.315c-0.411-0.124-0.821-0.254-1.23-0.394
					c-0.688-0.235-1.623-0.229-2.744-0.019c0.235,2.908,3.625,7.223,3.625,7.223l0,0.001c0.304-0.057,0.569-0.07,0.787-0.035
					c0.084,0.014,0.162,0.033,0.231,0.061c1.101,0.459,2.007,3.889,2.876,5.357c1.132,1.909,2.074,1.758,1.979,0.343
					c-0.317-4.75-0.211-6.966,1.478-2.955c1.689,4.011,5.7,11.4,5.911,9.922c0.211-1.478-2.111-8.022-0.633-5.278
					c1.478,2.744,5.067,4.433,6.122,4.304C371.728,67.876,367.506,64.334,365.817,57.789z"/>
				<path style="fill:#091323;" d="M348.938,57.51c1.146-0.634,2.195-1.077,2.983-1.224l0-0.001c0,0-3.39-4.314-3.625-7.223
					c-1.133,0.212-2.457,0.634-3.908,1.225C345.306,53.652,347.378,56.078,348.938,57.51z"/>
			</g>
			<path style="fill:#091323;" d="M455.851,44.987c-0.697,0.199-1.341,0.479-1.898,0.875c0,0-4.394,0.568-3.348-3.432
				c-1.12,0.517-2.707,1.787-4.708,3.555c0.805,1.811,2.937,4.913,8.06,4.835c0.033-0.068,0.069-0.143,0.101-0.208
				C455.381,47.965,455.918,46.201,455.851,44.987z"/>
			<g>
				<path style="fill:#0D1D37;" d="M445.896,45.985c-7.954,7.027-22.558,22.053-41.448,30.171
					c-6.428,2.762-12.68,4.132-18.441,4.639c2.997,0.945,5.446,2.318,6.04,3.822c0.903,2.283-0.739,6.65-10.872,4.855
					c-10.133-1.794-9.394-6.65-9.394-6.65c-0.034-0.981,0.422-1.716,1.211-2.243c-10.191-1.208-16.887-4.424-16.887-4.424
					s-12.244-4.644-15.41-8.151c-2.277-2.522,3.739-8.004,8.242-10.495c-1.56-1.432-3.632-3.858-4.55-7.223
					c-10.337,4.208-27.19,17.058-28.18,24.813c-1.267,9.922,27.443,13.933,25.965,18.577c-1.478,4.644,7.6,10.555,0.211,15.199
					c-7.389,4.644-3.8,5.911-3.166,14.566c0.633,8.655-5.278,2.955-3.589,10.133c1.689,7.178,8.655-2.111,24.91-2.955
					c16.255-0.844,25.121,10.977,33.143,7.811c8.022-3.167-7.6-10.977-0.211-14.988c7.389-4.011,2.744-6.122,1.9-14.777
					c-0.844-8.655,32.088-19.632,39.687-24.488c7.527-4.809,15.465-26.382,18.898-33.358
					C448.833,50.897,446.701,47.795,445.896,45.985z"/>
				<path style="fill:#091323;" d="M371.783,82.822c0,0-0.739,4.855,9.394,6.65c10.133,1.794,11.774-2.572,10.872-4.855
					c-0.594-1.504-3.043-2.877-6.04-3.822c-4.732,0.416-9.125,0.246-13.014-0.215C372.204,81.107,371.749,81.841,371.783,82.822z"/>
			</g>
			<path style="fill:none;stroke:#FFFFFF;stroke-width:2;stroke-linecap:round;stroke-linejoin:round;stroke-miterlimit:10;" d="
				M401.52,94.75c0,0-9.148,3.8-9.257,11.716"/>
			<path style="fill:none;stroke:#FFFFFF;stroke-width:2;stroke-linecap:round;stroke-linejoin:round;stroke-miterlimit:10;" d="
				M365.292,107.262c0,0,5.32-2.667,9.557,0.875c3.966,3.316,7.13,6.337,13.54,4.088c1.89-0.663,3.132-1.959,3.302-3.335"/>
			<g>
				<path style="fill:#E6605F;" d="M410.043,229.416c-1.267-6.333-3.8-17.934-10.45-23.85c-1.292-1.15-2.331-2.339-3.17-3.509
					c-7.398,2.429-14.605,3.183-18.818,3.412c0.348,1.937,0.969,4.075,2.038,6.214c2.619,5.239,17.593,28.383,24.86,42.638
					c2.341-0.714,5.441-2.261,9.523-5.228C412.032,241.044,410.698,232.69,410.043,229.416z"/>
				<path style="fill:#DEE8F9;" d="M408.832,280.328c5.183-2.005,10.249-8.644,13.237-13.187c-0.229-0.224-0.468-0.449-0.731-0.676
					c-3.008-2.6-5.447-9.853-7.31-17.371c-4.082,2.967-7.182,4.514-9.523,5.228c2.396,4.701,3.956,8.437,3.956,10.243
					C408.46,269.342,409.686,275.073,408.832,280.328z"/>
			</g>
			<g>
				<path style="fill:#E6605F;" d="M456.171,200.068c-1.35-0.705-2.824-1.537-4.435-2.529c-10.977-6.755-19.21-3.589-19.21-3.589
					s-7.032-8.241-11.821-14.417c-2.08,7.375-6.518,12.663-11.87,16.454c4.409,5.838,9.622,12.33,11.447,13.585
					c2.969,2.042,20.497,1.817,34.213,3.837C455.54,210.355,456.914,205.084,456.171,200.068z"/>
				<path style="fill:#DEE8F9;" d="M474.041,221.33c0.615-5.523-2.934-13.082-5.583-17.831c-0.304,0.1-0.614,0.208-0.938,0.336
					c0,0-3.503,0.33-11.348-3.768c0.743,5.016-0.631,10.287-1.677,13.341c1.885,0.278,3.7,0.597,5.393,0.971
					C464.552,215.411,469.774,218.146,474.041,221.33z"/>
			</g>
			<path style="fill:#E6605F;" d="M381.861,49.081c0,0-6.808,17.891-6.491,20.741c0.317,2.85,6.808,2.375,6.491,4.591
				c-0.317,2.216-3.821,7.283-6.502,8.233c-2.681,0.95,7.927,6.65,13.943,3.166c0,0,1.979-13.933,3.879-15.674
				c1.9-1.742,2.403-0.361,4.577-3.621c1.122-1.683-0.382-2.87-2.123-2.712C395.635,63.806,402.602,48.923,381.861,49.081z"/>
			<path style="fill:#CE3C3C;" d="M380.872,73.084c0,0,4.104,0.555,6.426-0.711c2.322-1.267,0.352,5.359-7.424,6.11
				C379.875,78.483,383.519,74.018,380.872,73.084z"/>
			<path style="fill:none;stroke:#CE3C3C;stroke-linecap:round;stroke-linejoin:round;stroke-miterlimit:10;" d="M422.068,208.323
				c0,0,3.229,0.633,3.968-1.583"/>
			<path style="fill:none;stroke:#CE3C3C;stroke-linecap:round;stroke-linejoin:round;stroke-miterlimit:10;" d="M382.971,213.073
				c0,0,3.167,1.478,6.122-1.372"/>
		</g>
		<path style="fill:none;stroke:#001953;stroke-linecap:round;stroke-linejoin:round;stroke-miterlimit:10;" d="M396.571,65.113
			c0,0-1.523-0.684-2.552,2.132c0,0,0.981-1.327,2.098-0.431"/>
		<g>
			<path style="fill:none;stroke:#001953;stroke-linecap:round;stroke-linejoin:round;stroke-miterlimit:10;" d="M384.536,58.887
				c0,0-4.064,4.689-0.982,5.199"/>
			<path style="fill:none;stroke:#001953;stroke-linecap:round;stroke-linejoin:round;stroke-miterlimit:10;" d="M387.162,66.25
				c-0.066,0.091-3.139,3.258-5.603-0.473"/>
			<path style="fill:#CE3C3C;" d="M390.112,64.755c0,0-0.645-1.839-1.241-1.632c-0.595,0.208,0.192,4.536,0.33,4.512
				c0.138-0.023,3.806-1.749,3.174-2.59C391.742,64.203,390.112,64.755,390.112,64.755z"/>
			<path style="fill:#CE3C3C;" d="M379.103,61.181c0,0,1.631-1.066,1.977-0.539c0.346,0.527-2.912,3.483-3.008,3.38
				c-0.095-0.103-1.956-3.704-0.942-3.987C378.144,59.751,379.103,61.181,379.103,61.181z"/>
			<path style="fill:none;stroke:#001953;stroke-linecap:round;stroke-linejoin:round;stroke-miterlimit:10;" d="M388.26,56.341
				c0,0,3.421-0.888,5.384,1.875"/>
			<path style="fill:#001953;" d="M387.952,59.735c0.245-0.101,0.516-0.1,0.761,0.002c0.506,0.211,0.746,0.795,0.535,1.301
				c-0.102,0.245-0.294,0.436-0.54,0.537c-0.167,0.069-0.345,0.091-0.52,0.065c-0.082-0.012-0.163-0.034-0.241-0.067
				c-0.245-0.102-0.436-0.294-0.537-0.539c-0.101-0.246-0.1-0.516,0.002-0.761C387.515,60.027,387.706,59.836,387.952,59.735z"/>
			<path style="fill:none;stroke:#001953;stroke-linecap:round;stroke-linejoin:round;stroke-miterlimit:10;" d="M380.542,52.719
				c0,0,3.372-0.416,4.694,2.523"/>
			<path style="fill:#001953;" d="M379.664,56.247c0.245-0.101,0.516-0.1,0.761,0.002c0.506,0.211,0.746,0.795,0.535,1.301
				c-0.102,0.245-0.294,0.436-0.54,0.537c-0.167,0.069-0.345,0.09-0.52,0.065c-0.082-0.012-0.163-0.034-0.241-0.067
				c-0.245-0.102-0.436-0.294-0.537-0.54c-0.101-0.246-0.1-0.516,0.002-0.761C379.227,56.539,379.419,56.348,379.664,56.247z"/>
		</g>
	</g>
	<g>
		<g>
			<g>
				<path style="fill:#E82D55;" d="M230.112,71.004c-6.492-1.425-15.833-15.358-4.987-16.941c1.748-0.255,3.333-0.368,4.791-0.396
					c-1.576-0.736-3.042-1.766-4.075-3.502c-3.156-5.301-5.932-16.03-14.642-14.641s-12.874,10.729-18.807,4.923
					c-5.932-5.806-14.515-4.923-16.409,1.893c-1.893,6.816,7.447,8.835,3.534,14.01c-3.913,5.175-1.515,10.098,9.971,10.855
					c11.486,0.757,13.758,14.389,13.758,19.059c0,4.67,11.139,7.339,20.574,1.01c9.435-6.329,20.195-18.302,14.389-21.331
					C238.21,65.942,236.604,72.428,230.112,71.004z"/>
				<path style="fill:#E6605F;" d="M188.499,48.178c-1.689,2.006,0.105,10.555,1.583,10.766c1.478,0.211,1.267-1.267,1.267-3.905
					c0-2.639,4.011-8.655,1.583,1.794c-2.428,10.45,1.161,10.45,1.161,10.45c0.95-0.317,1.9-9.5,1.9-9.5
					c0,9.5,6.333,9.183,4.433,6.966c-1.9-2.216,0-9.816,0-12.033c0-2.217-3.483-7.283-7.6-9.183c-1.95-0.9-10.65,0.545-19.334,2.955
					c0.305,3.158,1.89,6.249,2.82,7.993C181.689,51.521,188.499,48.178,188.499,48.178z"/>
				<g>
					<path style="fill:#E6605F;" d="M186.799,197.18c-0.568,0.105-1.384,0.384-2.146,0.965c-0.22,2.921,0.195,8.579,6.107,11.147
						c-0.476-2.095-0.744-3.957-0.506-5.067C186.559,202.523,186.659,198.478,186.799,197.18z"/>
					<path style="fill:#091323;" d="M223.119,194.05c-1.478-5.911-4.433-27.021-16.466-40.004c0,0-3.061-0.475-6.227-1.742
						c-3.167-1.267-18.999-13.774-18.999-13.774s6.016,28.71,12.35,39.687c6.333,10.977,11.188,14.566,8.233,15.199
						c-2.956,0.633-4.011-5.278-12.877,1.689c-0.805,0.633-1.564,1.182-2.277,1.657c0,0-0.028,0.16-0.056,0.417
						c-0.14,1.298-0.24,5.342,3.455,7.045c0.12,0.055,0.227,0.118,0.355,0.168c4.855,1.9,14.144,11.4,21.743,10.133
						c0.326-0.054,0.643-0.138,0.958-0.235C220.337,212.127,224.534,199.708,223.119,194.05z"/>
				</g>
				<g>
					<path style="fill:#DEE8F9;" d="M192.626,216.14l-0.01-0.003c0.589,2.05,1.058,3.761,1.082,4.565
						c0.079,2.691-6.017,1.425-8.391-3.404c-2.375-4.829-3.404-14.17-2.216-17.099c0.158-0.39,0.357-0.723,0.575-1.025l-0.002-0.01
						c0,0-2.711,0.323-3.028,5.311c-0.317,4.987,0.792,8.629,1.187,11.32c0.307,2.09,1.822,10.608,11.875,9.579
						C196.839,225.051,195.69,221.235,192.626,216.14z"/>
					<path style="fill:#091323;" d="M192.615,216.137c-0.61-2.125-1.349-4.615-1.855-6.844c-5.913-2.568-6.327-8.226-6.107-11.147
						c-0.355,0.27-0.691,0.615-0.988,1.027c-0.218,0.302-0.417,0.636-0.575,1.025c-1.188,2.929-0.158,12.27,2.216,17.099
						c2.375,4.829,8.471,6.096,8.391,3.404C193.673,219.897,193.204,218.186,192.615,216.137z"/>
				</g>
				<path style="fill:#DEE8F9;" d="M212.408,290.695c1.036,2.182,0.299,3.734-6.388,3.629c-13.511-0.211-9.077-8.233-8.866-12.033
					c0.057-1.02,0.557-2.652,1.256-4.49c-0.946,0.19-2.038,0.665-2.117,1.867c-0.695,10.54-3.545,12.281,0.861,16.002
					c4.106,3.467,16.73,2.771,18.155-0.238C215.949,294.08,214.981,292.597,212.408,290.695z"/>
				<g>
					<g>
						<path style="fill:#E6605F;" d="M202.604,268.425c-1.157,2.347-2.978,6.175-4.194,9.375c-0.699,1.838-1.199,3.47-1.256,4.49
							c0,0,6.399-6.78,10.615-1.728c0,0,0,0,0,0c-0.447-3.227-0.676-6.401,1.152-10.044
							C205.625,270.814,203.689,269.601,202.604,268.425z"/>
						<path style="fill:#0D1D37;" d="M231.141,208.51c1.857-7.893,14.485-42.468,4.117-63.964
							c-3.774-7.824-13.441-12.474-23.749-15.516c0,0-1.952,4.961-14.069,7.726c-4.081,0.931-9.312,1.614-16.013,1.774
							c0,0,15.833,12.508,18.999,13.774c3.167,1.267,6.227,1.742,6.227,1.742c12.033,12.983,14.988,34.093,16.466,40.004
							c1.414,5.658-2.782,18.077-9.808,20.242c0.031,0.331,0.067,0.612,0.108,0.868c0.306,1.9-3.494,34.832-12.043,51.298
							c0,0,0.308,0.97,1.228,1.967c1.085,1.175,3.021,2.388,6.316,2.094c0.871-0.078,1.836-0.261,2.905-0.578
							c0,0,18.999-25.332,19.316-36.098C231.458,223.076,228.608,219.277,231.141,208.51z"/>
					</g>
					<path style="fill:#091323;" d="M206.02,294.324c6.688,0.105,7.424-1.447,6.388-3.629c-1.057-2.226-3.958-5.107-4.277-7.559
						c-0.113-0.868-0.245-1.722-0.363-2.572c0,0,0,0,0,0c-4.215-5.052-10.615,1.728-10.615,1.728
						C196.943,286.091,192.509,294.112,206.02,294.324z"/>
				</g>
				<path style="fill:#E6605F;" d="M224.069,60.105c-4.75-2.533-10.661,9.394-10.661,9.394c0.475-3.8-2.322-5.7-4.961-3.378
					c-2.639,2.322,0.844,4.961,0.105,8.444c-0.739,3.483-1.478,5.7-1.478,5.7c-1.819,4.43-6.12,4.017-9.722,2.541
					c1.262,2.905,2.9,8.129,1.647,13.767c0,0,14.541-3.42,24.03-4.288c-5.253-2.851-8.989-3.787-8.989-3.787
					c0.083-0.376,0.157-0.74,0.227-1.095c-9.114-3.549-3.631-10.226-3.631-10.226c-1.504,2.771,5.38,6.031,5.38,6.031
					s0.007,0.007,0.009,0.01c0.312,0.049,0.693,0.275,1.181,0.741c2.322,2.217,4.644,1.267,8.127-2.217
					c3.483-3.483,7.494-13.194,7.916-15.622C233.674,63.694,228.819,62.639,224.069,60.105z"/>
				<path style="fill:#CE3C3C;" d="M210.638,77.178c0,0-5.482,6.677,3.631,10.226c0.489-2.481,0.731-4.347,1.758-4.185
					c-0.003-0.003-0.009-0.01-0.009-0.01S209.134,79.949,210.638,77.178z"/>
				<g>
					<path style="fill:#E6605F;" d="M257.74,81.849c-1.267-4.116-4.433-7.283-12.35-7.6c-7.916-0.317-14.249,9.183-11.26,10.133
						c2.989,0.95,8.49-4.908,12.21-4.117c6.071,1.292-1.9,4.433,0.633,6.333c1.292,0.969,6.333-3.8,6.333-3.8
						s0.664,3.994,0.858,8.489l5.565-1.195C258.942,86.258,258.131,83.118,257.74,81.849z"/>
					<path style="fill:#B2B9D3;" d="M254.214,94.253c1.991,0.099,4.198-0.16,6.078-1.274c-0.181-0.992-0.371-1.959-0.561-2.886
						l-5.565,1.195C254.207,92.265,254.228,93.264,254.214,94.253z"/>
					<path style="fill:#3A66CF;" d="M254.214,94.253c-0.02,1.367-0.108,2.707-0.288,3.933c1.771,0.203,4.519,0.206,7.044-1.084
						c-0.202-1.391-0.433-2.779-0.678-4.123C258.412,94.093,256.205,94.351,254.214,94.253z"/>
				</g>
				<g>
					<path style="fill:#B2B9D3;" d="M176.312,54.482c-0.93-1.744-2.515-4.835-2.82-7.993c-0.902,0.25-1.803,0.511-2.697,0.78
						c0.533,3.998,2.527,6.761,3.813,8.167C175.152,55.126,175.723,54.806,176.312,54.482z"/>
					<path style="fill:#B2B9D3;" d="M260.97,97.102c-2.525,1.29-5.272,1.286-7.044,1.084c-0.462,3.141-1.548,5.512-3.786,5.512
						c-3.522,0-14.206-2.927-21.991-8.275c-1.805-1.24-3.53-2.275-5.119-3.137c-9.488,0.867-24.03,4.288-24.03,4.288
						c1.253-5.638-0.386-10.862-1.647-13.767c-1.205-0.494-2.331-1.106-3.261-1.696c-2.72-1.727-5.489-8.022-14.038-12.772
						c-12.519-6.955-10.766-12.877-10.766-12.877l0.686,3.114c0.171-0.268,0.662-0.666,1.378-1.153
						c-3.454-4.04-3.748-7.343-3.493-9.225c-7.452,2.467-13.714,5.461-13.982,8.003c-0.633,6.016,27.232,33.882,27.232,33.882
						c-10.766,3.8-2.533,16.304-2.533,16.304c-2.216,5.537,2.85,32.144,2.85,32.144c0.835-0.02,1.647-0.048,2.437-0.083
						c0.189-0.009,0.365-0.021,0.552-0.031c0.594-0.03,1.187-0.06,1.755-0.098c0.173-0.012,0.334-0.027,0.505-0.04
						c0.567-0.041,1.131-0.083,1.673-0.132c0.143-0.013,0.277-0.029,0.418-0.043c0.556-0.053,1.109-0.108,1.638-0.169
						c0.089-0.01,0.172-0.023,0.26-0.033c0.571-0.068,1.133-0.138,1.674-0.215c0.05-0.007,0.096-0.015,0.146-0.022
						c0.572-0.082,1.131-0.168,1.669-0.259c0.019-0.003,0.037-0.007,0.056-0.01c0.565-0.096,1.112-0.196,1.642-0.301
						c0.01-0.002,0.019-0.004,0.029-0.006c0.537-0.106,1.056-0.217,1.557-0.331c0,0,0,0,0.001,0
						c12.117-2.765,14.069-7.726,14.069-7.726s-2.58-7.644,0-9.183c6.017-3.589,4.75-9.183,6.333-11.083
						c1.583-1.9,36.732,7.916,41.798,4.433C262.254,111.4,262.001,104.209,260.97,97.102z"/>
					<path style="fill:#3A66CF;" d="M171.353,57.421c0.83-0.565,1.964-1.248,3.255-1.986c-1.286-1.406-3.28-4.169-3.813-8.167
						c-0.992,0.299-1.973,0.609-2.936,0.928C167.605,50.078,167.898,53.381,171.353,57.421z"/>
				</g>
				<path style="fill:#3A66CF;" d="M196.23,100.69c0,0,17.946-5.7,30.681-6.093c-1.357-0.882-2.66-1.649-3.881-2.312
					c-9.488,0.867-24.03,4.288-24.03,4.288c1.253-5.638-0.386-10.862-1.647-13.767c-0.952-0.39-1.851-0.855-2.647-1.324
					C195.595,84.079,198.073,92.464,196.23,100.69z"/>
				<path style="fill:none;stroke:#FFFFFF;stroke-width:2;stroke-linecap:round;stroke-linejoin:round;stroke-miterlimit:10;" d="
					M183.801,148.742c0,0,25.035,1.37,39.592-15.108"/>
				<path style="fill:none;stroke:#FFFFFF;stroke-width:2;stroke-linecap:round;stroke-linejoin:round;stroke-miterlimit:10;" d="
					M219.746,137.229c0,0,15.406,11.856,13.295,32.755c-2.111,20.899-7.6,38.652-7.389,44.658c0.211,6.006,4.557,16.139-2.26,29.65
					c-6.817,13.511-14.472,26.227-14.472,26.227"/>
				<path style="fill:none;stroke:#FFFFFF;stroke-width:2;stroke-linecap:round;stroke-linejoin:round;stroke-miterlimit:10;" d="
					M206.653,154.046c0,0-2.111,6.924,5.964,22.54c8.075,15.616,11.362,27.338,0.694,37.706"/>
				<path style="fill:#E82D55;" d="M238.21,57.991c-1.358-2.547-5.057-2.812-8.294-4.324c-1.457,0.028-3.043,0.141-4.791,0.396
					c-10.845,1.583-1.504,15.516,4.987,16.941c6.491,1.425,8.098-5.061,8.098-5.061C237.748,65.702,240.229,61.777,238.21,57.991z"
					/>
				<path style="fill:none;stroke:#274B93;stroke-width:2;stroke-linecap:round;stroke-linejoin:round;stroke-miterlimit:10;" d="
					M182.165,108.237c0,0,5.172-0.633,7.283,2.85c2.111,3.483,4.961,11.4,17.205,8.866"/>
				<path style="fill:none;stroke:#274B93;stroke-width:2;stroke-linecap:round;stroke-linejoin:round;stroke-miterlimit:10;" d="
					M219.108,104.542c0,0-5.277-0.09-5.7,3.649"/>
				<path style="fill:none;stroke:#274B93;stroke-width:2;stroke-linecap:round;stroke-linejoin:round;stroke-miterlimit:10;" d="
					M187.801,114.318c0,0-2.149,2.785,0,7.943c2.149,5.157,5.282,8.48,5.658,12.786"/>
			</g>
			<ellipse style="opacity:0.1;fill:#04080F;" cx="202.102" cy="296.775" rx="32.311" ry="5.714"/>
		</g>
		<path style="fill:none;stroke:#001953;stroke-linecap:round;stroke-linejoin:round;stroke-miterlimit:10;" d="M210.706,66.935
			c0,0,2.065,0.659,0.62,4.273c0,0,0.201-2.133-1.655-2.235"/>
		<g>
			<path style="fill:none;stroke:#001953;stroke-linecap:round;stroke-linejoin:round;stroke-miterlimit:10;" d="M224.739,73.348
				c0,0-0.103,6.204-2.738,4.527"/>
			<path style="fill:none;stroke:#001953;stroke-linecap:round;stroke-linejoin:round;stroke-miterlimit:10;" d="M217.869,77.079
				c-0.012,0.111,0.163,4.521,4.489,3.387"/>
			<path style="fill:#CE3C3C;" d="M216.67,73.996c0,0,1.708-0.938,2.013-0.387c0.305,0.552-3.17,3.25-3.257,3.14
				c-0.087-0.11-1.667-3.843-0.635-4.048C215.824,72.498,216.67,73.996,216.67,73.996z"/>
			<path style="fill:#CE3C3C;" d="M227.254,77.792c0,0-0.503-1.883-1.113-1.721c-0.609,0.161-0.156,4.537-0.016,4.524
				c0.139-0.013,3.929-1.453,3.363-2.34C228.922,77.368,227.254,77.792,227.254,77.792z"/>
			<path style="fill:none;stroke:#001953;stroke-linecap:round;stroke-linejoin:round;stroke-miterlimit:10;" d="M223.665,68.967
				c0,0-1.955-2.945-5.261-2.197"/>
			<path style="fill:#001953;" d="M221.629,71.7c-0.116-0.239-0.317-0.418-0.568-0.507c-0.518-0.18-1.086,0.094-1.266,0.612
				c-0.087,0.251-0.072,0.521,0.044,0.76c0.079,0.163,0.197,0.298,0.344,0.395c0.069,0.046,0.144,0.083,0.225,0.111
				c0.251,0.088,0.521,0.072,0.76-0.043s0.419-0.317,0.507-0.568C221.76,72.209,221.744,71.939,221.629,71.7z"/>
			<path style="fill:none;stroke:#001953;stroke-linecap:round;stroke-linejoin:round;stroke-miterlimit:10;" d="M231.829,71.421
				c0,0-2.234-2.56-5.179-1.254"/>
			<path style="fill:#001953;" d="M230.129,74.633c-0.116-0.239-0.317-0.418-0.568-0.507c-0.518-0.18-1.086,0.094-1.266,0.612
				c-0.087,0.251-0.072,0.521,0.044,0.76c0.078,0.163,0.197,0.298,0.344,0.395c0.069,0.046,0.144,0.083,0.225,0.111
				c0.251,0.088,0.521,0.072,0.76-0.043c0.239-0.116,0.419-0.317,0.507-0.568C230.26,75.143,230.244,74.873,230.129,74.633z"/>
		</g>
	</g>
	<g>
		<g>
			<path style="fill:#EE9D68;" d="M22.799,238.811c-1.913,0.222-3.618,0.464-4.752,1.183c-3.246,2.058-9.025,5.541-9.025,14.724
				c0,9.183,2.925,5.52,3.641,4.037c0.961-1.988,2.217-6.412,3.483-6.729c1.267-0.317,0.633,6.966,2.85,6.966
				c2.132,0,1.337-12.292,5.215-13.518C24.31,243.691,24.131,241.132,22.799,238.811z"/>
			<g>
				<g>
					<path style="fill:#F16192;" d="M173.841,241.578c0-5.7-2.533-16.783-5.383-17.733c-0.275-0.091-0.541-0.164-0.803-0.226
						c0.554,0.702,0.908,1.176,0.908,1.176c-0.211,1.478-3.272,2.85-4.011,1.689c-0.215-0.338-0.639-0.466-1.149-0.476
						c0.19,2.396,2.697,8.064-0.962,10.504c-3.8,2.533-31.894,1.221-42.432,0c-6.37-0.738-13.141-2.692-25.649,0
						c-7.2,1.549-31.982,6.016-35.149,5.7c-2.718-0.272-24.807-4.744-36.413-3.4c1.332,2.321,1.511,4.88,1.413,6.665
						c0.155-0.049,0.315-0.086,0.485-0.098c4.433-0.317,28.499,11.083,35.782,11.083s37.365-6.966,41.165-4.116
						c3.8,2.85,9.183,25.966,4.75,32.615c-4.063,6.094-17.157,13.791-15.174,29.658c1.162,0.107,2.457,0.21,3.844,0.298
						c7.819,0.499,18.734,0.515,27.383-2.084c4.596-1.382,8.552-3.501,11.057-6.68c-0.591-6.36-1.374-18.509,0.44-25.308
						c2.533-9.5,2.85-9.183,5.7-12.666c2.85-3.483,7.916-6.65,4.433-15.516C144.076,252.661,173.841,247.277,173.841,241.578z"/>
					<path style="fill:#EE9D68;" d="M167.655,223.619c-1.553-1.969-4.687-5.751-6.087-6.062c-1.9-0.422-4.51-1.55-6.65,0.377
						c-0.939,0.845-5.777,1.161-5.565,2.85c0.211,1.689,8.233,0.095,8.128,2.633c-0.106,2.538-5.172,0.216-5.172,1.905
						c0,1.689,6.65,1.9,7.494,1.583c0.598-0.224,2.361-0.922,3.601-0.898c0.51,0.01,0.934,0.138,1.149,0.476
						c0.739,1.161,3.8-0.211,4.011-1.689C168.563,224.795,168.209,224.322,167.655,223.619z"/>
				</g>
				<path style="fill:#D3296A;" d="M133.503,306.151c-2.505,3.18-6.46,5.299-11.057,6.68c-8.648,2.599-19.563,2.583-27.383,2.084
					c-1.387-0.088-2.682-0.191-3.844-0.298c0.181,1.446,0.475,2.954,0.925,4.541c0,0,0.666,0.13,1.832,0.304
					c4.841,0.724,18.359,2.213,29.129-1.639c4.29-1.535,8.144-3.915,10.837-7.531C133.943,310.292,133.738,308.677,133.503,306.151z
					"/>
			</g>
			<path style="fill:none;stroke:#091323;stroke-width:2;stroke-linecap:round;stroke-linejoin:round;stroke-miterlimit:10;" d="
				M111.63,267.61c0,0,4.187,6.016,11.039,4.275c6.852-1.742,6.196-3.642,11.274-4.275"/>
			<path style="fill:#3A66CF;" d="M125.989,333.375c-0.037-0.178-0.073-0.355-0.109-0.532c-0.119-0.582-0.237-1.16-0.353-1.736
				c-0.052-0.257-0.104-0.515-0.155-0.771c-0.057-0.283-0.112-0.563-0.168-0.844c-0.059-0.296-0.117-0.591-0.174-0.885
				c-0.047-0.24-0.095-0.481-0.141-0.72c-0.098-0.506-0.195-1.008-0.29-1.506c-0.033-0.171-0.064-0.34-0.096-0.51
				c-0.07-0.373-0.14-0.743-0.208-1.111c-0.035-0.19-0.07-0.38-0.105-0.569c-0.074-0.401-0.145-0.797-0.216-1.19
				c-0.022-0.121-0.044-0.244-0.066-0.365c-0.089-0.499-0.174-0.99-0.258-1.474c-0.024-0.14-0.047-0.277-0.071-0.416
				c-0.063-0.373-0.124-0.74-0.184-1.103c-0.023-0.14-0.046-0.28-0.069-0.418c-0.077-0.476-0.152-0.947-0.222-1.404
				c-10.77,3.853-24.288,2.363-29.129,1.639c1.418,6.175,5.349,22.361,9.885,32.944c5.7,13.299,15.858,20.266,8.721,26.916
				c-4.02,3.745-5.647,8.194-6.592,13.346c6.34,2.775,13.253,4.33,18.253,5.173c0.572-1.116,1.174-2.224,1.813-3.32
				c9.787-16.783,9.471-16.783,7.887-25.016c-0.894-4.65-4.616-20.107-7.629-34.564c-0.032-0.153-0.063-0.306-0.095-0.458
				C126.141,334.114,126.065,333.744,125.989,333.375z"/>
			<path style="fill:#274B93;" d="M173.841,360.323c0-6.544-39.898-50.031-39.898-50.031c-2.693,3.617-6.548,5.997-10.837,7.531
				c0.07,0.458,0.145,0.928,0.222,1.404c0.022,0.138,0.046,0.278,0.069,0.418c0.06,0.363,0.121,0.731,0.184,1.103
				c0.024,0.139,0.047,0.276,0.071,0.416c0.083,0.484,0.169,0.975,0.258,1.474c0.021,0.12,0.044,0.244,0.066,0.365
				c0.07,0.393,0.142,0.789,0.216,1.19c0.035,0.189,0.07,0.378,0.105,0.569c0.068,0.367,0.138,0.738,0.208,1.111
				c0.032,0.17,0.064,0.339,0.096,0.51c0.095,0.497,0.191,1,0.29,1.506c0.046,0.239,0.094,0.48,0.141,0.72
				c0.058,0.294,0.116,0.589,0.174,0.885c0.056,0.28,0.111,0.561,0.168,0.844c0.051,0.256,0.103,0.513,0.155,0.771
				c0.116,0.576,0.234,1.154,0.353,1.736c0.036,0.177,0.072,0.354,0.109,0.532c0.076,0.369,0.152,0.738,0.229,1.109
				c0.032,0.153,0.063,0.305,0.095,0.458c0.278,1.334,0.562,2.675,0.849,4.017c10.846,9.377,32.428,20.489,30.213,23.897
				c-2.658,4.09-3.336,19.868-3.472,30.063c2.741,1.362,6.593,3.031,10.625,4.009C168.626,382.325,173.841,364.268,173.841,360.323z
				"/>
			<g>
				<g>
					<path style="fill:#091323;" d="M145.21,419.804l-0.059-0.018c0,0-0.812,2.245-0.808,3.859c0,0,4.802,2.547,6.474,1.988
						c0.456-0.152,0.808-0.488,1.091-0.884c-1.056-0.22-1.959-0.217-3.1-0.576C146.04,423.302,144.969,421.583,145.21,419.804z"/>
					<g>
						<path style="fill:#091323;" d="M160.786,421.754c-1.071-2.826-3.015-4.687-2.854-6.747c0.022-0.279,0.08-0.562,0.186-0.851
							c0.108-0.293,0.24-0.619,0.392-0.97c-1.674-0.292-4.379-0.967-7.068-2.494c-0.034,0.081-0.072,0.157-0.107,0.237
							c-0.956,2.176-2.193,4.033-3.892,5.379c-1.293,1.025-2.07,2.274-2.235,3.495c-0.241,1.779,0.83,3.498,3.598,4.369
							c1.141,0.359,2.044,0.356,3.1,0.576c0.067,0.014,0.128,0.021,0.196,0.037c1.158,0.27,2.527,0.848,4.607,2.481
							c5.58,4.381,10.992,5.863,11.203,3.441C168.132,428.206,162.039,425.059,160.786,421.754z"/>
						<path style="fill:#EE9D68;" d="M158.511,413.187c-0.152,0.351-0.284,0.677-0.392,0.97c-0.107,0.289-0.165,0.572-0.186,0.851
							c0.002,0,0.004,0.001,0.007,0.001c0.539-2.352,4.123-9.292,6.589-18.081c-4.031-0.978-7.884-2.647-10.625-4.009
							c-0.004,0.329-0.008,0.652-0.012,0.969c-0.065,6.201-1.119,12.473-2.555,17.042c0.035-0.08,0.073-0.156,0.107-0.237
							C154.132,412.219,156.836,412.895,158.511,413.187z"/>
					</g>
				</g>
				<path style="fill:none;stroke:#FFFFFF;stroke-width:2;stroke-linecap:round;stroke-linejoin:round;stroke-miterlimit:10;" d="
					M153.386,411.658c0,0-2.601,3.585-3.13,7.115"/>
				<path style="fill:#EE9D68;" d="M111.983,433.82c0.672-6.123,4.553-20.939,12.259-35.979c-5.001-0.843-11.913-2.398-18.253-5.173
					c-1.589,4.259-2.25,7.898-2.961,12.738c-1.26,8.576,2.389,19.732,1.515,28.107C107.541,434.179,110.308,434.031,111.983,433.82z
					"/>
			</g>
			<g>
				<path style="fill:#0D1D37;" d="M101.279,443.986h-0.062c0,0-0.116,2.369,0.359,3.902c0,0,5.304,1.018,6.729,0
					c0.389-0.278,0.625-0.699,0.779-1.158c-1.067,0.099-1.924,0.365-3.113,0.357C103.088,447.066,101.57,445.746,101.279,443.986z"
					/>
				<path style="fill:#0D1D37;" d="M126.026,447.719c-0.523-2.44-7.229-3.652-9.382-6.425c-2.092-2.694-4.892-3.875-4.75-6.439
					c0.017-0.31,0.048-0.658,0.089-1.035c-1.676,0.211-4.442,0.359-7.44-0.307c-0.256,2.449-0.894,4.662-2.16,6.501
					c-0.929,1.35-1.303,2.764-1.104,3.972c0.291,1.76,1.809,3.081,4.692,3.1c1.188,0.008,2.046-0.258,3.113-0.357
					c0.067-0.006,0.128-0.018,0.197-0.022c1.179-0.082,2.648,0.068,5.1,1.013C120.96,450.253,126.533,450.082,126.026,447.719z"/>
			</g>
			<path style="fill:none;stroke:#FFFFFF;stroke-width:2;stroke-linecap:round;stroke-linejoin:round;stroke-miterlimit:10;" d="
				M106.669,433.864c0,0-1.425,4.164-0.897,7.671"/>
			<g>
				<path style="fill:#EE9D68;" d="M122.794,233.091c-1.851,4.629-4.843,7.537-4.843,7.537c6.808,9.183,16.308,2.375,15.833,1.425
					c-0.241-0.482-0.415-1.024-0.537-1.599C127.5,239.591,124.347,235.799,122.794,233.091z"/>
				<path style="fill:#E28B5A;" d="M133.211,234.967c-4.702-2.538-9.085-7.164-9.085-7.164c-0.201,1.932-0.701,3.709-1.332,5.287
					c1.552,2.708,4.706,6.5,10.453,7.363C132.875,238.698,132.992,236.629,133.211,234.967z"/>
				<path style="fill:#EE9D68;" d="M148.35,213.712c0,0-9.439-4.275-12.082-1.9c-1.518,1.364-4.782-0.721-6.073,0.95
					c-0.717,0.928,0.295,3.848-0.201,5.473c-0.165,0.542-1.49,1.032-2.121,1.098c-0.765,0.079,0.633-8.998-4.433-4.882
					c-0.865,0.703-1.016,2.348-0.384,5.965l0.958,6.615l0.112,0.773c0,0,4.383,4.626,9.085,7.164
					c1.804,0.974,3.655,1.641,5.323,1.62c0.702-0.009,1.383-0.298,2.036-0.797c3.225-2.461,5.789-10.145,7.028-15.819
					C148.26,216.945,148.545,214.49,148.35,213.712z"/>
			</g>
			<g>
				<path style="fill:#091323;" d="M128.243,197.246c0.643-0.118,1.337-0.195,2.062-0.241c-0.659-3.298-2.14-8.173-5.229-9.1
					c-4.75-1.425-20.107,13.933-16.308,19.791c2.661,4.102,6.913,3.307,8.751,3.917C117.724,205.28,121.269,198.522,128.243,197.246
					z"/>
				<path style="fill:#091323;" d="M154.842,209.596c-0.879-8.305-15.502-13.169-24.537-12.591
					c-0.725,0.047-1.419,0.124-2.062,0.241c-6.974,1.276-10.519,8.034-10.723,14.367c-0.049,1.526,0.094,3.028,0.432,4.422
					c1.742,7.177,6.175,11.769,6.175,11.769l-1.07-7.387c-0.632-3.616-0.481-5.262,0.384-5.965c5.066-4.117,3.668,4.961,4.433,4.882
					c0.631-0.065,1.956-0.556,2.121-1.098c0.496-1.625-0.516-4.545,0.201-5.473c1.291-1.67,4.555,0.415,6.073-0.95
					c2.643-2.375,12.082,1.9,12.082,1.9c0.195,0.778-0.091,3.233-0.752,6.259l0.001,0
					C147.599,219.971,155.792,218.568,154.842,209.596z"/>
			</g>
			<path style="fill:none;stroke:#FFFFFF;stroke-width:2;stroke-linecap:round;stroke-linejoin:round;stroke-miterlimit:10;" d="
				M101.58,320.232c0,0,4.088,24.272,11.001,35.46c6.913,11.189,9.024,18.366,5.646,23.644c-3.378,5.278-7.534,15.199-7.534,15.199"
				/>
			<path style="fill:none;stroke:#FFFFFF;stroke-width:2;stroke-linecap:round;stroke-linejoin:round;stroke-miterlimit:10;" d="
				M126.477,335.722c0,0,35.449,19.759,34.604,26.725c-0.844,6.966-2.533,8.655-2.955,16.044
				c-0.422,7.389,0.211,12.666-1.478,15.199"/>
			<path style="fill:none;stroke:#CB2909;stroke-linecap:round;stroke-linejoin:round;stroke-miterlimit:10;" d="M125.213,215.408
				c0,0,1.894,0.813,0.194,4.101c0,0,0.386-2.001-1.361-2.267"/>
			<path style="fill:#75AF28;" d="M121.828,222.574c-0.025,1.118,0.861,2.044,1.979,2.069c1.118,0.025,2.044-0.861,2.069-1.979
				c0.025-1.118-0.861-2.044-1.979-2.069C122.779,220.57,121.853,221.456,121.828,222.574z"/>
			<g>
				<path style="fill:none;stroke:#CB2909;stroke-linecap:round;stroke-linejoin:round;stroke-miterlimit:10;" d="M140.641,222.577
					c0,0,0.614,5.868-2.065,4.587"/>
				<path style="fill:none;stroke:#CB2909;stroke-linecap:round;stroke-linejoin:round;stroke-miterlimit:10;" d="M134.585,226.886
					c0.002,0.106,0.673,4.248,4.625,2.682"/>
				<path style="fill:#F8593E;" d="M133.1,224.114c0,0,1.504-1.082,1.856-0.596c0.351,0.486-2.62,3.431-2.714,3.337
					c-0.095-0.094-2.014-3.436-1.063-3.748C132.129,222.797,133.1,224.114,133.1,224.114z"/>
				<path style="fill:#F8593E;" d="M143.626,227.324c0,0-0.691-1.719-1.248-1.497c-0.557,0.222,0.373,4.3,0.504,4.272
					c0.13-0.028,3.542-1.822,2.906-2.595C145.152,226.731,143.626,227.324,143.626,227.324z"/>
				<path style="fill:none;stroke:#CB2909;stroke-linecap:round;stroke-linejoin:round;stroke-miterlimit:10;" d="M139.125,218.565
					c0,0-2.183-2.555-5.217-1.47"/>
				<path style="fill:#001953;" d="M137.516,221.378c-0.136-0.212-0.347-0.359-0.594-0.413c-0.51-0.111-1.014,0.214-1.125,0.723
					c-0.054,0.247-0.008,0.5,0.128,0.712c0.093,0.145,0.22,0.259,0.37,0.334c0.07,0.035,0.146,0.062,0.225,0.079
					c0.247,0.054,0.5,0.008,0.712-0.128c0.212-0.137,0.359-0.348,0.413-0.594C137.698,221.844,137.653,221.591,137.516,221.378z"/>
				<path style="fill:none;stroke:#CB2909;stroke-linecap:round;stroke-linejoin:round;stroke-miterlimit:10;" d="M147.112,219.945
					c0,0-2.402-2.16-5.032-0.59"/>
				<path style="fill:#001953;" d="M145.876,223.172c-0.137-0.212-0.348-0.359-0.594-0.413c-0.51-0.111-1.014,0.213-1.125,0.723
					c-0.054,0.247-0.008,0.5,0.128,0.712c0.093,0.145,0.22,0.259,0.37,0.334c0.07,0.035,0.146,0.062,0.225,0.079
					c0.247,0.054,0.5,0.008,0.712-0.128c0.212-0.137,0.359-0.348,0.413-0.595C146.057,223.638,146.012,223.385,145.876,223.172z"/>
			</g>
		</g>
		<g>
			<ellipse style="opacity:0.1;fill:#04080F;" cx="110.693" cy="447.799" rx="32.311" ry="5.714"/>
			<path style="opacity:0.1;fill:#04080F;" d="M179.125,431.867c0,1.912-8.766,3.462-19.579,3.462c-10.814,0-19.58-1.55-19.58-3.462
				s8.766-3.462,19.58-3.462C170.359,428.404,179.125,429.955,179.125,431.867z"/>
		</g>
	</g>
</g>
<g id="DESIGNED_BY_FREEPIK">
	<g>
		<g>
			<g id="XMLID_1_">
				<g id="XMLID_20_">
					<path id="XMLID_28_" d="M260.353,471.76c-0.432,0.443-0.803,0.932-1.107,1.453l-0.465-0.24c-0.068-0.297-0.35-0.502-0.66-0.467
						c-0.33,0.039-0.566,0.34-0.529,0.67c0.039,0.332,0.34,0.568,0.67,0.529c0.066-0.008,0.127-0.025,0.184-0.053l0.451,0.234
						c-0.25,0.555-0.432,1.139-0.539,1.744l0.748,0.131c0.229-1.305,0.85-2.506,1.791-3.473L260.353,471.76z"/>
					<path id="XMLID_27_" d="M265.841,469.459c-0.172,0-0.342,0.006-0.51,0.016l-0.074-0.625c0.188-0.15,0.297-0.389,0.266-0.645
						c-0.045-0.393-0.402-0.674-0.795-0.629c-0.393,0.047-0.674,0.402-0.627,0.797c0.029,0.254,0.189,0.461,0.404,0.563l0.072,0.625
						c-0.713,0.115-1.402,0.332-2.059,0.645l0.326,0.686c0.935-0.447,1.941-0.674,2.996-0.674c0.496,0,0.992,0.053,1.475,0.158
						l0.16-0.742C266.941,469.518,266.392,469.459,265.841,469.459z"/>
					<path id="XMLID_26_" d="M272.443,472.006c0.332-0.041,0.566-0.342,0.525-0.672c-0.039-0.332-0.34-0.566-0.672-0.525
						c-0.309,0.037-0.535,0.303-0.529,0.607l-0.416,0.363c-0.418-0.43-0.891-0.813-1.408-1.139l-0.404,0.641
						c1.135,0.715,2.021,1.727,2.564,2.926l0.689-0.313c-0.25-0.555-0.566-1.072-0.941-1.545l0.402-0.352
						C272.314,472.01,272.379,472.014,272.443,472.006z"/>
					<path id="XMLID_25_" d="M265.295,479.666c-0.387,0.023-0.775,0.035-1.158,0.035c-0.879,0-1.732-0.061-2.478-0.18
						c-0.391-0.06-0.846-0.154-1.27-0.291c1.047,1.861,3.068,3.125,5.389,3.125c2.855,0,5.262-1.916,5.949-4.504
						c-0.682,0.449-1.506,0.826-2.459,1.123C268.088,479.342,266.713,479.582,265.295,479.666z"/>
					<path id="XMLID_21_" d="M265.841,470.975c-3.352,0-6.08,2.666-6.08,5.943c0,0.426,0.047,0.85,0.137,1.262
						c0.674,0.482,2.707,0.891,5.348,0.73c2.881-0.174,5.297-0.957,6.672-2.158c-0.004-0.195-0.02-0.391-0.045-0.582
						C271.494,473.209,268.9,470.975,265.841,470.975z M263.681,477.49c-1.02,0-1.85-0.83-1.85-1.85c0-1.021,0.83-1.852,1.85-1.852
						c1.02,0,1.85,0.83,1.85,1.852C265.531,476.66,264.701,477.49,263.681,477.49z M268.42,476.582c-0.75,0-1.361-0.611-1.361-1.361
						s0.611-1.359,1.361-1.359s1.359,0.609,1.359,1.359S269.17,476.582,268.42,476.582z"/>
				</g>
				<path id="XMLID_18_" d="M281.845,472.842c-0.295-0.115-0.807-0.309-1.383-0.238c-0.551,0.07-0.844,0.342-0.844,1.008v0.865
					h2.228v1.717h-2.228v5.455h-1.932v-5.455h-1.34v-1.717h1.34v-0.889c0-1.68,0.895-2.781,2.568-2.781
					c0.643,0,1.156,0.121,1.59,0.307V472.842z"/>
				<path id="XMLID_16_" d="M286.547,476.174c-0.176-0.029-0.358-0.047-0.525-0.047c-0.895,0-1.51,0.549-1.51,1.613v3.908h-1.932
					v-7.172h1.873v0.785c0.451-0.674,1.139-0.977,2.02-0.977c0.414,0,0.848,0.127,1.096,0.336L286.547,476.174z"/>
				<path id="XMLID_13_" d="M294.215,478.053c0,0.221-0.016,0.488-0.037,0.65h-5.084c0.207,1.037,0.932,1.488,1.842,1.488
					c0.623,0,1.295-0.252,1.815-0.689l1.133,1.244c-0.814,0.748-1.852,1.088-3.057,1.088c-2.199,0-3.725-1.496-3.725-3.752
					c0-2.258,1.48-3.797,3.627-3.797C292.793,474.285,294.207,475.816,294.215,478.053z M289.101,477.387h3.174
					c-0.178-0.918-0.732-1.438-1.561-1.438C289.804,475.949,289.271,476.498,289.101,477.387z"/>
				<path id="XMLID_10_" d="M301.869,478.053c0,0.221-0.016,0.488-0.037,0.65h-5.086c0.207,1.037,0.934,1.488,1.844,1.488
					c0.621,0,1.295-0.252,1.813-0.689l1.133,1.244c-0.814,0.748-1.85,1.088-3.057,1.088c-2.199,0-3.723-1.496-3.723-3.752
					c0-2.258,1.48-3.797,3.627-3.797C300.447,474.285,301.861,475.816,301.869,478.053z M296.754,477.387h3.176
					c-0.178-0.918-0.734-1.438-1.563-1.438C297.457,475.949,296.923,476.498,296.754,477.387z"/>
				<path id="XMLID_7_" d="M310.215,478.059c0,2.154-1.496,3.775-3.473,3.775c-0.961,0-1.643-0.377-2.109-0.932v3.707h-1.924
					v-10.133h1.887v0.793c0.467-0.586,1.154-0.984,2.139-0.984C308.718,474.285,310.215,475.906,310.215,478.059z M304.537,478.059
					c0,1.133,0.748,1.977,1.844,1.977c1.139,0,1.85-0.881,1.85-1.977c0-1.094-0.711-1.975-1.85-1.975
					C305.285,476.084,304.537,476.928,304.537,478.059z"/>
				<path id="XMLID_4_" d="M313.318,472.131c0,0.695-0.541,1.229-1.236,1.229c-0.697,0-1.229-0.533-1.229-1.229
					s0.531-1.244,1.229-1.244C312.777,470.887,313.318,471.436,313.318,472.131z M313.058,481.648h-1.932v-7.172h1.932V481.648z"/>
				<path id="XMLID_2_" d="M316.281,477.031l2.703-2.555h2.367l-3.479,3.375l3.502,3.797h-2.377l-2.717-2.9v2.9h-1.932V470.99h1.932
					V477.031z"/>
			</g>
			<g>
				<path d="M184.662,481.584v-1.055c-0.527,0.719-1.391,1.23-2.387,1.23c-1.846,0-3.149-1.406-3.149-3.705
					c0-2.256,1.289-3.721,3.149-3.721c0.952,0,1.816,0.469,2.387,1.244v-3.764h1.099v9.77H184.662z M184.662,479.666v-3.209
					c-0.395-0.615-1.245-1.143-2.124-1.143c-1.42,0-2.27,1.172-2.27,2.74c0,1.566,0.85,2.725,2.27,2.725
					C183.417,480.779,184.267,480.281,184.662,479.666z"/>
				<path d="M187.181,478.039c0-2.051,1.465-3.705,3.486-3.705c2.139,0,3.398,1.67,3.398,3.793v0.279h-5.727
					c0.088,1.332,1.025,2.445,2.549,2.445c0.806,0,1.626-0.322,2.182-0.893l0.527,0.717c-0.703,0.703-1.655,1.084-2.812,1.084
					C188.69,481.76,187.181,480.252,187.181,478.039z M190.653,475.242c-1.509,0-2.256,1.273-2.314,2.357h4.644
					C192.967,476.545,192.264,475.242,190.653,475.242z"/>
				<path d="M194.857,480.646l0.571-0.791c0.469,0.543,1.362,1.012,2.329,1.012c1.085,0,1.67-0.514,1.67-1.217
					c0-1.713-4.38-0.658-4.38-3.281c0-1.098,0.952-2.035,2.636-2.035c1.202,0,2.051,0.453,2.622,1.025l-0.513,0.762
					c-0.424-0.514-1.201-0.895-2.109-0.895c-0.966,0-1.567,0.484-1.567,1.113c0,1.553,4.379,0.527,4.379,3.281
					c0,1.188-0.952,2.139-2.783,2.139C196.556,481.76,195.574,481.408,194.857,480.646z"/>
				<path d="M201.727,472.766c0-0.41,0.337-0.746,0.732-0.746c0.41,0,0.747,0.336,0.747,0.746c0,0.41-0.337,0.732-0.747,0.732
					C202.064,473.498,201.727,473.176,201.727,472.766z M201.917,481.584v-7.074h1.099v7.074H201.917z"/>
				<path d="M204.832,483.4l0.556-0.82c0.586,0.703,1.289,0.967,2.3,0.967c1.172,0,2.27-0.57,2.27-2.123v-1.012
					c-0.513,0.719-1.377,1.26-2.373,1.26c-1.846,0-3.149-1.377-3.149-3.662c0-2.27,1.289-3.676,3.149-3.676
					c0.952,0,1.802,0.469,2.373,1.244v-1.068h1.099v6.869c0,2.344-1.641,3.076-3.369,3.076
					C206.486,484.455,205.666,484.221,204.832,483.4z M209.958,479.549v-3.092c-0.381-0.615-1.23-1.143-2.109-1.143
					c-1.421,0-2.27,1.129-2.27,2.695c0,1.553,0.849,2.695,2.27,2.695C208.728,480.705,209.577,480.164,209.958,479.549z"/>
				<path d="M217.663,481.584v-4.629c0-1.244-0.63-1.641-1.582-1.641c-0.864,0-1.685,0.527-2.094,1.1v5.17h-1.099v-7.074h1.099
					v1.025c0.498-0.586,1.464-1.201,2.519-1.201c1.479,0,2.256,0.746,2.256,2.285v4.965H217.663z"/>
				<path d="M220.182,478.039c0-2.051,1.465-3.705,3.486-3.705c2.139,0,3.398,1.67,3.398,3.793v0.279h-5.727
					c0.088,1.332,1.025,2.445,2.548,2.445c0.806,0,1.626-0.322,2.183-0.893l0.527,0.717c-0.703,0.703-1.655,1.084-2.813,1.084
					C221.691,481.76,220.182,480.252,220.182,478.039z M223.654,475.242c-1.509,0-2.256,1.273-2.314,2.357h4.643
					C225.968,476.545,225.265,475.242,223.654,475.242z"/>
				<path d="M233.6,481.584v-1.055c-0.527,0.719-1.392,1.23-2.388,1.23c-1.845,0-3.149-1.406-3.149-3.705
					c0-2.256,1.289-3.721,3.149-3.721c0.952,0,1.817,0.469,2.388,1.244v-3.764h1.098v9.77H233.6z M233.6,479.666v-3.209
					c-0.396-0.615-1.245-1.143-2.124-1.143c-1.421,0-2.271,1.172-2.271,2.74c0,1.566,0.85,2.725,2.271,2.725
					C232.355,480.779,233.204,480.281,233.6,479.666z"/>
				<path d="M239.942,481.584v-9.77h1.099v3.764c0.571-0.775,1.421-1.244,2.388-1.244c1.845,0,3.149,1.465,3.149,3.721
					c0,2.299-1.304,3.705-3.149,3.705c-0.996,0-1.86-0.512-2.388-1.23v1.055H239.942z M243.15,480.779
					c1.436,0,2.285-1.158,2.285-2.725c0-1.568-0.85-2.74-2.285-2.74c-0.864,0-1.729,0.527-2.109,1.143v3.209
					C241.421,480.281,242.285,480.779,243.15,480.779z"/>
				<path d="M247.778,483.357c0.161,0.072,0.425,0.117,0.601,0.117c0.483,0,0.806-0.162,1.055-0.748l0.469-1.068l-2.959-7.148h1.186
					l2.358,5.801l2.344-5.801h1.201l-3.545,8.51c-0.425,1.025-1.143,1.422-2.08,1.435c-0.234,0-0.601-0.043-0.806-0.103
					L247.778,483.357z"/>
			</g>
		</g>
	</g>
</g>
</svg>
